<svg width="438" height="634" viewBox="0 0 438 634" fill="none" xmlns="http://www.w3.org/2000/svg">
<rect x="-0.266842" y="-1.38879" width="697.753" height="289.071" rx="144.536" transform="matrix(-0.827835 -0.560971 0.560993 -0.82782 579.571 630.809)" fill="#F3EFE7" stroke="#F9B900" stroke-width="2"/>
<mask id="path-2-inside-1_3828_2091" fill="white">
<path d="M120.078 322.32L283.363 81.3705C283.499 81.4619 283.636 81.5509 283.772 81.6428C350.311 126.732 367.699 217.225 322.608 283.763C277.517 350.3 187.022 367.687 120.483 322.598C120.347 322.506 120.213 322.412 120.078 322.32Z"/>
</mask>
<path d="M120.078 322.32L283.363 81.3705C283.499 81.4619 283.636 81.5509 283.772 81.6428C350.311 126.732 367.699 217.225 322.608 283.763C277.517 350.3 187.022 367.687 120.483 322.598C120.347 322.506 120.213 322.412 120.078 322.32Z" fill="#F9B900"/>
<path d="M120.078 322.32L118.422 321.198L117.304 322.848L118.95 323.971L120.078 322.32ZM283.363 81.3705L284.48 79.7111L282.826 78.5984L281.707 80.2486L283.363 81.3705ZM283.772 81.6428L284.894 79.9872L283.772 81.6428ZM322.608 283.763L324.263 284.885L322.608 283.763ZM120.483 322.598L119.361 324.253L120.483 322.598ZM120.078 322.32L121.733 323.442L285.019 82.4924L283.363 81.3705L281.707 80.2486L118.422 321.198L120.078 322.32ZM283.363 81.3705L282.247 83.0298C282.461 83.1743 282.477 83.1815 282.65 83.2985L283.772 81.6428L284.894 79.9872C284.795 79.9203 284.536 79.7494 284.48 79.7111L283.363 81.3705ZM283.772 81.6428L282.65 83.2985C348.275 127.768 365.423 217.017 320.952 282.641L322.608 283.763L324.263 284.885C369.974 217.432 352.348 125.696 284.894 79.9872L283.772 81.6428ZM322.608 283.763L320.952 282.641C276.481 348.264 187.23 365.412 121.605 320.942L120.483 322.598L119.361 324.253C186.815 369.962 278.553 352.337 324.263 284.885L322.608 283.763ZM120.483 322.598L121.605 320.942C121.457 320.842 121.381 320.787 121.205 320.668L120.078 322.32L118.95 323.971C119.045 324.036 119.237 324.169 119.361 324.253L120.483 322.598Z" fill="#F9B900" mask="url(#path-2-inside-1_3828_2091)"/>
<path d="M121.044 321.77C54.9617 276.99 37.6944 187.12 82.4755 121.039C127.257 54.959 217.129 37.6911 283.211 82.4706C349.293 127.25 366.561 217.12 321.781 283.201C276.999 349.282 187.126 366.55 121.044 321.77Z" stroke="#F9B900" stroke-width="2"/>
</svg>
