<svg width="211" height="102" viewBox="0 0 211 102" fill="none" xmlns="http://www.w3.org/2000/svg">
<g opacity="0.830002">
<path d="M211 94.961C211 98.827 207.866 101.961 204 101.961H7C3.13401 101.961 0 98.827 0 94.961V7.00001C0 3.13401 3.13401 0 7 0H204C207.866 0 211 3.13401 211 7V94.961Z" fill="#BDCCD4"/>
</g>
<g opacity="0.220001">
<path d="M136.087 50.5437C136.087 67.4128 122.413 81.0882 105.544 81.0882C88.6747 81.0882 75 67.4128 75 50.5437C75 33.6747 88.6747 20 105.544 20C122.413 20 136.087 33.6747 136.087 50.5437Z" fill="white"/>
</g>
<path d="M128.087 50.544L93.2812 30.4492V70.6387L128.087 50.544Z" fill="white"/>
</svg>
