<svg width="109" height="73" viewBox="0 0 109 73" fill="none" xmlns="http://www.w3.org/2000/svg">
<path d="M71.7471 0C73.5246 0 74.9658 1.44124 74.9658 3.21875V38.085C74.9658 39.8625 73.5246 41.3037 71.7471 41.3037H36.8809C35.1034 41.3037 33.6621 39.8625 33.6621 38.085V3.21875C33.6621 1.44124 35.1034 0 36.8809 0H71.7471ZM47.0713 32.7207H50.1504V22.6709C50.1504 22.149 50.2157 21.6921 50.3467 21.2354C50.9363 19.604 52.4431 18.2334 54.4082 18.2334C57.2902 18.2335 58.2724 20.4525 58.2725 23.1279V32.6553H61.2861V22.8018C61.2861 17.1243 57.6833 15.7539 55.4561 15.7539C54.3424 15.7539 53.2285 16.0805 52.377 16.6025C51.3946 17.1246 50.6744 17.9076 50.1504 18.7559H50.085V8.31445H47.0713V32.7207Z" fill="#7C7C7C"/>
<g clip-path="url(#clip0_3569_207)">
<path fill-rule="evenodd" clip-rule="evenodd" d="M7.89985 56.3493C6.85065 56.3493 5.80145 56.6563 4.99913 57.1475C4.07336 57.6388 3.39447 58.3756 2.90073 59.1739H2.83901V49.3491H0V72.3145H2.90073V62.8582C2.90073 62.3669 2.96244 61.9371 3.08588 61.5073C3.64134 59.9722 5.06084 58.6827 6.91237 58.6827C9.62795 58.6827 10.5537 60.7704 10.5537 63.288V72.2531H13.3927V62.981C13.3927 57.6388 9.99825 56.3493 7.89985 56.3493Z" fill="#7C7C7C"/>
<path d="M18.3917 56.6565H15.5527V72.3147H18.3917V56.6565Z" fill="#7C7C7C"/>
<path fill-rule="evenodd" clip-rule="evenodd" d="M70.7297 56.6565L68.5079 64.5163C68.0141 66.3585 67.5821 68.0164 67.3352 69.6129H67.2118C66.8415 68.0164 66.4095 66.3585 65.7923 64.5163L63.3853 56.7179H60.9783L58.4479 64.7005C57.9542 66.3585 57.3987 68.0778 57.0284 69.6129H56.905C56.5964 68.0164 56.1644 66.3585 55.794 64.6391L53.6956 56.6565H50.7949L55.5472 72.3147H58.1393L60.6697 64.8847C61.2252 63.2268 61.7189 61.5689 62.0892 59.7267H62.151C62.5213 61.5689 63.015 63.1654 63.5705 64.8847L65.9774 72.3761H68.5696L73.6921 56.7179H70.7297V56.6565Z" fill="#7C7C7C"/>
<path fill-rule="evenodd" clip-rule="evenodd" d="M108.316 63.6568C108.316 60.7708 106.959 56.2882 101.774 56.2882C97.7628 56.2882 95.1089 59.1128 94.4917 62.9199H92.3316L91.8379 64.9463H94.3683C94.4917 69.4902 97.3308 72.2535 102.083 72.2535C104.613 72.2535 106.342 71.7008 107.391 71.271L106.897 69.2446C105.848 69.7359 104.613 70.0429 102.577 70.0429C99.676 70.0429 97.2073 68.8148 97.1456 65.0077H108.316V63.6568ZM98.5034 62.9813H97.0839C97.3308 61.0164 98.5651 58.376 101.466 58.376C104.675 58.376 105.477 61.2006 105.416 62.9813H98.5034Z" fill="#7C7C7C"/>
<path fill-rule="evenodd" clip-rule="evenodd" d="M28.5764 56.3492C25.9843 56.3492 24.1328 57.823 23.3921 59.2967H23.3304L23.1453 56.7177H20.7383V72.3759H23.639V62.9196C23.639 62.4283 23.7007 61.9371 23.8242 61.5687C24.3179 59.9721 25.7991 58.6212 27.6507 58.6212C30.3662 58.6212 31.292 60.709 31.292 63.2266V72.2531H34.131V62.981C34.131 57.6387 30.7365 56.3492 28.5764 56.3492Z" fill="#7C7C7C"/>
<path fill-rule="evenodd" clip-rule="evenodd" d="M47.2142 58.6826H47.1525C46.4119 57.4546 44.869 56.3493 42.4003 56.3493C38.5738 56.3493 35.3027 59.5423 35.3027 64.7617C35.3027 69.4899 38.2652 72.7443 42.0917 72.7443C44.6838 72.7443 46.5353 71.3934 47.3994 69.6741H47.5228L47.6463 72.3759H50.0532V49.3491H47.2142V58.6826ZM47.2142 65.7442C47.2142 66.174 47.2142 66.5425 47.0908 66.9723C46.5971 69.0601 44.8072 70.3496 42.894 70.3496C39.8081 70.3496 38.2035 67.7092 38.2035 64.5775C38.2035 61.1388 39.9933 58.5598 42.9557 58.5598C45.1158 58.5598 46.6588 60.0336 47.0908 61.8143C47.2142 62.1827 47.2142 62.674 47.2142 63.0424V65.7442Z" fill="#7C7C7C"/>
<path fill-rule="evenodd" clip-rule="evenodd" d="M82.3943 72.3145H85.2333V62.7353C85.2333 59.6037 84.0607 56.3492 79.2467 56.3492C77.2717 56.3492 75.3585 56.9019 74.0624 57.7001L74.6796 59.6037C75.7905 58.8668 77.3334 58.437 78.8147 58.437C82.024 58.3756 82.3943 60.7704 82.3943 61.9985V62.9196C75.6671 62.9196 73.1367 63.9634 72.9515 67.6477C72.8281 69.9197 74.5562 72.3145 77.7655 72.3145C78.6912 72.3145 79.617 72.1303 80.3576 71.7618L80.5428 69.7355C79.9873 70.0425 79.3084 70.2267 78.5678 70.2267C77.1483 70.2267 75.9757 69.7969 75.9757 67.9548C75.9757 64.8845 78.1975 65.0073 82.5177 65.0073L82.3943 72.3145Z" fill="#7C7C7C"/>
<path fill-rule="evenodd" clip-rule="evenodd" d="M94.8631 59.0511L95.1717 56.4106C94.9249 56.3492 94.678 56.3492 94.3694 56.3492C92.4562 56.3492 90.6663 57.7001 89.9875 59.7879H89.9257L89.8023 56.6563H87.457V72.3145H90.296V63.9634C90.296 63.5336 90.3578 63.0424 90.4195 62.6125C90.7898 60.4634 92.271 58.9896 94.246 58.9896C94.5546 59.0511 94.5546 58.9282 94.8631 59.0511Z" fill="#7C7C7C"/>
</g>
<defs>
<clipPath id="clip0_3569_207">
<rect width="108.623" height="23.3338" fill="white" transform="translate(0 49.3494)"/>
</clipPath>
</defs>
</svg>
