<svg width="85" height="88" viewBox="0 0 85 88" fill="none" xmlns="http://www.w3.org/2000/svg">
<path fill-rule="evenodd" clip-rule="evenodd" d="M40.9017 0.0836245C40.8894 0.129637 40.8791 0.21367 40.8788 0.270386C40.8785 0.327102 40.8449 0.468706 40.804 0.585C40.7631 0.701331 40.7299 0.838884 40.7302 0.890694C40.7305 0.942504 40.6984 1.09362 40.6588 1.22649C40.6193 1.35936 40.5697 1.5517 40.5488 1.65391C40.4689 2.04308 40.3989 2.31502 40.3423 2.45652C40.31 2.53717 40.2837 2.67766 40.2837 2.76875C40.2837 2.86884 40.2543 2.9825 40.2095 3.05605C40.1631 3.13206 40.1352 3.24348 40.1351 3.3529C40.1351 3.44923 40.1015 3.61291 40.0607 3.71665C40.0198 3.82038 39.9868 3.94225 39.9873 3.98748C39.9883 4.07244 39.882 4.54353 39.759 4.99889C39.7204 5.14198 39.6888 5.30444 39.6889 5.35989C39.689 5.41534 39.6555 5.54557 39.6147 5.6493C39.5738 5.75303 39.5403 5.88683 39.5403 5.94663C39.5403 6.00643 39.5069 6.14023 39.466 6.24397C39.4251 6.3477 39.3917 6.47849 39.3917 6.53468C39.3917 6.59084 39.3582 6.73196 39.3173 6.84829C39.2764 6.96459 39.243 7.10976 39.243 7.17082C39.243 7.23189 39.2095 7.36673 39.1687 7.47046C39.1278 7.57419 39.0941 7.71278 39.0938 7.77846C39.0936 7.84413 39.0601 8.00391 39.0195 8.13347C38.9789 8.26307 38.9454 8.4136 38.9452 8.46797C38.9449 8.52238 38.9115 8.67291 38.8708 8.80247C38.8302 8.93207 38.797 9.0914 38.797 9.15659C38.797 9.30325 38.7056 9.44028 38.6077 9.44028C38.5223 9.44028 38.4124 9.37494 38.1257 9.15377C38.012 9.06605 37.9033 8.9941 37.8841 8.99388C37.8649 8.99369 37.7656 8.92694 37.6634 8.84562C37.5612 8.7643 37.4643 8.69755 37.4481 8.69736C37.4319 8.69714 37.33 8.63005 37.2217 8.54829C37.1134 8.46652 37.012 8.39962 36.9964 8.39962C36.9807 8.39962 36.8839 8.33272 36.7812 8.25095C36.6785 8.16919 36.5739 8.10229 36.5488 8.10229C36.5237 8.10229 36.4297 8.03959 36.34 7.96291C36.2502 7.88628 36.1182 7.79135 36.0467 7.752C35.9751 7.71267 35.9082 7.669 35.898 7.65499C35.8699 7.61638 35.2632 7.21081 35.1361 7.14562C35.0748 7.11414 35.0162 7.07601 35.006 7.06085C34.9958 7.04568 34.678 6.82558 34.2999 6.57177C33.9217 6.31796 33.5341 6.05445 33.4387 5.98622C33.3276 5.90683 33.2423 5.87081 33.202 5.88631L33.139 5.91051L33.1631 6.23519C33.1763 6.41378 33.2028 6.66023 33.222 6.78288C33.241 6.90553 33.2747 7.26511 33.2967 7.58196C33.3187 7.8988 33.3595 8.31693 33.3874 8.51112C33.4153 8.70532 33.4492 9.09835 33.4628 9.38453C33.4763 9.67071 33.5102 10.0136 33.5381 10.1464C33.5659 10.2793 33.5984 10.6305 33.6104 10.9269C33.6223 11.2233 33.6565 11.608 33.6865 11.7818C33.7165 11.9555 33.7574 12.3402 33.7773 12.6366C33.7973 12.933 33.8304 13.2926 33.851 13.4357C33.8715 13.5788 33.9047 13.9049 33.9246 14.1604C33.9445 14.4159 33.9775 14.7086 33.9979 14.8108C34.0182 14.913 34.0419 15.1974 34.0505 15.4427L34.066 15.8887L34.0147 15.9909C33.9865 16.0471 33.9405 16.0931 33.9125 16.0931C33.8624 16.0931 33.0338 16.5029 32.9493 16.5694C32.8989 16.6092 32.584 16.7868 32.4229 16.8663C32.3616 16.8966 32.278 16.9503 32.2371 16.9857C32.1962 17.0211 32.0875 17.0916 31.9955 17.1424C31.5967 17.3626 31.5269 17.4048 31.4566 17.4682C31.4157 17.5051 31.3124 17.5745 31.227 17.6225C31.1416 17.6705 31.0131 17.7635 30.9416 17.8292C30.87 17.8948 30.7505 17.9811 30.676 18.0211C30.6015 18.061 30.4698 18.1578 30.3834 18.2362C30.2969 18.3147 30.1529 18.4271 30.0633 18.4861C29.9737 18.5451 29.7903 18.6956 29.6556 18.8206C29.5209 18.9456 29.3118 19.1314 29.1909 19.2336C28.7932 19.5698 28.5247 19.8174 28.2231 20.1259C27.8383 20.5197 27.032 21.4358 26.8725 21.6604C26.8042 21.7566 26.6789 21.9171 26.594 22.0171C26.5092 22.1171 26.3838 22.2843 26.3155 22.3887C26.2472 22.4932 26.1549 22.6204 26.1103 22.6715C26.0657 22.7226 25.9978 22.823 25.9594 22.8945C25.9211 22.9661 25.8542 23.0664 25.8108 23.1175C25.7674 23.1686 25.7001 23.269 25.6611 23.3405C25.6223 23.4121 25.5514 23.5179 25.5037 23.5757C25.4561 23.6334 25.4171 23.6963 25.4171 23.7154C25.4171 23.7345 25.3283 23.8879 25.2198 24.0563C25.1113 24.2248 24.9972 24.4128 24.9664 24.4741C24.8791 24.6479 24.8385 24.7255 24.7719 24.8458C24.738 24.9071 24.6341 25.1162 24.541 25.3104C24.4479 25.5046 24.356 25.6927 24.3369 25.7285C24.2061 25.9728 24.099 26.2121 23.9832 26.5183C23.9291 26.6614 23.8632 26.8202 23.8367 26.8714C23.7522 27.0343 23.6331 27.3477 23.6331 27.407C23.6331 27.4384 23.5997 27.519 23.5589 27.5859C23.5181 27.6529 23.4846 27.7532 23.4846 27.8089C23.4845 27.8646 23.451 27.965 23.4102 28.0319C23.3694 28.0988 23.336 28.2001 23.3359 28.257C23.3358 28.3139 23.3094 28.4226 23.2771 28.4986C23.2448 28.5746 23.2038 28.712 23.1859 28.804C23.1443 29.0184 23.0425 29.4222 22.9939 29.5659C22.9732 29.6272 22.9405 29.7527 22.9213 29.8447C22.9021 29.9367 22.8609 30.129 22.8297 30.2721C22.7984 30.4152 22.7677 30.5824 22.7612 30.6437C22.7548 30.7051 22.7477 30.7672 22.7453 30.7818C22.743 30.7964 22.7065 30.8269 22.6643 30.8495L22.5874 30.8906L22.4994 30.8329C22.4031 30.7699 22.1971 30.6523 22.0865 30.5973C21.9304 30.5197 21.8642 30.4863 21.7933 30.4493C21.5076 30.2999 20.8206 30.0768 20.381 29.9906C20.169 29.949 18.6925 29.9389 18.4785 29.9775C18.4006 29.9916 18.3034 30.0207 18.2625 30.0422C18.2216 30.0638 18.1213 30.0939 18.0395 30.1091C17.6603 30.18 16.8159 30.5661 16.332 30.89C15.9994 31.1127 15.1236 31.9736 15.0308 32.1692C14.9982 32.2379 14.9321 32.3409 14.884 32.3981C14.8052 32.4918 14.71 32.6454 14.6098 32.8408C14.59 32.8794 14.5383 32.9801 14.4948 33.0646C14.4514 33.1492 14.4158 33.2386 14.4158 33.2634C14.4158 33.2882 14.3908 33.3612 14.3603 33.4256C14.3298 33.49 14.2808 33.6264 14.2514 33.7286C14.0716 34.3543 13.9967 34.9101 14.0161 35.4754C14.033 35.9667 14.12 36.5752 14.2094 36.8274C14.2412 36.9168 14.2672 37.0255 14.2673 37.0689C14.2674 37.1123 14.3008 37.2026 14.3416 37.2696C14.3824 37.3365 14.4158 37.415 14.4158 37.4441C14.4158 37.5475 14.7952 38.2354 15.015 38.5307C15.0943 38.6372 15.1591 38.7359 15.1591 38.7502C15.1591 38.7992 15.9582 39.587 16.0883 39.6664C16.1598 39.71 16.3035 39.8093 16.4076 39.887C16.5116 39.9647 16.6104 40.0283 16.6271 40.0283C16.6437 40.0283 16.7122 40.0701 16.7792 40.1212C16.8462 40.1723 16.9194 40.2141 16.9419 40.2141C16.9645 40.2141 17.0261 40.2425 17.079 40.2771C17.1673 40.335 17.451 40.4487 17.6307 40.4983C17.6716 40.5096 17.758 40.5424 17.8228 40.5712C17.8875 40.6 18.0213 40.6341 18.1201 40.647C18.2189 40.66 18.3499 40.6975 18.4112 40.7304L18.5227 40.7902L19.4333 40.7899L20.3438 40.7897L20.4322 40.7396C20.4808 40.7121 20.6063 40.6761 20.711 40.6596C21.0589 40.6048 21.7612 40.3167 22.2022 40.0479C22.3044 39.9857 22.433 39.9116 22.4881 39.8834C22.5431 39.8552 22.6531 39.7697 22.7326 39.6933C22.8121 39.617 22.913 39.5353 22.9569 39.5118L23.0367 39.4691L23.1119 39.5443C23.1533 39.5856 23.1871 39.6609 23.1871 39.7116C23.1871 39.8001 23.2752 40.122 23.3958 40.4743C23.4272 40.5663 23.4661 40.7036 23.482 40.7794C23.498 40.8552 23.5359 40.9555 23.5662 41.0024C23.5965 41.0492 23.6336 41.1377 23.6487 41.199C23.6637 41.2603 23.6973 41.3607 23.7233 41.422C23.7493 41.4833 23.8074 41.6339 23.8524 41.7565C23.9471 42.015 24.0693 42.2908 24.1818 42.4999C24.2038 42.5407 24.2691 42.6911 24.327 42.8339C24.4845 43.2228 24.8837 43.9951 25.0507 44.2338C25.0887 44.2881 25.1197 44.3523 25.1197 44.3764C25.1197 44.4006 25.1667 44.49 25.2242 44.5751C25.5102 44.999 25.5657 45.0881 25.5657 45.1228C25.5657 45.1435 25.6326 45.2491 25.7144 45.3574C25.7962 45.4657 25.8631 45.5665 25.8631 45.5814C25.8631 45.5963 25.9267 45.6868 26.0044 45.7824C26.0822 45.8781 26.1669 45.9991 26.1927 46.0514C26.2185 46.1036 26.2932 46.2049 26.3588 46.2764C26.4243 46.348 26.5321 46.4909 26.5983 46.5941C26.6646 46.6974 26.754 46.8135 26.7971 46.8522C26.8401 46.891 27.0054 47.0905 27.1645 47.2955C27.5368 47.7758 29.2375 49.4753 29.6726 49.8019C29.8566 49.9401 30.0388 50.0886 30.0776 50.1321C30.1163 50.1755 30.2334 50.2652 30.3377 50.3313C30.4421 50.3975 30.5856 50.5056 30.6566 50.5716C30.7277 50.6375 30.828 50.7125 30.8796 50.7381C30.9312 50.7638 31.048 50.8438 31.1391 50.9159C31.2301 50.988 31.3639 51.081 31.4364 51.1225C31.6776 51.2606 31.8118 51.3436 32.1725 51.5778C32.3693 51.7055 32.5418 51.81 32.5558 51.81C32.5698 51.81 32.6794 51.8693 32.7994 51.9418C33.0158 52.0724 34.278 52.702 34.3235 52.702C34.3365 52.702 34.4829 52.7668 34.6487 52.8459C34.8146 52.925 35.0506 53.0274 35.1733 53.0734C35.2959 53.1195 35.4381 53.1786 35.4892 53.2049C35.5403 53.2312 35.649 53.2652 35.7308 53.2803C35.8125 53.2955 35.9129 53.3296 35.9538 53.356C35.9946 53.3824 36.095 53.4202 36.1768 53.44C36.2585 53.4598 36.3756 53.4935 36.4369 53.515C36.694 53.6049 37.1851 53.743 37.2472 53.7429C37.2839 53.7428 37.3594 53.7662 37.4149 53.7948C37.4703 53.8235 37.5991 53.859 37.7011 53.8738C37.803 53.8885 37.9418 53.9231 38.0094 53.9507C38.077 53.9783 38.2192 54.0111 38.3253 54.0236C38.4314 54.0362 38.5935 54.0693 38.6855 54.0973C38.7775 54.1252 38.9782 54.1595 39.1315 54.1733C39.2848 54.1871 39.4521 54.2196 39.5032 54.2455C39.5543 54.2713 39.8219 54.3047 40.0978 54.3196C40.3978 54.3358 40.6399 54.3672 40.6999 54.3978L40.8003 54.4489H42.5886C43.8069 54.4489 44.401 54.436 44.4525 54.4084C44.4941 54.3861 44.7636 54.3515 45.0515 54.3315C45.3394 54.3115 45.6178 54.2733 45.6703 54.2467C45.7228 54.2201 45.9046 54.1866 46.0743 54.1722C46.244 54.1579 46.4364 54.1244 46.5018 54.0979C46.5671 54.0715 46.7142 54.0394 46.8286 54.0267C46.9431 54.014 47.1082 53.9783 47.1956 53.9475C47.2831 53.9166 47.4034 53.8914 47.463 53.8914C47.5225 53.8914 47.6368 53.8579 47.7169 53.817C47.7971 53.7762 47.9093 53.742 47.9663 53.7411C48.0234 53.7402 48.1369 53.7141 48.2187 53.6831C48.3005 53.6521 48.4676 53.6019 48.5902 53.5715C48.7127 53.5412 48.829 53.5003 48.8485 53.4808C48.868 53.4613 48.9231 53.4454 48.9709 53.4454C49.0188 53.4454 49.1235 53.4119 49.2036 53.371C49.2837 53.3302 49.3876 53.2966 49.4344 53.2966C49.4812 53.2965 49.5711 53.265 49.6341 53.2265C49.6971 53.1881 49.8059 53.1444 49.8757 53.1293C49.9455 53.1142 50.1281 53.0434 50.2814 52.972C50.4347 52.9005 50.6605 52.7955 50.7832 52.7385C51.6251 52.3476 51.9053 52.2116 52.2048 52.0483C52.3019 51.9953 52.455 51.9121 52.5452 51.8634C52.7034 51.7779 52.8483 51.6865 53.1618 51.4745C53.2436 51.4193 53.3452 51.3632 53.3876 51.35C53.43 51.3368 53.4969 51.2964 53.5363 51.2603C53.5756 51.2241 53.6855 51.1449 53.7804 51.0842C53.9687 50.9637 54.3263 50.718 54.7042 50.4494C54.8371 50.3549 55.0519 50.1834 55.1816 50.0682C55.3114 49.953 55.4702 49.8263 55.5347 49.7865C55.7976 49.6244 57.8246 47.5995 58.0481 47.2757C58.1257 47.1633 58.2288 47.028 58.2772 46.975C58.4779 46.7551 58.5696 46.6429 58.5703 46.6164C58.5707 46.6008 58.6615 46.4795 58.772 46.3466C58.8826 46.2137 59.0079 46.0413 59.0505 45.9635C59.0932 45.8857 59.1627 45.7854 59.2052 45.7405C59.2476 45.6957 59.3208 45.5837 59.3679 45.4918C59.415 45.3998 59.4888 45.2927 59.5319 45.2537C59.5749 45.2148 59.6102 45.167 59.6102 45.1476C59.6102 45.1282 59.6628 45.0346 59.7272 44.9396C59.8411 44.7715 59.8927 44.6852 60.0859 44.3396C60.1373 44.2476 60.2186 44.1206 60.2665 44.0574C60.3144 43.9941 60.3535 43.9288 60.3535 43.9122C60.3535 43.8956 60.4765 43.6296 60.6268 43.321C60.7771 43.0125 60.9466 42.6513 61.0035 42.5184C61.0605 42.3856 61.1704 42.1431 61.2479 41.9795C61.3254 41.816 61.3971 41.6404 61.4073 41.5893C61.4174 41.5382 61.4706 41.3793 61.5253 41.2362C61.5801 41.0931 61.6469 40.9008 61.6737 40.8088C61.7005 40.7168 61.7505 40.5579 61.7848 40.4557C61.819 40.3535 61.8638 40.2197 61.8843 40.1584C61.9048 40.097 61.9387 39.9716 61.9595 39.8796C62.0299 39.5691 62.1317 39.5426 62.3879 39.7681C62.4808 39.8499 62.5728 39.9168 62.5923 39.9168C62.6119 39.9168 62.6722 39.9478 62.7265 39.9857C62.8419 40.0664 63.2582 40.28 63.5499 40.4082C63.758 40.4996 64.054 40.5946 64.5534 40.73L64.8321 40.8056L65.6684 40.7979L66.5046 40.7902L66.6235 40.7252C66.689 40.6894 66.8061 40.66 66.8837 40.6599C66.9614 40.6597 67.0751 40.6335 67.1364 40.6014C67.1977 40.5694 67.3817 40.4991 67.5453 40.4454C67.7088 40.3915 67.887 40.3175 67.9412 40.2808C67.9955 40.2441 68.0592 40.2141 68.0826 40.2141C68.1224 40.2141 68.399 40.0384 68.8461 39.7294C69.0968 39.556 69.6256 39.0452 69.7679 38.839C69.8313 38.747 69.9007 38.6522 69.9221 38.6284C70.0192 38.5207 70.1459 38.3404 70.2132 38.2145C70.2536 38.1389 70.3263 38.0298 70.3747 37.972C70.4232 37.9142 70.4628 37.843 70.4628 37.8139C70.4628 37.7847 70.4963 37.6985 70.5372 37.6222C70.578 37.5459 70.6116 37.4581 70.6116 37.4272C70.6117 37.3962 70.6452 37.3161 70.686 37.2492C70.7268 37.1823 70.7602 37.0861 70.7602 37.0356C70.7602 36.9851 70.7921 36.8475 70.8311 36.7299C70.9339 36.4204 71.0014 35.8759 71.0004 35.3639C70.9994 34.8772 70.907 34.1639 70.817 33.9485C70.7857 33.8736 70.7602 33.7731 70.7602 33.7251C70.7602 33.6772 70.7267 33.5783 70.6858 33.5056C70.6449 33.4328 70.6115 33.341 70.6115 33.3016C70.6115 33.2059 70.3358 32.6883 70.0769 32.2977C69.6981 31.7265 68.9789 31.0575 68.3502 30.6917C67.8879 30.4226 67.2577 30.1561 66.9878 30.1154C66.9264 30.1061 66.8177 30.0707 66.7462 30.0367L66.6161 29.9748H65.5568H64.4976L64.3787 30.0398C64.3132 30.0756 64.2163 30.1048 64.1631 30.1048C64.11 30.1048 63.9974 30.1383 63.9128 30.1792C63.8281 30.2201 63.7287 30.2535 63.6918 30.2535C63.6548 30.2535 63.3725 30.3811 63.0643 30.5371C62.7176 30.7126 62.4908 30.8075 62.4694 30.786C62.4503 30.767 62.4197 30.6322 62.4014 30.4865C62.3831 30.3408 62.3556 30.2013 62.3403 30.1765C62.325 30.1517 62.2911 30.0209 62.265 29.8858C62.1771 29.431 62.0875 29.0857 61.9314 28.5996C61.8986 28.4974 61.8592 28.3469 61.844 28.2651C61.8288 28.1833 61.7882 28.0629 61.7539 27.9975C61.7196 27.932 61.6915 27.8436 61.6915 27.8009C61.6915 27.7582 61.6581 27.6576 61.6172 27.5775C61.5763 27.4974 61.5428 27.3935 61.5427 27.3467C61.5426 27.2999 61.5092 27.2069 61.4684 27.1399C61.4276 27.073 61.3936 26.9977 61.3929 26.9727C61.3922 26.9476 61.3594 26.8602 61.3199 26.7784C61.2804 26.6967 61.2475 26.6109 61.2468 26.5878C61.2454 26.5417 61.1542 26.3518 60.5619 25.1617C60.1122 24.2583 60.0901 24.2171 59.8981 23.9279C59.8215 23.8126 59.7589 23.709 59.7589 23.6978C59.7589 23.6866 59.6585 23.5272 59.5359 23.3436C59.4132 23.1599 59.3129 22.9939 59.3129 22.9747C59.3129 22.9555 59.2414 22.8585 59.154 22.7592C59.0666 22.6599 58.9471 22.5043 58.8884 22.4133C58.7547 22.2061 58.1682 21.4588 58.0121 21.2968C57.9814 21.2649 57.8031 21.0553 57.6159 20.8309C57.2261 20.3639 56.4675 19.6101 56.0062 19.2317C55.8331 19.0897 55.6073 18.8958 55.5045 18.8008C55.3135 18.6246 54.883 18.2881 54.4652 17.9886C54.3369 17.8966 54.178 17.7753 54.1121 17.7191C54.0463 17.6629 53.9709 17.6169 53.9447 17.6169C53.9185 17.6169 53.8211 17.55 53.7281 17.4682C53.6353 17.3865 53.5383 17.3196 53.5127 17.3196C53.4871 17.3196 53.4114 17.2778 53.3444 17.2267C53.2773 17.1756 53.2109 17.1337 53.1966 17.1337C53.1824 17.1337 53.0892 17.0752 52.9896 17.0037C52.8901 16.9321 52.7908 16.8736 52.769 16.8736C52.7473 16.8736 52.6753 16.8323 52.6091 16.7818C52.543 16.7313 52.4312 16.6634 52.3608 16.6309C52.2903 16.5984 52.1323 16.5157 52.0097 16.4472C51.7358 16.2942 51.4897 16.1729 51.1734 16.0349C51.0406 15.9769 50.9081 15.9084 50.879 15.8828L50.8262 15.8361L50.8343 15.4721C50.8391 15.2531 50.8202 15.0119 50.7869 14.8666C50.754 14.7229 50.7216 14.3161 50.7071 13.8631C50.672 12.7652 50.6695 12.7204 50.6028 12.0048C50.5695 11.647 50.5257 10.953 50.5054 10.4624C50.4852 9.97176 50.4529 9.41148 50.4337 9.21728C50.4144 9.02309 50.3894 8.49625 50.3781 8.04654C50.3668 7.59683 50.3334 7.06163 50.3039 6.85721C50.2743 6.6528 50.2398 6.08634 50.227 5.59846C50.2143 5.11054 50.1809 4.5837 50.1528 4.42772C50.1247 4.27169 50.0906 3.72728 50.0771 3.21791C50.0636 2.70854 50.0372 2.19843 50.0185 2.08433C49.9998 1.97023 49.9844 1.72542 49.9843 1.54022C49.9842 1.30852 49.9677 1.18104 49.9314 1.13146C49.9024 1.0918 49.8716 1.06768 49.863 1.0779C49.8544 1.08809 49.775 1.24693 49.6867 1.43091C49.5982 1.61488 49.4952 1.80978 49.4577 1.86405C49.4201 1.91831 49.3894 1.98279 49.3894 2.00736C49.3894 2.03193 49.3476 2.10169 49.2965 2.16242C49.2454 2.22315 49.2036 2.30168 49.2036 2.33692C49.2036 2.37215 49.1878 2.41682 49.1685 2.43626C49.1492 2.45566 49.0352 2.66391 48.9151 2.89898C48.795 3.13406 48.6744 3.36821 48.647 3.41931C48.6197 3.47042 48.5858 3.53732 48.5718 3.56798C48.5577 3.59864 48.5269 3.66134 48.5032 3.70735C48.4796 3.75337 48.4462 3.82027 48.4289 3.85602C48.3736 3.97064 48.3245 4.06735 48.2731 4.16264C48.2455 4.21375 48.1403 4.41445 48.0392 4.60864C47.6614 5.33428 47.5416 5.56033 47.4577 5.70505C47.4103 5.78682 47.2683 6.05442 47.142 6.29972C47.0157 6.54501 46.8927 6.78336 46.8687 6.82934C46.7948 6.97068 46.7404 7.07724 46.7077 7.14525C46.6904 7.18101 46.6565 7.24791 46.6322 7.29392C46.4251 7.68707 46.2304 8.09181 46.2303 8.12931C46.2303 8.1544 46.188 8.2026 46.1364 8.23642L46.0426 8.29793L45.9639 8.22799C45.9207 8.18952 45.8581 8.0995 45.8248 8.02796C45.764 7.89743 45.6408 7.69706 45.4439 7.40865C45.3858 7.32354 45.3383 7.24389 45.3383 7.2317C45.3383 7.21947 45.2488 7.06334 45.1394 6.88468C45.03 6.70606 44.9157 6.50971 44.8853 6.44838C44.7807 6.23716 44.6619 6.03936 44.595 5.96522C44.5581 5.92433 44.4914 5.81228 44.4467 5.71624C44.4021 5.62016 44.3419 5.52197 44.313 5.49796C44.2841 5.47399 44.2605 5.44002 44.2605 5.42247C44.2605 5.39523 44.1603 5.22159 43.9726 4.92367C43.9472 4.88327 43.8914 4.77998 43.8487 4.69416C43.8059 4.60831 43.7472 4.51847 43.7184 4.49447C43.6894 4.47049 43.6658 4.43541 43.6658 4.41649C43.6658 4.39754 43.6073 4.29057 43.5357 4.17874C43.4642 4.06687 43.4056 3.96473 43.4056 3.95172C43.4056 3.93872 43.3665 3.87631 43.3186 3.81306C43.2342 3.70163 43.0817 3.44362 42.9651 3.2149C42.9338 3.15357 42.8194 2.96559 42.711 2.79711C42.6024 2.62867 42.5136 2.47904 42.5136 2.46462C42.5136 2.4502 42.4747 2.37895 42.4272 2.30633C42.1759 1.92243 42.0676 1.74482 42.0676 1.71676C42.0676 1.69959 41.9673 1.53323 41.8446 1.34706C41.722 1.16089 41.6216 0.991861 41.6216 0.97142C41.6216 0.933919 41.5233 0.767041 41.3716 0.54735C41.3261 0.48138 41.2599 0.368877 41.2245 0.297332C41.1443 0.135137 41.0282 0 40.9691 0C40.9444 0 40.9141 0.0376125 40.9017 0.0836245ZM32.7203 26.4485C32.6385 26.4798 32.5131 26.5193 32.4415 26.5361C30.2827 27.0441 28.3749 28.6891 27.6517 30.6662C27.465 31.1765 27.3861 31.5911 27.3624 32.1862L27.3408 32.7251L27.4174 33.1711C27.5166 33.7482 27.6702 34.2156 27.9428 34.7692C28.2334 35.3596 28.5393 35.822 28.8916 36.2036C29.0503 36.3754 29.2071 36.5579 29.2401 36.609C29.2731 36.6601 29.3714 36.7903 29.4585 36.8985C29.5456 37.0066 29.6171 37.1069 29.6175 37.1215C29.6178 37.136 29.6859 37.2231 29.7688 37.3151C29.8518 37.4071 30.047 37.6413 30.2027 37.8355C30.3585 38.0297 30.5976 38.3056 30.734 38.4487C30.8705 38.5918 31.0796 38.8176 31.1986 38.9505C31.4549 39.2367 32.2061 39.988 32.7017 40.4538C32.8959 40.6363 33.1969 40.9209 33.3707 41.0863C33.5444 41.2516 33.8288 41.5063 34.0025 41.6521C34.1763 41.798 34.3673 41.9687 34.4271 42.0315L34.5357 42.1457L34.297 42.3944C33.8923 42.8162 32.1298 44.5737 31.9748 44.71C31.6707 44.9774 30.8506 45.7378 30.5646 46.0174C30.4011 46.1772 30.2296 46.3344 30.1837 46.3666C30.1377 46.3988 30.1 46.4534 30.1 46.4881C30.1 46.574 30.7147 47.2604 31.143 47.6528C33.7475 50.0387 37.0128 51.5548 40.581 52.0349L41.1571 52.1124L42.1977 52.1331C43.5976 52.161 44.6299 52.0659 45.9144 51.7908C46.1597 51.7382 46.4356 51.6793 46.5276 51.6597C46.7124 51.6204 47.0141 51.5356 47.271 51.4508C47.3629 51.4204 47.5135 51.3757 47.6054 51.3513C47.6974 51.327 47.8092 51.2865 47.8539 51.2613C47.8985 51.236 47.9623 51.2154 47.9957 51.2154C48.029 51.2154 48.1346 51.1836 48.2304 51.1448C48.3262 51.106 48.5049 51.0368 48.6275 50.9911C48.7502 50.9453 48.9341 50.8702 49.0364 50.8241C49.1386 50.7781 49.3894 50.6677 49.5939 50.5789C49.7983 50.4901 50.13 50.3294 50.331 50.2217C50.5321 50.1141 50.7099 50.0261 50.7261 50.0261C50.7423 50.0261 50.7772 50 50.8036 49.9681C50.8301 49.9362 50.9116 49.8804 50.9847 49.8442C51.2352 49.7201 51.4894 49.5689 51.5944 49.4816C51.6522 49.4336 51.7146 49.3942 51.7332 49.3942C51.7666 49.3942 52.2446 49.0685 52.4526 48.9039C52.5122 48.8567 52.6652 48.7429 52.7927 48.6509C53.0816 48.4424 53.5177 48.0896 53.7379 47.8865C53.8299 47.8016 54.1782 47.485 54.5119 47.1829L55.1185 46.6337L55.0981 46.5552C55.0868 46.512 54.4375 45.8325 53.6551 45.0453C52.8728 44.258 51.917 43.2838 51.5312 42.8803L50.8298 42.1468L51.1958 41.7472C51.6247 41.2792 52.052 40.8519 52.4389 40.5041C53.4202 39.6221 55.1256 37.7647 55.6892 36.9641C55.8374 36.7535 56.185 36.3079 56.412 36.0374C56.6095 35.8022 57.0633 34.9216 57.2668 34.379C57.332 34.2052 57.4077 34.0129 57.435 33.9516C57.5182 33.7648 57.6656 33.2279 57.7345 32.8611L57.7996 32.5139L57.7793 32.062C57.7383 31.1495 57.3898 30.0923 56.8766 29.3243C56.5225 28.7945 55.9075 28.2015 55.2874 27.792C55.0791 27.6544 54.8669 27.5123 54.8159 27.4761C54.7225 27.4098 54.6754 27.3833 54.3936 27.2384C53.8186 26.9429 53.2415 26.6862 53.148 26.6843C53.1147 26.6837 53.0567 26.6598 53.019 26.6313C52.9814 26.6028 52.8829 26.568 52.8001 26.554C52.7174 26.54 52.581 26.4973 52.4969 26.4592C52.3121 26.3753 52.0733 26.3682 51.9658 26.4435C51.9223 26.474 51.5297 26.6809 51.0934 26.9033C50.657 27.1257 50.1579 27.3823 49.9841 27.4735C49.5145 27.7201 49.4436 27.7565 49.2872 27.8319C49.2514 27.8491 49.1804 27.8854 49.1293 27.9125C49.0782 27.9396 48.936 28.0105 48.8134 28.0702C48.6907 28.1298 48.5653 28.1936 48.5346 28.212C48.5039 28.2304 48.4203 28.276 48.3488 28.3133C48.2772 28.3506 48.1769 28.4036 48.1258 28.4311C48.0747 28.4586 48.0078 28.4945 47.9771 28.5109C47.9464 28.5273 47.7792 28.6135 47.6054 28.7026C47.2975 28.8604 47.1616 28.9318 47.0479 28.9955C47.0173 29.0126 46.0012 29.5198 44.7901 30.1225L42.5879 31.2182L42.0955 30.9818C41.4746 30.6838 39.7238 29.8093 39.1971 29.5341C38.6654 29.2564 38.6801 29.2638 38.574 29.2171C38.5229 29.1946 38.456 29.1621 38.4253 29.1448C38.3373 29.0952 38.1759 29.0126 37.7563 28.8029C37.5417 28.6955 37.3217 28.5766 37.2674 28.5386C37.2132 28.5006 37.1447 28.4695 37.1152 28.4695C37.0858 28.4695 37.0314 28.4361 36.9944 28.3952C36.9574 28.3543 36.8985 28.3208 36.8636 28.3208C36.8286 28.3208 36.7602 28.291 36.7114 28.2546C36.6626 28.2182 36.5308 28.1478 36.4183 28.0982C36.3059 28.0486 36.1695 27.9781 36.1153 27.9415C36.061 27.9048 35.9967 27.8748 35.9723 27.8748C35.948 27.8748 35.8837 27.8442 35.8294 27.8068C35.7751 27.7694 35.5635 27.6547 35.3591 27.552C34.8161 27.279 34.1782 26.9484 34.114 26.9066C34.0834 26.8867 33.9496 26.8202 33.8167 26.7588C33.6838 26.6974 33.4691 26.5889 33.3397 26.5177C33.0814 26.3756 32.9489 26.3608 32.7203 26.4485ZM48.967 31.2007C48.5948 31.2783 48.3672 31.3587 48.0341 31.5301C47.2221 31.948 46.6341 32.6684 46.3544 33.588L46.2551 33.9144L46.2544 34.4719L46.2538 35.0294L46.3346 35.3267C46.6476 36.4789 47.509 37.3573 48.6728 37.7114L48.9992 37.8107L49.5567 37.8113L50.1142 37.8119L50.4115 37.7311C51.5637 37.4181 52.4421 36.5567 52.7962 35.393L52.8955 35.0666L52.8961 34.5091L52.8967 33.9516L52.8159 33.6542C52.5026 32.5009 51.6304 31.6125 50.4777 31.2726L50.1513 31.1763L49.6868 31.1619C49.3746 31.1522 49.1385 31.1649 48.967 31.2007ZM65.3339 32.4469C65.2419 32.464 65.0877 32.4792 64.9912 32.4807C64.8893 32.4823 64.7603 32.5146 64.6834 32.5578C64.6107 32.5987 64.5216 32.6322 64.4855 32.6322C64.4495 32.6322 64.3287 32.6894 64.2172 32.7594C64.1057 32.8294 63.9565 32.9166 63.8858 32.9532C63.7248 33.0365 63.1782 33.5789 63.1045 33.7286C63.0744 33.7899 63.0117 33.8918 62.9652 33.9551C62.9188 34.0183 62.8808 34.0936 62.8806 34.1223C62.8805 34.151 62.854 34.2247 62.8217 34.2861C62.654 34.605 62.5847 35.5223 62.6927 35.9957C62.7673 36.3231 62.9566 36.7931 63.0661 36.9231C63.1186 36.9854 63.185 37.0827 63.2137 37.1393C63.2791 37.2683 63.6133 37.5818 63.9064 37.789C64.1765 37.9799 64.4145 38.0966 64.7493 38.2021L65.0009 38.2815L65.5483 38.28L66.0958 38.2786L66.3769 38.1959C66.5314 38.1505 66.7023 38.0843 66.7565 38.0487C66.8107 38.0132 66.8713 37.9841 66.8912 37.9841C66.9749 37.9841 67.5365 37.5701 67.7274 37.3675C67.8413 37.2467 67.9347 37.1351 67.935 37.1196C67.9353 37.104 68.001 36.9953 68.0812 36.8779C68.1613 36.7606 68.239 36.6144 68.254 36.5531C68.2689 36.4919 68.3037 36.4087 68.3313 36.3684C68.3589 36.3281 68.3819 36.2361 68.3823 36.164C68.3828 36.0919 68.4162 35.96 68.4566 35.8709L68.5302 35.7089V35.3831C68.5302 35.196 68.5076 34.9933 68.4772 34.9071C68.448 34.8245 68.4121 34.6763 68.3973 34.5778C68.3825 34.4793 68.3395 34.3436 68.3016 34.2762C68.2638 34.2088 68.2328 34.1366 68.2328 34.1157C68.2328 34.0948 68.1412 33.9387 68.0293 33.7687C67.8213 33.4528 67.3744 33.0031 67.1736 32.9076C67.1123 32.8784 67.0046 32.8124 66.9342 32.7609C66.8639 32.7094 66.7635 32.6586 66.7112 32.6481C66.6589 32.6377 66.5492 32.5979 66.4674 32.5597C66.3815 32.5195 66.1933 32.4816 66.0214 32.4697C65.8579 32.4584 65.6739 32.4417 65.6126 32.4325C65.5513 32.4234 65.4258 32.4299 65.3339 32.4469ZM18.9315 32.4713C18.6974 32.4913 18.0555 32.732 18.001 32.8202C17.9883 32.8407 17.9048 32.8919 17.8154 32.9339C17.5251 33.0704 16.8694 33.8352 16.7995 34.1188C16.792 34.1495 16.7579 34.2164 16.7239 34.2675C16.6898 34.3186 16.6234 34.5131 16.5762 34.6999L16.4905 35.0393L16.5075 35.4618C16.5317 36.0612 16.6824 36.5142 17.0363 37.0514C17.3649 37.5502 17.929 37.9557 18.638 38.2025L18.8648 38.2815H19.4665H20.0681L20.2138 38.2071C20.2939 38.1662 20.4061 38.1324 20.4632 38.132C20.5202 38.1315 20.6087 38.0984 20.6598 38.0585C20.7109 38.0185 20.7755 37.9854 20.8035 37.9849C20.8718 37.9838 21.3861 37.5983 21.5647 37.4144C21.8258 37.1456 22.0978 36.7053 22.2573 36.2931C22.3772 35.9833 22.4135 35.2899 22.336 34.7878C22.2295 34.0981 21.7537 33.3766 21.1312 32.961C20.8126 32.7483 20.6004 32.6322 20.5303 32.6322C20.4977 32.6322 20.4006 32.5958 20.3145 32.5513L20.158 32.4704L19.6377 32.4629C19.3515 32.4587 19.0337 32.4625 18.9315 32.4713ZM35.2047 32.8523C34.8846 32.939 34.7225 33.019 34.4357 33.2319C33.886 33.64 33.563 34.3461 33.6049 35.048C33.6595 35.9595 34.2286 36.7032 35.0867 36.9843L35.3591 37.0735H35.7493H36.1396L36.4013 36.9912C37.0499 36.7871 37.5818 36.2567 37.7972 35.5991L37.8864 35.3267V34.9365V34.5462L37.8041 34.2845C37.6033 33.6465 37.0977 33.1303 36.4511 32.9035L36.1768 32.8073L35.8237 32.7938L35.4706 32.7803L35.2047 32.8523ZM40.0754 41.8999C39.7129 42.0187 39.4216 42.3177 39.2969 42.6992L39.2331 42.8941L39.2522 43.1313C39.2862 43.5554 39.5411 43.9256 39.9306 44.1166L40.1164 44.2077L40.4323 44.2086L40.7482 44.2095L40.9331 44.1185C41.1693 44.0023 41.3941 43.7771 41.5101 43.5405L41.6012 43.3547L41.6021 43.0388L41.6031 42.7229L41.5121 42.538C41.3949 42.2999 41.1688 42.0753 40.9341 41.9639C40.7076 41.8564 40.3007 41.8261 40.0754 41.8999ZM43.792 41.8999C43.4296 42.0187 43.1383 42.3177 43.0135 42.6992L42.9498 42.8941L42.9688 43.1313C43.0029 43.5554 43.2578 43.9256 43.6472 44.1166L43.833 44.2077L44.149 44.2086L44.4649 44.2095L44.6497 44.1185C44.8859 44.0023 45.1108 43.7771 45.2268 43.5405L45.3179 43.3547L45.3188 43.0388L45.3197 42.7229L45.2287 42.538C45.1116 42.2999 44.8854 42.0753 44.6507 41.9639C44.4243 41.8564 44.0174 41.8261 43.792 41.8999ZM73.0279 65.6408C72.7727 65.658 72.5006 65.6974 72.4232 65.7283C72.3458 65.7593 72.2012 65.7846 72.1019 65.7846C72.0026 65.7846 71.8626 65.8092 71.7907 65.8393C71.7188 65.8693 71.5704 65.9097 71.4609 65.9291C71.248 65.9667 70.9882 66.0494 70.7313 66.1614C70.6439 66.1995 70.5398 66.2306 70.5001 66.2306C70.4604 66.2306 70.3683 66.2641 70.2956 66.305C70.2228 66.3459 70.1439 66.3793 70.1203 66.3793C70.0386 66.3793 69.0644 66.8479 68.9576 66.9386C68.9167 66.9734 68.7996 67.0473 68.6974 67.103C68.5952 67.1588 68.4852 67.2278 68.4529 67.2564C68.4206 67.285 68.3803 67.3085 68.3634 67.3085C68.3464 67.3085 68.2474 67.3726 68.1433 67.451C68.0392 67.5294 67.8872 67.6369 67.8054 67.6898C67.7237 67.7426 67.5903 67.8483 67.5092 67.9245C67.428 68.0007 67.2775 68.129 67.1747 68.2096C66.8434 68.4694 66.3593 68.9551 66.0716 69.3165C65.9174 69.5101 65.7646 69.6907 65.7319 69.7178C65.6992 69.745 65.6174 69.8537 65.5502 69.9594C65.483 70.0652 65.397 70.1852 65.3591 70.226C65.3212 70.2669 65.2576 70.3637 65.2176 70.4412C65.1777 70.5186 65.1109 70.6213 65.0691 70.6693C64.9623 70.7922 64.6092 71.4696 64.2832 72.1773C64.2408 72.2693 64.1755 72.4053 64.1382 72.4797C64.1008 72.554 64.0702 72.651 64.0702 72.6952C64.0702 72.7395 64.0469 72.8208 64.0184 72.876C63.9416 73.0248 63.7729 73.5425 63.7729 73.6294C63.7729 73.6708 63.7497 73.7499 63.7215 73.8052C63.6932 73.8604 63.6583 73.9975 63.644 74.1099C63.6297 74.2224 63.5944 74.3964 63.5656 74.4967C63.5368 74.597 63.5041 74.7977 63.493 74.9427C63.4818 75.0877 63.4468 75.4203 63.4152 75.6819C63.3252 76.4268 63.4122 78.204 63.5666 78.7743C63.5943 78.8765 63.6283 79.0605 63.6421 79.1832C63.656 79.3058 63.6911 79.4432 63.7201 79.4885C63.7491 79.5337 63.7729 79.614 63.7729 79.6668C63.7729 79.7196 63.8063 79.832 63.8472 79.9167C63.8881 80.0013 63.9215 80.1015 63.9215 80.1394C63.9215 80.1772 63.955 80.2738 63.9959 80.3539C64.0367 80.434 64.0702 80.5356 64.0702 80.5796C64.0702 80.6237 64.1011 80.7205 64.139 80.7948C64.215 80.9444 64.3172 81.1633 64.5577 81.6919C64.6461 81.8861 64.7732 82.132 64.8403 82.2383C64.9073 82.3446 64.9622 82.4398 64.9622 82.4496C64.9622 82.4735 65.3248 83.013 65.4546 83.1823C65.5108 83.2557 65.5568 83.3279 65.5568 83.3429C65.5568 83.3653 65.8968 83.7831 65.9675 83.8475C65.9787 83.8578 66.0272 83.9247 66.0752 83.9962C66.1964 84.1766 66.9873 84.9558 67.2349 85.1388C67.3471 85.2217 67.5464 85.3831 67.6776 85.4977C67.809 85.6122 67.9332 85.706 67.9538 85.7063C67.9744 85.7065 68.0749 85.7732 68.1771 85.8545C68.2793 85.9359 68.3756 86.0026 68.3911 86.0028C68.4067 86.003 68.5572 86.092 68.7256 86.2005C68.8941 86.309 69.0821 86.423 69.1434 86.4538C69.2047 86.4846 69.2884 86.5281 69.3292 86.5504C69.5993 86.6976 70.0252 86.8952 70.0726 86.8952C70.1037 86.8952 70.2 86.9273 70.2867 86.9665C70.5334 87.0781 71.3319 87.3412 71.4241 87.3412C71.4698 87.3412 71.553 87.3649 71.6091 87.3939C71.6651 87.4229 71.8375 87.4642 71.9921 87.4857C72.1467 87.5072 72.3217 87.5435 72.3808 87.5663C72.4736 87.6022 72.7626 87.6318 73.643 87.6958C73.7466 87.7033 73.872 87.7239 73.9218 87.7414C73.9756 87.7604 74.2003 87.754 74.4768 87.7254C74.7323 87.6991 75.1504 87.6617 75.406 87.6425C75.6615 87.6232 75.9374 87.5835 76.0192 87.5543C76.101 87.525 76.2754 87.4902 76.4069 87.4768C76.5384 87.4634 76.6841 87.4274 76.7308 87.3968C76.7775 87.3662 76.8659 87.3412 76.9272 87.3412C76.9886 87.3412 77.0937 87.3175 77.1608 87.2886C77.2796 87.2374 77.6527 87.111 77.8775 87.0458C78.0461 86.9969 78.7403 86.6978 78.9915 86.5658C79.1136 86.5017 79.2253 86.4492 79.2396 86.4492C79.2541 86.4492 79.3632 86.3839 79.4823 86.304C79.6013 86.2241 79.8994 86.0289 80.1447 85.8703C80.5482 85.6092 80.6748 85.5122 81.0367 85.1868C81.098 85.1316 81.2318 85.0259 81.334 84.952C81.5258 84.8131 81.9689 84.3603 82.2209 84.0454C82.2998 83.9468 82.4567 83.7613 82.5697 83.6332C82.6826 83.5051 82.8072 83.3402 82.8465 83.2668C82.8859 83.1934 82.9589 83.0893 83.0087 83.0355C83.0586 82.9818 83.0994 82.9224 83.0994 82.9035C83.0994 82.8847 83.1663 82.7808 83.2481 82.6725C83.3299 82.5642 83.3968 82.4555 83.3968 82.431C83.3968 82.4065 83.4357 82.3347 83.4834 82.2715C83.5712 82.1549 83.7091 81.8928 83.896 81.4875C83.9526 81.3648 84.0298 81.1976 84.0676 81.1158C84.1055 81.034 84.1726 80.8668 84.2167 80.7441C84.2608 80.6215 84.3285 80.4496 84.3672 80.3622C84.4058 80.2748 84.4374 80.1694 84.4374 80.1281C84.4374 80.0867 84.4606 80.0077 84.4889 79.9525C84.5173 79.8973 84.5606 79.7544 84.5852 79.6349C84.6098 79.5155 84.6511 79.3649 84.6768 79.3004C84.7026 79.2359 84.727 79.1018 84.7311 79.0023C84.7352 78.9029 84.7616 78.7858 84.7897 78.7422C84.8194 78.696 84.858 78.4564 84.882 78.1693C84.9047 77.8979 84.9409 77.6303 84.9625 77.5747C84.9863 77.5136 85.0011 77.1388 84.9999 76.6282L84.998 75.7829L84.9455 75.6247C84.9166 75.5377 84.8814 75.2754 84.8672 75.0419C84.8522 74.7951 84.8191 74.574 84.7881 74.5141C84.7588 74.4574 84.7348 74.3438 84.7348 74.2618C84.7348 74.1798 84.7013 74.0278 84.6604 73.9241C84.6195 73.8204 84.586 73.6818 84.5859 73.6161C84.5859 73.5504 84.5524 73.4419 84.5116 73.375C84.4708 73.3081 84.4374 73.21 84.4374 73.1571C84.4374 73.1041 84.4056 73 84.3666 72.9257C84.3277 72.8513 84.2585 72.6818 84.2129 72.5489C84.0852 72.1767 83.6183 71.1967 83.4666 70.9822C83.4282 70.928 83.3968 70.8598 83.3968 70.8307C83.3968 70.8017 83.3578 70.7413 83.3102 70.6966C83.2625 70.6518 83.1881 70.5443 83.1448 70.4575C83.1015 70.3709 83.036 70.2666 82.9992 70.2258C82.9623 70.185 82.8835 70.0764 82.8241 69.9845C82.7646 69.8925 82.5965 69.6834 82.4505 69.5199C82.3045 69.3563 82.1298 69.1511 82.0623 69.0637C81.9089 68.8652 81.6604 68.6155 81.4346 68.4332C81.1946 68.2394 81.0674 68.1319 80.8711 67.9571C80.6762 67.7834 80.0373 67.3085 79.9986 67.3085C79.9842 67.3085 79.9177 67.2667 79.8507 67.2155C79.7837 67.1644 79.7165 67.1226 79.7015 67.1226C79.6864 67.1226 79.5877 67.0657 79.482 66.9961C79.302 66.8776 78.7596 66.5945 78.5094 66.4884C78.1556 66.3385 77.5375 66.1189 77.1714 66.0131C77.0283 65.9717 76.7941 65.9032 76.651 65.8608C76.508 65.8183 76.3193 65.7838 76.2317 65.7841C76.1442 65.7844 76.0104 65.7586 75.9344 65.7268C75.6709 65.6164 74.0851 65.5695 73.0279 65.6408ZM5.31001 66.4156C5.21802 66.4302 5.09987 66.4598 5.04743 66.4815C4.99499 66.5031 4.85283 66.5329 4.73151 66.5476C4.6102 66.5623 4.49097 66.5902 4.46655 66.6097C4.44217 66.6292 4.34182 66.6678 4.24356 66.6956C4.01807 66.7594 3.83101 66.8311 3.71185 66.8993C3.66075 66.9285 3.50825 67.0116 3.37297 67.084C2.83175 67.3735 2.34992 67.7424 1.90928 68.2047C1.52591 68.607 1.2857 68.8923 1.19323 69.0553C1.15264 69.1268 1.0488 69.309 0.9625 69.4602C0.777337 69.7843 0.590203 70.1804 0.589051 70.2506C0.588605 70.278 0.555527 70.3422 0.515536 70.3933C0.475545 70.4444 0.442467 70.5402 0.442021 70.6061C0.441575 70.672 0.407828 70.7807 0.367019 70.8477C0.320226 70.9244 0.29276 71.0351 0.292686 71.1472C0.292574 71.2538 0.266484 71.3648 0.227496 71.4243L0.162455 71.5235L0.163718 72.5473L0.164982 73.571L0.22876 73.7337C0.263845 73.8231 0.293281 73.9485 0.294173 74.0124C0.295065 74.0763 0.321304 74.1954 0.35245 74.2772C0.383632 74.3589 0.424107 74.4855 0.442393 74.5583C0.460679 74.6313 0.501264 74.74 0.532521 74.7999C0.563815 74.8599 0.589497 74.9318 0.589646 74.9597C0.589757 74.9876 0.625438 75.0796 0.668885 75.1641C0.712333 75.2487 0.759906 75.3429 0.774586 75.3736C0.789267 75.4043 0.820598 75.4669 0.844236 75.513C0.867874 75.559 0.905486 75.6323 0.927861 75.676C1.03408 75.8835 1.12328 76.0305 1.18409 76.0983C1.22077 76.1392 1.30376 76.2598 1.36854 76.3662L1.48632 76.5598L1.2611 76.8971C1.13722 77.0826 1.03587 77.2418 1.03587 77.251C1.03587 77.2602 0.98008 77.3558 0.911917 77.4635C0.797667 77.6439 0.702335 77.8342 0.506245 78.2726C0.465101 78.3646 0.400208 78.5017 0.362001 78.5773C0.323794 78.6529 0.292537 78.758 0.292537 78.8109C0.292537 78.8637 0.266633 78.9466 0.23493 78.9949C0.203264 79.0433 0.167473 79.2057 0.155468 79.356C0.143426 79.5062 0.108786 79.6782 0.0784956 79.7382L0.0234525 79.8472L0.0117075 80.4815L0 81.1158L0.0541516 81.3016C0.0839219 81.4038 0.1254 81.611 0.146325 81.762C0.16725 81.913 0.208727 82.0836 0.238461 82.1411C0.268194 82.1986 0.292612 82.2925 0.292686 82.3497C0.29276 82.407 0.32621 82.5085 0.367019 82.5755C0.407828 82.6424 0.441203 82.7242 0.441203 82.7573C0.441203 82.8146 0.476883 82.9004 0.693526 83.3644C0.746043 83.4768 0.886345 83.7175 1.00535 83.8993C1.12432 84.0811 1.2217 84.2415 1.2217 84.2557C1.2217 84.294 1.71441 84.8288 2.03739 85.1411C2.19178 85.2904 2.42883 85.4867 2.56411 85.5774C2.6994 85.6681 2.83108 85.7675 2.85669 85.7984C2.88233 85.8293 2.92794 85.8545 2.95804 85.8545C2.98815 85.8545 3.0572 85.8852 3.11147 85.9226C3.16573 85.96 3.36063 86.0634 3.5446 86.1522C3.72858 86.2411 3.9399 86.3443 4.01424 86.3815C4.08857 86.4187 4.18539 86.4492 4.22943 86.4492C4.27347 86.4492 4.37505 86.4826 4.45518 86.5235C4.53531 86.5644 4.66588 86.5979 4.74534 86.5979C4.82477 86.5979 4.94667 86.6271 5.01625 86.6629L5.14276 86.7279L10.3358 86.7383L15.5288 86.7488L15.5493 86.664C15.5605 86.6174 15.5651 82.0385 15.5595 76.4886L15.5494 66.3979L10.5133 66.3935C7.74348 66.3911 5.402 66.401 5.31001 66.4156ZM19.6734 66.4258C19.6637 66.4513 19.6601 71.0298 19.6653 76.6001L19.6748 86.7279L21.8263 86.7375L23.9778 86.7471L24.0285 86.7051L24.0791 86.6631V76.5658V66.4685L24.0345 66.4239L23.9899 66.3793H21.8405H19.6911L19.6734 66.4258ZM28.1663 66.4059C28.1545 66.7261 28.147 86.6677 28.1587 86.7001L28.1753 86.7465H30.3196H32.4638L32.5084 86.7019L32.553 86.6573V84.142V81.6267L32.6037 81.5846L32.6544 81.5425L34.4525 81.5521L36.2505 81.5618L36.3206 81.7105C36.3591 81.7922 36.3978 81.926 36.4067 82.0078C36.4265 82.1923 36.5503 82.7444 36.6448 83.0697C36.6838 83.204 36.7157 83.3549 36.7157 83.4049C36.7157 83.455 36.7472 83.6127 36.7856 83.7554C36.8241 83.898 36.8653 84.1044 36.8772 84.2139C36.8892 84.3233 36.9175 84.4353 36.9401 84.4625C36.9628 84.4899 36.998 84.6344 37.0184 84.7838C37.0388 84.9332 37.0793 85.0925 37.1086 85.1378C37.1378 85.183 37.1617 85.2673 37.1617 85.3251C37.1617 85.3828 37.1891 85.5298 37.2227 85.6516C37.2562 85.7734 37.2965 85.9567 37.3122 86.0589C37.3399 86.2395 37.4345 86.5592 37.4936 86.6722L37.5229 86.7279L39.5815 86.7382C40.7138 86.7439 41.6794 86.739 41.7273 86.7273L41.8144 86.7062L41.7883 86.4755C41.7739 86.3486 41.7386 86.1878 41.7099 86.118C41.6811 86.0484 41.6402 85.8727 41.6188 85.7278C41.5974 85.5829 41.5572 85.389 41.5294 85.297C41.5016 85.205 41.4686 85.0462 41.456 84.944C41.4435 84.8417 41.4105 84.6996 41.3827 84.628C41.355 84.5565 41.3146 84.3976 41.2929 84.275C41.2381 83.9638 41.1161 83.4383 41.073 83.3272C41.0532 83.2761 41.0246 83.1339 41.0096 83.0113C40.9946 82.8886 40.9638 82.7549 40.9412 82.714C40.9186 82.6731 40.8884 82.5476 40.874 82.4352C40.8597 82.3228 40.8229 82.1388 40.7924 82.0264C40.7062 81.7094 40.6104 81.2902 40.5588 81.0043C40.533 80.8612 40.4859 80.6539 40.4542 80.5435C40.3796 80.2842 40.4076 80.1864 40.5951 80.0508C40.7843 79.914 41.2826 79.4636 41.4935 79.2389C41.5798 79.1469 41.729 78.988 41.825 78.8858C41.921 78.7836 42.0425 78.6331 42.095 78.5513C42.1475 78.4696 42.2614 78.3107 42.3481 78.1982C42.4347 78.0858 42.5165 77.9577 42.5297 77.9135C42.5429 77.8694 42.5781 77.813 42.608 77.7882C42.6378 77.7634 42.6627 77.7159 42.6631 77.6827C42.6636 77.6494 42.6966 77.5803 42.7366 77.5292C42.7766 77.4781 42.8101 77.4112 42.811 77.3806C42.8119 77.3499 42.8453 77.283 42.8853 77.2319C42.9253 77.1808 42.9589 77.1055 42.9601 77.0647C42.9612 77.0238 42.9945 76.9234 43.034 76.8417C43.0735 76.7599 43.1069 76.6679 43.1082 76.6373C43.1096 76.6066 43.1352 76.549 43.1652 76.5094C43.1952 76.4697 43.2198 76.4075 43.2198 76.3711C43.2198 76.3348 43.2616 76.1769 43.3127 76.0204C43.3638 75.8639 43.4056 75.6702 43.4056 75.59C43.4056 75.5098 43.4346 75.3907 43.4699 75.3253L43.5342 75.2063L43.535 74.017L43.5357 72.8277L43.4707 72.669C43.4349 72.5817 43.4056 72.4345 43.4056 72.3419C43.4056 72.2493 43.3776 72.1201 43.3433 72.0546C43.309 71.9892 43.2686 71.8688 43.2536 71.787C43.2217 71.6133 43.1315 71.3496 43.0058 71.0623C42.9566 70.9499 42.903 70.8244 42.8868 70.7835C42.8106 70.5919 42.5963 70.1699 42.4866 69.9955C42.4197 69.8892 42.365 69.7861 42.365 69.7663C42.365 69.7466 42.3523 69.7249 42.3368 69.7181C42.2944 69.6995 42.0676 69.4024 42.0676 69.3656C42.0676 69.2599 40.8741 68.0551 40.581 67.8649C40.489 67.8052 40.3923 67.7381 40.366 67.7156C40.0896 67.4794 38.8604 66.8253 38.6928 66.8253C38.6489 66.8253 38.5582 66.7919 38.4913 66.7511C38.4243 66.7103 38.323 66.6769 38.2661 66.6768C38.2091 66.6767 38.1244 66.6516 38.0777 66.621C38.031 66.5904 37.8852 66.5544 37.7538 66.5411C37.6223 66.5277 37.4479 66.49 37.3661 66.4574L37.2174 66.398L32.6924 66.3874C30.2036 66.3816 28.1669 66.3899 28.1663 66.4059ZM48.7961 66.4512C48.7749 66.4907 48.7576 66.5664 48.7576 66.6194C48.7576 66.6723 48.7242 66.8108 48.6833 66.9271C48.6424 67.0435 48.6089 67.2001 48.6089 67.2752C48.6089 67.3504 48.5759 67.4847 48.5354 67.5739C48.495 67.663 48.4615 67.8075 48.4611 67.895C48.4606 67.9826 48.4377 68.1083 48.4101 68.1744C48.3824 68.2405 48.348 68.378 48.3336 68.4798C48.3192 68.5817 48.275 68.7613 48.2352 68.8789C48.1955 68.9965 48.1629 69.1521 48.1629 69.2245C48.1629 69.297 48.1382 69.4042 48.1079 69.4628C48.0776 69.5213 48.0418 69.6668 48.0283 69.7861C48.0148 69.9054 47.9727 70.0831 47.9347 70.181C47.8967 70.2788 47.8656 70.4309 47.8656 70.5189C47.8656 70.6069 47.8322 70.7762 47.7913 70.895C47.7504 71.0138 47.7169 71.1649 47.7169 71.2307C47.7169 71.2965 47.6923 71.42 47.6622 71.5053C47.6322 71.5905 47.5966 71.7473 47.5831 71.8537C47.5697 71.9601 47.535 72.1054 47.506 72.1766C47.4771 72.2477 47.4393 72.3983 47.4221 72.5111C47.3921 72.7081 47.3119 73.0716 47.2293 73.3852C47.2078 73.4669 47.1733 73.6342 47.1526 73.7568C47.132 73.8795 47.0967 74.0133 47.0743 74.0542C47.0519 74.0951 47.0134 74.2456 46.9889 74.3887C46.9447 74.6461 46.8795 74.9425 46.7638 75.4108C46.731 75.5436 46.6968 75.7025 46.688 75.7638C46.6638 75.9309 46.5318 76.5095 46.4505 76.8045C46.411 76.9476 46.3788 77.1111 46.3788 77.1678C46.3789 77.2245 46.3455 77.3661 46.3046 77.4824C46.2637 77.5987 46.2303 77.7579 46.2303 77.836C46.2303 77.9142 46.1968 78.0438 46.156 78.1239C46.1137 78.2067 46.0816 78.343 46.0816 78.4396C46.0816 78.5332 46.0577 78.6467 46.0286 78.692C45.9993 78.7373 45.9582 78.9003 45.9371 79.0542C45.916 79.2082 45.873 79.3958 45.8416 79.4712C45.81 79.5465 45.7843 79.6616 45.7843 79.7269C45.7843 79.7922 45.7596 79.9307 45.7294 80.0347C45.6793 80.2076 45.6518 80.3361 45.5224 81.0043C45.4986 81.127 45.4475 81.3322 45.4087 81.4604C45.37 81.5886 45.3377 81.7391 45.3371 81.7949C45.3364 81.8507 45.3035 81.9883 45.264 82.1007C45.2244 82.2132 45.1915 82.3687 45.1909 82.4464C45.1902 82.524 45.1648 82.6355 45.1346 82.694C45.1043 82.7526 45.0686 82.8981 45.0553 83.0174C45.042 83.1367 45.0102 83.2861 44.9846 83.3494C44.959 83.4127 44.9259 83.5549 44.911 83.6653C44.8962 83.7758 44.8602 83.924 44.831 83.9948C44.8019 84.0656 44.7676 84.2244 44.755 84.3479C44.7423 84.4713 44.7103 84.6058 44.6838 84.6468C44.6573 84.6877 44.6197 84.8382 44.6002 84.9813C44.5507 85.3458 44.4496 85.8331 44.369 86.0961C44.3314 86.2188 44.2957 86.4111 44.2898 86.5235L44.2791 86.7279L46.402 86.7375L48.525 86.7471L48.5619 86.7004C48.6167 86.6308 48.7576 86.1545 48.7576 86.0388C48.7576 85.9835 48.7822 85.8685 48.8123 85.7832C48.8424 85.698 48.8785 85.5411 48.8926 85.4347C48.9067 85.3283 48.9486 85.1744 48.9858 85.0926C49.0229 85.0108 49.0537 84.8723 49.0541 84.7847C49.0546 84.6971 49.0792 84.5884 49.1088 84.5431C49.1384 84.4978 49.1741 84.3437 49.1882 84.2006C49.2023 84.0575 49.2372 83.8941 49.2659 83.8374C49.2945 83.7807 49.3266 83.6469 49.3371 83.5401C49.3477 83.4332 49.382 83.2659 49.4134 83.1681C49.4448 83.0704 49.4838 82.9032 49.5001 82.7965C49.5164 82.6898 49.5555 82.4938 49.5871 82.3609C49.6188 82.228 49.6635 82.0236 49.6867 81.9067C49.7098 81.7898 49.7569 81.6596 49.7914 81.6173L49.854 81.5405L53.1324 81.5424C54.9355 81.5435 56.4379 81.5547 56.471 81.5675C56.5476 81.5969 56.6001 81.731 56.6361 81.9892C56.6518 82.1016 56.6915 82.3023 56.7244 82.4352C56.8739 83.0384 56.9051 83.1792 56.9534 83.4699C56.9818 83.6404 57.0205 83.7993 57.0394 83.823C57.0583 83.8467 57.0858 83.9665 57.1007 84.0891C57.1155 84.2118 57.1454 84.3454 57.1671 84.3861C57.1888 84.4268 57.227 84.5689 57.2519 84.702C57.3415 85.1801 57.3894 85.3935 57.4563 85.613C57.4937 85.7356 57.5312 85.9196 57.5395 86.0218C57.5539 86.1967 57.6472 86.5486 57.7121 86.6722L57.7414 86.7279L59.9066 86.7375L62.0717 86.7471L62.049 86.626C62.0366 86.5594 62.0104 86.4046 61.991 86.2819C61.9715 86.1593 61.9303 85.992 61.8995 85.9103C61.8687 85.8285 61.8427 85.7171 61.8418 85.6627C61.8409 85.6083 61.807 85.4578 61.7663 85.3282C61.7257 85.1987 61.6915 85.0174 61.6904 84.9254C61.6892 84.8334 61.6624 84.6912 61.6308 84.6095C61.5993 84.5277 61.5583 84.3604 61.5398 84.2378C61.5214 84.1151 61.4828 83.9563 61.4542 83.8847C61.4256 83.8132 61.3847 83.6543 61.3632 83.5316C61.3013 83.1767 61.2428 82.9166 61.1711 82.6768C61.1343 82.5541 61.0952 82.3669 61.084 82.2607C61.0728 82.1545 61.0377 82.0173 61.0059 81.9559C60.9742 81.8945 60.9487 81.8058 60.9492 81.7588C60.9502 81.6712 60.8485 81.213 60.722 80.7356C60.6829 80.5879 60.6509 80.4081 60.6509 80.3362C60.6509 80.2644 60.6186 80.1093 60.5792 79.9917C60.5397 79.874 60.496 79.6858 60.4819 79.5734C60.4678 79.461 60.4353 79.3272 60.4097 79.2761C60.384 79.225 60.3512 79.0858 60.3367 78.9668C60.3222 78.8478 60.2888 78.6973 60.2625 78.6323C60.2362 78.5673 60.2038 78.4166 60.1905 78.2972C60.1772 78.1779 60.1439 78.0358 60.1164 77.9813C60.089 77.9269 60.0555 77.7847 60.0421 77.6654C60.0286 77.5461 59.9929 77.4006 59.9626 77.3421C59.9323 77.2835 59.9075 77.1977 59.9075 77.1513C59.9075 77.105 59.8753 76.9327 59.836 76.7685C59.7207 76.2878 59.6399 75.9295 59.5884 75.6709C59.4903 75.178 59.4196 74.8672 59.3677 74.7018C59.3384 74.6082 59.2988 74.4218 59.2798 74.2874C59.2608 74.1531 59.2289 74.0122 59.209 73.9743C59.189 73.9365 59.161 73.8029 59.1468 73.6774C59.1324 73.552 59.0975 73.4045 59.0691 73.3498C59.0407 73.2951 59.0073 73.1636 58.9949 73.0576C58.9824 72.9516 58.9485 72.8018 58.9196 72.7247C58.8906 72.6477 58.8669 72.53 58.8669 72.4633C58.8669 72.3966 58.8334 72.2468 58.7926 72.1304C58.7517 72.0141 58.7185 71.8725 58.7187 71.8158C58.719 71.7591 58.6869 71.604 58.6474 71.4711C58.6078 71.3382 58.5593 71.1459 58.5396 71.0437C58.5199 70.9415 58.4594 70.6572 58.4051 70.4119C58.3509 70.1666 58.2891 69.8655 58.2679 69.7429C58.2468 69.6202 58.2077 69.4613 58.1813 69.3898C58.1548 69.3182 58.1209 69.1594 58.1059 69.0367C58.091 68.9141 58.0575 68.772 58.0315 68.7208C58.0056 68.6697 57.9725 68.5305 57.9581 68.4115C57.9436 68.2925 57.908 68.1384 57.879 68.0689C57.85 67.9995 57.8262 67.8921 57.8262 67.8301C57.8262 67.7682 57.7937 67.6214 57.7539 67.5037C57.7142 67.3861 57.6745 67.2063 57.6657 67.104C57.6518 66.9416 57.6088 66.7869 57.4875 66.4629L57.4562 66.3793H53.1454H48.8345L48.7961 66.4512ZM74.0645 67.6588C74.0524 67.671 73.76 67.6905 73.4149 67.7022C73.0006 67.7163 72.7366 67.7422 72.6379 67.7786C72.5557 67.8089 72.388 67.8482 72.2654 67.866C71.6179 67.9594 70.2898 68.4804 69.8565 68.811C69.7875 68.8636 69.7159 68.9068 69.6974 68.907C69.6667 68.9074 69.483 69.0311 68.8192 69.4982C68.5181 69.7102 67.553 70.6772 67.339 70.9815C66.6872 71.9084 66.6174 72.0138 66.4752 72.2888C66.4275 72.3808 66.3687 72.4936 66.3444 72.5396C66.3201 72.5857 66.2861 72.6525 66.2688 72.6883C66.2516 72.7241 66.2201 72.7868 66.1989 72.8277C66.1776 72.8686 66.124 73.0024 66.0798 73.125C66.0354 73.2477 65.9665 73.4149 65.9266 73.4967C65.8867 73.5784 65.854 73.6836 65.8541 73.7305C65.8541 73.7773 65.8231 73.8776 65.7851 73.9535C65.7471 74.0293 65.7055 74.1722 65.6925 74.2709C65.6795 74.3697 65.6451 74.5035 65.616 74.5683C65.5868 74.633 65.5516 74.7864 65.5378 74.909C65.524 75.0317 65.4863 75.2324 65.454 75.355L65.3953 75.578L65.3947 76.693L65.3941 77.808L65.4423 77.9195C65.4688 77.9808 65.5124 78.1731 65.5391 78.3469C65.5658 78.5207 65.6135 78.7297 65.645 78.8115C65.6765 78.8932 65.703 79.0068 65.7039 79.0639C65.7048 79.1209 65.739 79.2331 65.7798 79.3132C65.8207 79.3934 65.8542 79.5001 65.8542 79.5503C65.8542 79.6006 65.8777 79.6891 65.9065 79.7469C65.9354 79.8048 65.9964 79.9441 66.0421 80.0566C66.0879 80.169 66.1647 80.3463 66.2128 80.4505C66.2608 80.5547 66.3006 80.6551 66.301 80.6735C66.3014 80.6919 66.3345 80.7488 66.3745 80.7999C66.4145 80.851 66.4476 80.9134 66.448 80.9386C66.4485 80.9637 66.5074 81.0758 66.5789 81.1877C66.6505 81.2995 66.709 81.4059 66.709 81.4242C66.709 81.4424 66.7418 81.4871 66.7819 81.5233C66.822 81.5597 66.8892 81.6552 66.9311 81.7356C67.0111 81.8891 67.0484 81.9403 67.1786 82.0746C67.2222 82.1196 67.3042 82.2317 67.3607 82.3237C67.4997 82.55 68.5702 83.6298 68.8262 83.8021C68.9394 83.8782 69.0403 83.9493 69.0505 83.96C69.1055 84.0178 69.3812 84.2192 69.4054 84.2192C69.421 84.2192 69.4885 84.261 69.5556 84.3121C69.6226 84.3632 69.6876 84.405 69.7002 84.405C69.7128 84.405 69.8146 84.4636 69.9264 84.5351C70.0383 84.6067 70.1536 84.6652 70.1826 84.6652C70.2117 84.6652 70.2437 84.6785 70.2537 84.6947C70.3006 84.7706 71.0451 85.0901 71.5406 85.247C71.6326 85.2762 71.7581 85.318 71.8194 85.3399C71.8807 85.3618 72.0563 85.3998 72.2096 85.4243C72.363 85.4487 72.5255 85.489 72.5709 85.5137C72.6163 85.5384 72.8672 85.569 73.1284 85.5816C73.3896 85.5942 73.6354 85.621 73.6745 85.6412C73.7926 85.702 74.4369 85.71 74.6441 85.6532C74.7463 85.6251 75.0288 85.5912 75.272 85.5779C75.5402 85.5631 75.7551 85.5323 75.8184 85.4996C75.8757 85.47 75.97 85.4457 76.0278 85.4457C76.0857 85.4457 76.2246 85.4198 76.3363 85.3881C76.4481 85.3565 76.6089 85.3155 76.6935 85.2971C76.7782 85.2787 76.9037 85.2294 76.9723 85.1875C77.0409 85.1457 77.1342 85.1114 77.1797 85.1113C77.2528 85.1112 77.475 85.0259 77.6917 84.9147C77.7326 84.8937 77.7953 84.8625 77.8311 84.8452C77.8669 84.828 77.9337 84.794 77.9797 84.7697C78.0258 84.7454 78.1386 84.6867 78.2306 84.6393C78.3226 84.592 78.4982 84.488 78.6209 84.4083C78.7435 84.3285 78.9075 84.2281 78.9853 84.185C79.0631 84.142 79.1635 84.0724 79.2083 84.0305C79.2532 83.9886 79.38 83.8944 79.49 83.8212C79.9593 83.5094 81.1814 82.1918 81.4405 81.7187C81.4653 81.6733 81.577 81.4936 81.6886 81.3194C81.8002 81.1452 81.9308 80.9195 81.9789 80.8177C82.0652 80.6349 82.1001 80.5647 82.1677 80.4375C82.1867 80.4017 82.2385 80.2721 82.2827 80.1495C82.327 80.0268 82.3936 79.8596 82.4308 79.7778C82.468 79.696 82.5083 79.5706 82.5204 79.4991C82.5324 79.4275 82.5673 79.3211 82.5979 79.2625C82.6284 79.204 82.6535 79.0869 82.6536 79.0024C82.6536 78.9144 82.6854 78.7966 82.7279 78.727L82.8021 78.6053V78.3627C82.8021 78.2018 82.824 78.0802 82.8671 78.0013L82.9322 77.8823V76.6558V75.4293L82.8854 75.3476C82.8597 75.3026 82.8281 75.1354 82.8152 74.9759C82.8023 74.8165 82.7657 74.6358 82.734 74.5745C82.7022 74.5132 82.6644 74.3794 82.65 74.2772C82.6357 74.175 82.5953 74.0077 82.5604 73.9055C82.5255 73.8033 82.4804 73.6695 82.4602 73.6082C82.3615 73.3088 82.2287 72.9607 82.166 72.837C82.1479 72.8012 82.1164 72.7385 82.0959 72.6976C82.0755 72.6567 82.039 72.5857 82.0148 72.5396C81.9906 72.4936 81.9462 72.4058 81.9162 72.3445C81.8861 72.2832 81.8055 72.1555 81.7372 72.0608C81.6687 71.966 81.6128 71.876 81.6128 71.8606C81.6128 71.8163 81.2853 71.3309 81.1538 71.1803C81.0883 71.1051 81.01 70.9937 80.9799 70.9325C80.9063 70.783 79.8532 69.7259 79.6429 69.5905C79.551 69.5313 79.4571 69.4661 79.4344 69.4456C79.195 69.2295 79.1182 69.1698 78.9739 69.0881C78.882 69.036 78.7398 68.9554 78.658 68.9089C78.5763 68.8624 78.4878 68.8068 78.4613 68.7853C78.4166 68.7489 78.3326 68.7032 77.8909 68.4754C77.6902 68.3719 77.1885 68.1642 77.1342 68.1621C77.1138 68.1614 77.0301 68.1285 76.9484 68.089C76.8666 68.0495 76.7731 68.0166 76.7405 68.0159C76.7079 68.0152 76.5892 67.983 76.4767 67.9443C76.3642 67.9055 76.172 67.864 76.0496 67.852C75.9272 67.84 75.7699 67.8066 75.7001 67.778C75.6229 67.7462 75.355 67.7163 75.0157 67.7015C74.7091 67.6882 74.3746 67.6682 74.2724 67.657C74.1702 67.6459 74.0766 67.6467 74.0645 67.6588ZM5.79344 70.9369C5.64031 70.9881 5.48978 71.0519 5.45894 71.0789C5.42812 71.1058 5.36866 71.1382 5.32674 71.151C5.1761 71.1967 4.86241 71.5579 4.71044 71.8606L4.56081 72.1587L4.57304 72.679L4.58526 73.1993L4.72423 73.4508C4.95708 73.872 5.32696 74.2105 5.64826 74.2965C5.73817 74.3205 5.82937 74.3546 5.85089 74.3722C5.87241 74.3898 7.04695 74.4073 8.46098 74.411L11.0319 74.4178L11.0885 74.3708L11.1451 74.3238V72.6262V70.9285L11.1005 70.8839L11.0559 70.8393L8.56393 70.8416L6.07192 70.8439L5.79344 70.9369ZM32.6145 70.9073L32.553 70.9752V73.9522V76.9293L32.6124 76.9886L32.6718 77.048L34.5915 77.0349L36.5113 77.0218L36.79 76.9662C37.3221 76.8601 38.0065 76.4666 38.4022 76.0392C38.5376 75.893 38.6483 75.7604 38.6483 75.7445C38.6483 75.7286 38.707 75.6283 38.7788 75.5217C38.8505 75.4151 38.9198 75.2838 38.9327 75.2299C38.9455 75.1761 38.9818 75.0818 39.0132 75.0205C39.0873 74.8756 39.1804 74.3062 39.1803 73.9984C39.1802 73.6575 39.1008 73.1541 39.0168 72.9623C38.9777 72.8728 38.9453 72.7809 38.9448 72.7579C38.9444 72.735 38.9113 72.6744 38.8713 72.6233C38.8313 72.5722 38.7983 72.5034 38.7978 72.4706C38.7974 72.4377 38.734 72.3373 38.657 72.2476C38.5799 72.1578 38.4936 72.0385 38.465 71.9825C38.3659 71.788 37.8335 71.3618 37.4961 71.207C37.4246 71.1742 37.2908 71.1115 37.1988 71.0676C37.1068 71.0237 36.9892 70.9878 36.9374 70.9878C36.8856 70.9879 36.748 70.9545 36.6317 70.9136L36.4202 70.8393H34.5481H32.6761L32.6145 70.9073ZM52.2231 70.8857C52.1764 70.944 52.0707 71.3027 52.0067 71.6198C51.9067 72.1163 51.871 72.2768 51.8047 72.5304C51.7673 72.6734 51.7262 72.8574 51.7134 72.9392C51.7006 73.021 51.667 73.1631 51.6386 73.2551C51.6103 73.3471 51.5765 73.5216 51.5635 73.643C51.5505 73.7643 51.5183 73.9065 51.4919 73.9589C51.4655 74.0113 51.4329 74.1516 51.4195 74.2706C51.4061 74.3897 51.3703 74.5464 51.34 74.619C51.3097 74.6915 51.2849 74.8073 51.2849 74.8762C51.2849 74.9452 51.253 75.0979 51.2141 75.2155C51.1751 75.3331 51.1335 75.5091 51.1218 75.6065C51.11 75.704 51.075 75.8327 51.044 75.8927C51.013 75.9527 50.9876 76.0764 50.9876 76.1677C50.9876 76.259 50.9568 76.4062 50.9191 76.4948C50.8814 76.5834 50.8402 76.7332 50.8275 76.8278L50.8044 76.9998L50.8711 77.0601L50.9377 77.1204H53.1484H55.359L55.4287 77.0695L55.4984 77.0185L55.4494 76.7442C55.4225 76.5934 55.3776 76.4052 55.3497 76.3259C55.3218 76.2467 55.2985 76.1297 55.2981 76.0658C55.2976 76.0019 55.2642 75.8768 55.2238 75.7877C55.1823 75.6963 55.1502 75.5456 55.1502 75.442C55.1502 75.341 55.1262 75.212 55.0969 75.1553C55.0676 75.0986 55.0268 74.9447 55.0064 74.8133C54.986 74.682 54.943 74.483 54.9111 74.3713C54.8791 74.2595 54.8529 74.1241 54.8529 74.0704C54.8529 74.0166 54.8284 73.9235 54.7984 73.8635C54.7685 73.8034 54.7328 73.6545 54.7192 73.5325C54.7056 73.4106 54.6729 73.2577 54.6466 73.1927C54.6203 73.1277 54.5875 72.9772 54.5737 72.8582C54.5599 72.7392 54.5167 72.5356 54.4778 72.4057C54.4388 72.2757 54.4062 72.1252 54.4053 72.0712C54.4044 72.0171 54.3789 71.906 54.3486 71.8242C54.3183 71.7424 54.2849 71.5835 54.2742 71.4711C54.2539 71.2562 54.1701 71.0138 54.0782 70.9043L54.0237 70.8393H53.142H52.2604L52.2231 70.8857ZM70.9088 71.6799C70.6044 71.7493 70.1672 71.8766 70.0819 71.9207C70.0461 71.9391 69.9876 71.9684 69.9518 71.9856C69.5328 72.1876 69.3475 72.3249 68.9442 72.732C68.7147 72.9637 68.27 73.5619 68.27 73.6391C68.27 73.6515 68.2282 73.7531 68.1771 73.8649C68.126 73.9766 68.0842 74.092 68.0842 74.1214C68.0842 74.1508 68.0487 74.2551 68.0053 74.3531L67.9264 74.5314L67.9271 75.2963L67.9278 76.0612L67.9892 76.2284C68.0229 76.3204 68.0732 76.4709 68.1011 76.5629C68.1793 76.8217 68.2455 76.9845 68.3165 77.0929C68.3522 77.1475 68.3816 77.2053 68.3817 77.2213C68.3818 77.2374 68.5114 77.4127 68.6697 77.611C68.942 77.9519 69.4481 78.4066 69.7054 78.5414C69.7642 78.5722 69.9265 78.6581 70.066 78.7324C70.2054 78.8065 70.3607 78.8672 70.411 78.8672C70.4612 78.8672 70.5645 78.8946 70.6405 78.9281C70.7231 78.9645 70.9355 78.9982 71.1686 79.0118L71.5584 79.0345L71.57 79.0949C71.5793 79.1437 71.4011 79.5524 71.2481 79.8336C71.214 79.896 71.1505 80.0192 71.0947 80.1309C71.0742 80.1718 71.0408 80.2387 71.0203 80.2796C70.9999 80.3204 70.9664 80.3873 70.946 80.4282C70.9255 80.4691 70.8921 80.536 70.8717 80.5769C70.8512 80.6178 70.819 80.6805 70.8001 80.7163C70.647 81.0061 70.3885 81.5599 70.3885 81.5982C70.3885 81.6242 70.4347 81.6546 70.491 81.6659C70.6818 81.7041 72.2073 81.6958 72.2813 81.6561C72.3205 81.6351 72.3767 81.5719 72.4061 81.5155C72.5214 81.2942 73.5882 79.2004 74.1017 78.1875C74.4 77.599 74.6894 77.0303 74.7449 76.9238C74.8003 76.8173 74.8726 76.6382 74.9054 76.5257C74.9383 76.4133 74.9891 76.2583 75.0183 76.1812L75.0715 76.0411V75.2981V74.5551L75.0005 74.3976C74.9616 74.3109 74.9216 74.1982 74.9117 74.1471C74.8848 74.0081 74.735 73.6696 74.6075 73.4595C74.5454 73.3573 74.4709 73.2272 74.4417 73.1704C74.4126 73.1136 74.209 72.8878 73.9893 72.6686L73.5898 72.2702L73.2063 72.0785C72.9955 71.9731 72.7309 71.8541 72.6185 71.8141C72.1475 71.6464 71.3354 71.5826 70.9088 71.6799ZM77.3099 71.9171L76.891 71.9357L76.2786 72.5554L75.6661 73.175L75.6667 73.6518C75.667 73.914 75.6832 74.1536 75.7026 74.1843L75.7378 74.24L76.3145 74.2412C76.6604 74.2418 76.9066 74.2577 76.9296 74.2807C76.9553 74.3064 76.9681 75.1731 76.9684 76.8998L76.9688 79.4805L76.8894 79.5455L76.8101 79.6106H76.3518C76.0998 79.6106 75.8837 79.6265 75.8717 79.6459C75.8597 79.6654 75.8485 80.1089 75.8469 80.6316L75.844 81.5818L75.8911 81.6385L75.9381 81.6952L77.9036 81.6899C78.9845 81.687 79.9143 81.6725 79.9697 81.6577L80.0704 81.6308L80.0803 80.6717L80.0902 79.7126L80.0479 79.6616L80.0055 79.6106H79.5314H79.0574L79.0148 79.5592L78.9721 79.5078L78.9701 75.7518L78.9681 71.9957L78.9096 71.9471L78.851 71.8985H78.2899C77.9813 71.8985 77.5403 71.9069 77.3099 71.9171ZM71.3548 73.4768C71.3037 73.4939 71.195 73.5093 71.1132 73.511C70.9315 73.5149 70.4717 73.7418 70.2918 73.9165C70.1375 74.0663 69.8981 74.4218 69.7961 74.6525C69.701 74.8673 69.6583 75.4207 69.7139 75.7166C69.8352 76.3627 70.359 76.9149 71.0716 77.1482C71.5039 77.2897 71.7573 77.2555 72.3149 76.9808L72.5873 76.8465L72.8046 76.6094C72.9241 76.479 73.0774 76.2605 73.1454 76.1238L73.2689 75.8753L73.2805 75.3736L73.2921 74.8718L73.1774 74.6303C72.9959 74.2482 72.9244 74.1401 72.7318 73.9567C72.47 73.7076 72.175 73.5505 71.9011 73.5143C71.7744 73.4975 71.6206 73.4752 71.5592 73.4648C71.4979 73.4543 71.4059 73.4597 71.3548 73.4768ZM8.33908 78.7186L5.77459 78.7372L5.65566 78.8022C5.59021 78.838 5.51446 78.8672 5.48726 78.8672C5.40099 78.8672 4.9473 79.2762 4.80611 79.4812C4.65086 79.7066 4.45518 80.2642 4.45518 80.4811C4.45518 80.6517 4.56832 81.029 4.70684 81.3202C4.87405 81.6718 5.33499 82.0919 5.62593 82.1579C5.68725 82.1718 5.80908 82.2065 5.89668 82.2349L6.05594 82.2866H8.55884H11.0617L11.1022 82.2377C11.1415 82.1904 11.1728 78.8081 11.1343 78.7697C11.0749 78.7102 10.6248 78.702 8.33908 78.7186Z" fill="white"/>
</svg>
