<svg width="179" height="34" viewBox="0 0 179 34" fill="none" xmlns="http://www.w3.org/2000/svg">
<path d="M18.4121 7.26904C23.1772 7.26904 25.8428 9.77314 26.9733 12.5985L23.0157 13.8905C22.2881 11.8709 20.4317 10.822 18.1707 10.822C14.5362 10.822 11.3878 13.9721 11.3878 18.0912C11.3878 20.9982 13.4873 23.2592 16.8787 23.2592C18.4937 23.2592 20.3518 22.3701 21.4007 21.0781L24.5508 23.1776C22.3697 25.9231 19.1397 26.8122 16.6356 26.8122C11.3062 26.8122 7.10547 23.5006 7.10547 18.3326C7.18707 11.7111 12.3551 7.26904 18.4121 7.26904Z" fill="white"/>
<path d="M30.3646 7.59204H34.4837L31.0106 22.9362H39.1672L38.4413 26.4093L26.084 26.4892L30.3646 7.59204Z" fill="white"/>
<path d="M50.3111 23.1777C47.2426 23.1777 44.8201 21.2397 44.8201 18.0097C44.8201 13.9722 47.8087 10.7405 51.5232 10.7405C54.5917 10.7405 57.0142 12.6785 57.0142 15.9085C57.0142 20.0276 54.0256 23.1777 50.3111 23.1777ZM51.8462 7.26916C45.4661 7.26916 40.6211 12.1957 40.6211 18.3327C40.6211 23.5007 44.7402 26.8123 50.1513 26.8123C56.5314 26.8123 61.3763 21.8857 61.3763 15.6671C61.2947 10.4992 57.1774 7.26746 51.8462 7.26746" fill="white"/>
<path d="M63.074 20.1907C63.074 19.7861 63.1556 18.8987 63.3171 18.2527L65.7396 7.59204H69.9385L67.5161 18.2527C67.3546 18.8987 67.273 19.3033 67.3546 19.7878C67.3546 21.7258 68.7282 23.2609 71.392 23.2609C74.3806 23.2609 75.8341 21.4844 76.3985 18.8188L78.9026 7.59374H83.1016L80.5975 18.9004C79.5469 23.504 77.1244 26.8156 71.2288 26.8156C65.8178 26.734 63.0723 24.0701 63.0723 20.1941" fill="white"/>
<path d="M90.7708 22.8547H87.3793L90.0449 11.0635H93.4364C96.3434 11.0635 98.2814 13.163 98.2814 15.9085C98.1998 19.623 95.3744 22.8547 90.7708 22.8547ZM94.0807 7.5105H86.5701L82.3711 26.4077H89.9633C99.009 26.4077 102.48 20.5937 102.48 15.6671C102.48 10.7405 98.3613 7.5105 94.0807 7.5105Z" fill="white"/>
<path d="M107.088 7.51081L120.817 7.43091L120.009 10.9023H110.479L109.592 15.0214H117.91L117.182 18.4945H108.784L107.006 26.3281H102.889L107.088 7.51081Z" fill="white"/>
<path d="M123.644 7.43091H137.291L136.484 10.9023H126.954L126.066 15.0214H134.464L133.657 18.4129L125.259 18.4945L124.29 22.855H133.818L133.092 26.3281H119.363L123.644 7.43091Z" fill="white"/>
<path d="M138.422 20.3114C139.795 22.0879 142.298 23.2184 144.963 23.2184C146.983 23.2184 147.87 22.0879 147.87 21.0373C147.87 19.9068 146.417 19.3407 144.559 18.6947C141.893 17.7257 138.502 16.5136 138.502 13.1222C138.502 10.2951 141.247 7.22656 146.012 7.22656C149.081 7.22656 151.988 8.35706 153.684 10.2951L151.1 13.1222C149.727 11.5072 147.386 10.6997 145.448 10.6997C143.833 10.6997 142.782 11.6687 142.782 12.7193C142.782 13.7698 144.236 14.3342 146.094 14.9802C148.759 15.9492 152.231 17.1613 152.231 20.4712C152.231 23.7811 149.404 26.7697 144.639 26.7697C140.842 26.7697 137.531 25.3162 135.836 23.2966L138.42 20.308L138.422 20.3114Z" fill="white"/>
<path d="M161.035 11.145H155.381L156.188 7.59204H171.614L170.807 11.0634H165.154L161.761 26.4076H157.562L161.035 11.145Z" fill="white"/>
<path d="M3.63459 3.55299H175.169V30.3653H3.63459V3.55299ZM0 33.9999H178.641V0H0V33.9999Z" fill="white"/>
</svg>
