<svg width="603" height="251" viewBox="0 0 603 251" fill="none" xmlns="http://www.w3.org/2000/svg">
<rect x="0.500004" y="0.5" width="601.666" height="249.695" rx="124.848" transform="matrix(1 0 8.35823e-06 1 -4.17911e-06 0)" fill="#F3EFE7" stroke="#0ABAB5"/>
<mask id="path-2-inside-1_3757_724" fill="white">
<path d="M477.745 0.00195219L477.747 250.692C477.606 250.693 477.465 250.695 477.323 250.695C408.098 250.695 351.978 194.575 351.978 125.348C351.977 56.1201 408.096 -4.17369e-07 477.321 -9.32215e-07C477.463 -5.12346e-07 477.604 0.0014843 477.745 0.00195219Z"/>
</mask>
<path d="M477.745 0.00195219L477.747 250.692C477.606 250.693 477.465 250.695 477.323 250.695C408.098 250.695 351.978 194.575 351.978 125.348C351.977 56.1201 408.096 -4.17369e-07 477.321 -9.32215e-07C477.463 -5.12346e-07 477.604 0.0014843 477.745 0.00195219Z" fill="#0ABAB5"/>
<path d="M477.745 0.00195219L478.745 0.00195218L478.745 -0.99474L477.748 -0.998042L477.745 0.00195219ZM477.747 250.692L477.751 251.692L478.747 251.689L478.747 250.692L477.747 250.692ZM477.323 250.695L477.323 251.695L477.323 250.695ZM351.978 125.348L350.978 125.348L351.978 125.348ZM477.321 -9.32215e-07L477.321 -1L477.321 -9.32215e-07ZM477.745 0.00195219L476.745 0.0019522L476.747 250.692L477.747 250.692L478.747 250.692L478.745 0.00195218L477.745 0.00195219ZM477.747 250.692L477.744 249.692C477.568 249.693 477.478 249.695 477.323 249.695L477.323 250.695L477.323 251.695C477.451 251.695 477.644 251.693 477.751 251.692L477.747 250.692ZM477.323 250.695L477.323 249.695C408.65 249.695 352.978 194.023 352.978 125.348L351.978 125.348L350.978 125.348C350.978 195.128 407.545 251.695 477.323 251.695L477.323 250.695ZM351.978 125.348L352.978 125.348C352.977 56.6723 408.648 1 477.321 0.999999L477.321 -9.32215e-07L477.321 -1C407.543 -1 350.977 55.5678 350.978 125.348L351.978 125.348ZM477.321 -9.32215e-07L477.321 0.999999C477.464 1 477.588 1.00144 477.742 1.00195L477.745 0.00195219L477.748 -0.998042C477.62 -0.998468 477.462 -1 477.321 -1L477.321 -9.32215e-07Z" fill="#0ABAB5" mask="url(#path-2-inside-1_3757_724)"/>
<path d="M477.321 0.499999C546.271 0.500205 602.166 56.3963 602.166 125.348C602.167 194.299 546.273 250.195 477.323 250.195C408.374 250.195 352.478 194.299 352.478 125.348C352.477 56.3962 408.372 0.5 477.321 0.499999Z" stroke="#0ABAB5"/>
</svg>
