<svg width="539" height="483" viewBox="0 0 539 483" fill="none" xmlns="http://www.w3.org/2000/svg">
<g clip-path="url(#clip0_3760_749)">
<path d="M517.976 11.2368C517.086 71.0607 492.153 130.504 443.561 174.966C394.971 219.428 332.062 240.366 269.989 238.158C270.879 178.334 295.814 118.892 344.405 74.4297C392.995 29.9688 455.903 9.0289 517.976 11.2368Z" fill="#E61F25"/>
<path d="M270.4 238.403C332.509 239.262 394.223 263.279 440.386 310.082C486.547 356.884 508.287 417.477 505.996 477.264C443.888 476.405 382.174 452.387 336.012 405.584C289.85 358.782 268.11 298.189 270.4 238.403Z" fill="#E61F25"/>
<path d="M28.2054 472.059C27.5043 412.233 50.8488 352.196 98.2411 306.55C145.633 260.903 207.966 238.42 270.078 239.097C270.779 298.921 247.434 358.959 200.042 404.605C152.65 450.251 90.3171 472.735 28.2054 472.059Z" fill="#E61F25"/>
<path d="M269.654 238.866C207.541 239.54 145.207 217.053 97.8145 171.404C50.422 125.755 27.0774 65.7157 27.7788 5.89015C89.8911 5.21615 152.225 27.704 199.617 73.3528C247.01 119.002 270.355 179.041 269.654 238.866Z" fill="#E61F25"/>
</g>
<defs>
<clipPath id="clip0_3760_749">
<rect width="539" height="483" fill="white"/>
</clipPath>
</defs>
</svg>
