<svg width="2101" height="826" viewBox="0 0 2101 826" fill="none" xmlns="http://www.w3.org/2000/svg">
<circle cx="938.5" cy="339.857" r="152.5" fill="#8ABF3C"/>
<rect x="0.999973" y="1" width="697.753" height="289.071" rx="144.536" transform="matrix(1 0 -2.66111e-05 1 153.25 266.233)" fill="#F3EFE7" stroke="#E63364" stroke-width="2"/>
<mask id="path-3-inside-1_4066_2660" fill="white">
<path d="M707.958 266.236L707.95 557.301C707.787 557.301 707.623 557.305 707.459 557.305C627.081 557.305 561.924 492.146 561.926 411.769C561.928 331.392 627.089 266.233 707.467 266.233C707.631 266.233 707.794 266.236 707.958 266.236Z"/>
</mask>
<path d="M707.958 266.236L707.95 557.301C707.787 557.301 707.623 557.305 707.459 557.305C627.081 557.305 561.924 492.146 561.926 411.769C561.928 331.392 627.089 266.233 707.467 266.233C707.631 266.233 707.794 266.236 707.958 266.236Z" fill="#E63364"/>
<path d="M707.958 266.236H709.958L709.958 264.243L707.965 264.236L707.958 266.236ZM707.95 557.301L707.957 559.301L709.95 559.294L709.95 557.301H707.95ZM707.459 557.305L707.459 559.305L707.459 557.305ZM561.926 411.769H559.926H561.926ZM707.467 266.233L707.467 264.233L707.467 266.233ZM707.958 266.236H705.958L705.95 557.301H707.95H709.95L709.958 266.236H707.958ZM707.95 557.301L707.944 555.301C707.685 555.302 707.668 555.305 707.459 555.305L707.459 557.305L707.459 559.305C707.578 559.305 707.888 559.301 707.957 559.301L707.95 557.301ZM707.459 557.305L707.459 555.305C628.186 555.305 563.924 491.041 563.926 411.769H561.926H559.926C559.924 493.25 625.977 559.305 707.459 559.305L707.459 557.305ZM561.926 411.769H563.926C563.928 332.496 628.194 268.233 707.467 268.233L707.467 266.233L707.467 264.233C625.985 264.233 559.928 330.287 559.926 411.769H561.926ZM707.467 266.233L707.467 268.233C707.645 268.233 707.739 268.236 707.951 268.236L707.958 266.236L707.965 264.236C707.85 264.236 707.616 264.233 707.467 264.233L707.467 266.233Z" fill="#E63364" mask="url(#path-3-inside-1_4066_2660)"/>
<path d="M707.467 267.233C787.292 267.234 852.001 331.945 851.999 411.77C851.997 491.594 787.284 556.305 707.459 556.305C627.634 556.305 562.924 491.594 562.926 411.77C562.928 331.945 627.641 267.233 707.467 267.233Z" stroke="#E63364" stroke-width="2"/>
<path d="M1397 491.857C1397 604.247 1309.25 695.357 1201 695.357C1092.75 695.357 1005 604.247 1005 491.857C1005 379.467 1092.75 288.357 1201 288.357C1309.25 288.357 1397 379.467 1397 491.857ZM1093.92 491.857C1093.92 553.258 1141.86 603.033 1201 603.033C1260.14 603.033 1308.08 553.258 1308.08 491.857C1308.08 430.457 1260.14 380.681 1201 380.681C1141.86 380.681 1093.92 430.457 1093.92 491.857Z" fill="#F9B900"/>
<rect x="0.529054" y="0.469154" width="601.666" height="249.695" rx="124.848" transform="matrix(0.998205 -0.0598958 0.0599042 0.998204 1430.97 326.488)" fill="#F3EFE7" stroke="#0ABAB5"/>
<mask id="path-8-inside-2_4066_2660" fill="white">
<path d="M1907.89 297.842L1922.9 548.082C1922.76 548.091 1922.62 548.102 1922.48 548.111C1853.38 552.257 1794 499.599 1789.85 430.496C1785.71 361.392 1838.36 302.012 1907.46 297.865C1907.6 297.857 1907.75 297.85 1907.89 297.842Z"/>
</mask>
<path d="M1907.89 297.842L1922.9 548.082C1922.76 548.091 1922.62 548.102 1922.48 548.111C1853.38 552.257 1794 499.599 1789.85 430.496C1785.71 361.392 1838.36 302.012 1907.46 297.865C1907.6 297.857 1907.75 297.85 1907.89 297.842Z" fill="#0ABAB5"/>
<path d="M1907.89 297.842L1908.88 297.782L1908.83 296.787L1907.83 296.844L1907.89 297.842ZM1922.9 548.082L1922.97 549.08L1923.96 549.017L1923.9 548.022L1922.9 548.082ZM1922.48 548.111L1922.54 549.109L1922.48 548.111ZM1789.85 430.496L1788.85 430.555L1789.85 430.496ZM1907.46 297.865L1907.4 296.867L1907.46 297.865ZM1907.89 297.842L1906.89 297.902L1921.91 548.142L1922.9 548.082L1923.9 548.022L1908.88 297.782L1907.89 297.842ZM1922.9 548.082L1922.84 547.084C1922.67 547.095 1922.58 547.103 1922.42 547.112L1922.48 548.111L1922.54 549.109C1922.67 549.101 1922.86 549.087 1922.97 549.08L1922.9 548.082ZM1922.48 548.111L1922.42 547.112C1853.87 551.226 1794.96 498.988 1790.85 430.436L1789.85 430.496L1788.85 430.555C1793.03 500.21 1852.89 553.288 1922.54 549.109L1922.48 548.111ZM1789.85 430.496L1790.85 430.436C1786.74 361.884 1838.97 302.977 1907.52 298.864L1907.46 297.865L1907.4 296.867C1837.75 301.047 1784.67 360.901 1788.85 430.555L1789.85 430.496ZM1907.46 297.865L1907.52 298.864C1907.67 298.855 1907.79 298.849 1907.94 298.84L1907.89 297.842L1907.83 296.844C1907.7 296.851 1907.54 296.859 1907.4 296.867L1907.46 297.865Z" fill="#0ABAB5" mask="url(#path-8-inside-2_4066_2660)"/>
<path d="M1907.49 298.365C1976.32 294.235 2035.46 346.683 2039.59 415.51C2043.72 484.338 1991.28 543.481 1922.45 547.611C1853.63 551.741 1794.48 499.293 1790.35 430.466C1786.22 361.638 1838.67 302.494 1907.49 298.365Z" stroke="#0ABAB5"/>
<path d="M1623.4 346.838C1588.51 392.615 1573.25 450.374 1580.95 507.408C1588.66 564.442 1618.7 616.079 1664.48 650.96C1710.26 685.841 1768.01 701.109 1825.05 693.404C1882.08 685.7 1933.72 655.654 1968.6 609.877L1907.37 563.22C1884.86 592.758 1851.54 612.145 1814.74 617.116C1777.94 622.088 1740.67 612.236 1711.14 589.729C1681.6 567.222 1662.21 533.903 1657.24 497.102C1652.27 460.301 1662.12 423.032 1684.63 393.495L1623.4 346.838Z" fill="#005BA9"/>
<path d="M1727.84 286.624C1719.71 345.899 1687.76 401.882 1634.13 440.128C1580.51 478.373 1515.53 491.532 1454.18 481.817C1462.32 422.543 1494.27 366.561 1547.89 328.315C1601.51 290.071 1666.5 276.91 1727.84 286.624Z" fill="#E61F25"/>
<path d="M1454.56 482.11C1516.11 490.491 1574.46 521.811 1614.61 573.863C1654.75 625.915 1668.99 688.696 1659.47 747.765C1597.92 739.384 1539.58 708.063 1499.43 656.011C1459.28 603.96 1445.04 541.179 1454.56 482.11Z" fill="#E61F25"/>
<path d="M1185.84 684.692C1192.39 625.222 1222.84 568.457 1275.41 528.891C1327.99 489.325 1392.59 474.562 1454.16 482.761C1447.6 542.23 1417.16 598.995 1364.58 638.561C1312.01 678.127 1247.41 692.891 1185.84 684.692Z" fill="#E61F25"/>
<path d="M1453.77 482.48C1392.03 475.622 1332.88 445.746 1291.37 394.689C1249.86 343.633 1233.96 281.207 1241.91 221.907C1303.65 228.766 1362.8 258.643 1404.31 309.699C1445.82 360.755 1461.71 423.181 1453.77 482.48Z" fill="#E61F25"/>
<path d="M348.672 6.00017C350.211 3.33345 354.06 3.33346 355.6 6.00017L653.612 522.198C655.151 524.865 653.227 528.198 650.147 528.198H54.1067C51.0275 528.198 49.1031 524.865 50.6427 522.198L348.672 6.00017Z" fill="#E61F25"/>
</svg>
