<?xml version="1.0" encoding="UTF-8"?>
<svg version="1.1" xmlns="http://www.w3.org/2000/svg" width="218" height="388">
<path d="M0 0 C2.92286755 3.65358444 5.1410259 6.76403776 7.3984375 10.76953125 C8.03531494 11.89311035 8.67219238 13.01668945 9.32836914 14.17431641 C9.82821823 15.0629538 9.82821823 15.0629538 10.33816528 15.96954346 C12.1187723 19.13454294 13.91401229 22.29123997 15.70703125 25.44921875 C16.07007858 26.08956055 16.43312592 26.72990234 16.80717468 27.38964844 C20.1778933 33.32943033 23.61085978 39.23189531 27.0625 45.125 C33.7927702 56.6283216 40.45656049 68.16923906 47.10888672 79.71777344 C50.23680148 85.14659942 53.36858448 90.57319281 56.5 96 C57.75001879 98.16665583 59.00001878 100.3333225 60.25 102.5 C60.86875 103.5725 61.4875 104.645 62.125 105.75 C172.75 297.5 172.75 297.5 174.62524414 300.75048828 C175.87435518 302.91557071 177.12354129 305.08060982 178.37280273 307.24560547 C181.51202309 312.68615706 184.64990563 318.12747216 187.78515625 323.5703125 C194.60221524 335.40125948 201.44113336 347.21852494 208.34594727 358.99853516 C209.40669067 360.81128037 210.46254527 362.62689818 211.51269531 364.44580078 C212.50156229 366.14401586 213.51137325 367.83021237 214.54199219 369.50341797 C215.01024414 370.28475098 215.47849609 371.06608398 215.9609375 371.87109375 C216.37907715 372.54970459 216.7972168 373.22831543 217.22802734 373.92749023 C218.23515822 376.63132768 217.81642395 378.27309778 217 381 C215.17658201 382.82341799 212.64372597 382.12267815 210.21680546 382.12908077 C209.37951121 382.12616811 208.54221697 382.12325544 207.67955017 382.12025452 C206.35840714 382.12153854 206.35840714 382.12153854 205.01057434 382.12284851 C202.02647936 382.12451414 199.04243953 382.11896323 196.05834961 382.11352539 C193.89556918 382.11321931 191.73278866 382.11335211 189.57000828 382.11389065 C183.75639328 382.11411724 177.9427987 382.108304 172.12918854 382.10128021 C166.68219434 382.09560274 161.23520522 382.09531805 155.78820801 382.09460449 C139.83796928 382.0893485 123.88773439 382.07538747 107.9375 382.0625 C72.318125 382.041875 36.69875 382.02125 0 382 C0 255.94 0 129.88 0 0 Z " fill="#E51E24" transform="translate(0,5)"/>
</svg>
