<svg width="700" height="292" viewBox="0 0 700 292" fill="none" xmlns="http://www.w3.org/2000/svg">
<rect x="0.999973" y="1" width="697.753" height="289.071" rx="144.536" transform="matrix(1 0 -2.66111e-05 1 0.00777242 0)" fill="#F3EFE7" stroke="#E63364" stroke-width="2"/>
<mask id="path-2-inside-1_3757_716" fill="white">
<path d="M554.716 0.00341797L554.708 291.068C554.544 291.068 554.381 291.072 554.217 291.072C473.839 291.072 408.681 225.913 408.684 145.536C408.686 65.1587 473.847 0.000502405 554.225 0.000488281C554.388 0.000488281 554.552 0.00287723 554.716 0.00341797Z"/>
</mask>
<path d="M554.716 0.00341797L554.708 291.068C554.544 291.068 554.381 291.072 554.217 291.072C473.839 291.072 408.681 225.913 408.684 145.536C408.686 65.1587 473.847 0.000502405 554.225 0.000488281C554.388 0.000488281 554.552 0.00287723 554.716 0.00341797Z" fill="#E63364"/>
<path d="M554.716 0.00341797L556.716 0.00341797L556.716 -1.98999L554.722 -1.99657L554.716 0.00341797ZM554.708 291.068L554.715 293.068L556.708 293.061L556.708 291.068H554.708ZM554.217 291.072L554.217 293.072L554.217 291.072ZM408.684 145.536H406.684H408.684ZM554.225 0.000488281L554.225 -1.99951L554.225 0.000488281ZM554.716 0.00341797L552.716 0.00341797L552.708 291.068H554.708H556.708L556.716 0.00341797L554.716 0.00341797ZM554.708 291.068L554.701 289.068C554.443 289.069 554.425 289.072 554.217 289.072L554.217 291.072L554.217 293.072C554.336 293.072 554.646 293.068 554.715 293.068L554.708 291.068ZM554.217 291.072L554.217 289.072C474.944 289.072 410.681 224.808 410.684 145.536H408.684H406.684C406.681 227.017 472.734 293.072 554.217 293.072L554.217 291.072ZM408.684 145.536H410.684C410.686 66.2633 474.951 2.0005 554.224 2.00049L554.225 0.000488281L554.225 -1.99951C472.742 -1.9995 406.686 64.0541 406.684 145.536H408.684ZM554.225 0.000488281L554.224 2.00049C554.403 2.00049 554.497 2.00271 554.709 2.00341L554.716 0.00341797L554.722 -1.99657C554.608 -1.99695 554.374 -1.99951 554.225 -1.99951L554.225 0.000488281Z" fill="#E63364" mask="url(#path-2-inside-1_3757_716)"/>
<path d="M554.225 1.00049C634.05 1.00065 698.759 65.7119 698.757 145.537C698.754 225.361 634.042 290.072 554.217 290.072C474.392 290.072 409.682 225.361 409.684 145.537C409.686 65.7118 474.399 1.00049 554.225 1.00049Z" stroke="#E63364" stroke-width="2"/>
</svg>
