<svg width="91" height="91" viewBox="0 0 91 91" fill="none" xmlns="http://www.w3.org/2000/svg">
<g clip-path="url(#clip0_3487_1637)">
<path d="M44.2502 29.608V36.328C40.4103 36.328 37.2423 37.128 34.7463 38.728C32.3143 40.264 30.7783 42.024 30.1383 44.008C31.4183 42.856 33.1463 42.28 35.3223 42.28C36.7303 42.28 38.0743 42.568 39.3543 43.144C40.6983 43.72 41.7863 44.648 42.6183 45.928C43.4503 47.144 43.8663 48.712 43.8663 50.632C43.8663 53.512 42.8743 55.848 40.8903 57.64C38.9063 59.368 36.4743 60.232 33.5943 60.232C31.4183 60.232 29.4983 59.656 27.8343 58.504C26.1703 57.288 24.8583 55.72 23.8983 53.8C23.0023 51.88 22.5543 49.896 22.5543 47.848C22.5543 43.432 23.5783 39.912 25.6263 37.288C27.6743 34.6 30.3303 32.648 33.5943 31.432C36.9223 30.216 40.4743 29.608 44.2502 29.608ZM68.3463 29.608V36.328C64.4423 36.328 61.2743 37.128 58.8423 38.728C56.4103 40.264 54.8423 42.024 54.1383 44.008C55.4823 42.856 57.2423 42.28 59.4183 42.28C60.8263 42.28 62.1703 42.568 63.4503 43.144C64.7303 43.72 65.7863 44.648 66.6183 45.928C67.4503 47.144 67.8663 48.712 67.8663 50.632C67.8663 53.512 66.8743 55.848 64.8903 57.64C62.9703 59.368 60.5383 60.232 57.5943 60.232C55.4823 60.232 53.5623 59.656 51.8343 58.504C50.1703 57.288 48.8583 55.72 47.8983 53.8C47.0023 51.88 46.5543 49.896 46.5543 47.848C46.5543 43.432 47.5783 39.912 49.6263 37.288C51.6743 34.6 54.3303 32.648 57.5943 31.432C60.9223 30.216 64.5063 29.608 68.3463 29.608Z" fill="black"/>
</g>
<defs>
<clipPath id="clip0_3487_1637">
<rect width="91" height="91" rx="45.5" fill="white"/>
</clipPath>
</defs>
</svg>
