<svg width="65" height="33" viewBox="0 0 65 33" fill="none" xmlns="http://www.w3.org/2000/svg">
<path d="M59.5518 10.8984L65 16.3467L59.5518 21.7959L59.4961 21.7402L54.1572 27.0791L54.2676 27.1895L48.8193 32.6387L43.3701 27.1895L48.7637 21.7949L48.7363 21.7676L48.709 21.7959L43.2871 16.374L37.8662 21.7959L32.4453 16.374L27.0244 21.7959L21.6035 16.374L16.1826 21.7959L10.8154 16.4287L5.44824 21.7959L0 16.3467L5.44824 10.8984L10.8154 16.2646L16.1826 10.8984L21.6035 16.3193L27.0244 10.8984L32.4453 16.3193L37.8662 10.8984L43.2871 16.3184L48.6816 10.9248L48.6553 10.8984L54.1035 5.44922L59.5518 10.8984ZM54.1045 5.44824L48.6553 10.8975L43.207 5.44824L48.6553 0L54.1045 5.44824Z" fill="currentColor"/>
</svg>
