<svg width="24" height="24" viewBox="0 0 24 24" fill="none" xmlns="http://www.w3.org/2000/svg">
<g clip-path="url(#clip0_3241_11603)">
<path opacity="0.2" d="M18.75 14.25L15 18L9 16.5L3.75 12.75L6.81375 6.62156L12 5.25L17.1863 6.62156L17.2125 6.75H13.5L9.21937 10.9022C9.1398 10.9817 9.07914 11.0781 9.04188 11.1843C9.00463 11.2905 8.99173 11.4037 9.00416 11.5155C9.01658 11.6273 9.05401 11.7349 9.11366 11.8303C9.17331 11.9257 9.25366 12.0064 9.34875 12.0666C10.9903 13.1156 13.2188 13.0434 15 11.25L18.75 14.25Z" fill="white"/>
<path d="M23.8399 10.1166L21.4474 5.3297C21.3592 5.15352 21.2372 4.99642 21.0884 4.86737C20.9395 4.73833 20.7667 4.63988 20.5798 4.57763C20.3929 4.51539 20.1955 4.49057 19.999 4.5046C19.8025 4.51863 19.6107 4.57123 19.4345 4.65939L17.103 5.8247L12.1914 4.52533C12.0654 4.49253 11.9331 4.49253 11.807 4.52533L6.89548 5.8247L4.56391 4.65939C4.38774 4.57123 4.19593 4.51863 3.99942 4.5046C3.80292 4.49057 3.60558 4.51539 3.41867 4.57763C3.23175 4.63988 3.05894 4.73833 2.91008 4.86737C2.76122 4.99642 2.63924 5.15352 2.5511 5.3297L0.158602 10.1156C0.0704354 10.2918 0.0178362 10.4836 0.00380791 10.6801C-0.0102204 10.8766 0.0145969 11.074 0.0768426 11.2609C0.139088 11.4478 0.237543 11.6206 0.366585 11.7695C0.495626 11.9183 0.652726 12.0403 0.828914 12.1285L3.36016 13.395L8.56235 17.1103C8.63901 17.1649 8.72517 17.2046 8.81641 17.2275L14.8164 18.7275C14.9421 18.759 15.0737 18.7575 15.1986 18.723C15.3235 18.6885 15.4373 18.6222 15.5289 18.5306L20.6917 13.3669L23.1686 12.1285C23.5242 11.9504 23.7945 11.6385 23.9202 11.2613C24.0459 10.884 24.0167 10.4723 23.8389 10.1166H23.8399ZM18.6939 13.245L15.468 10.6613C15.3235 10.5455 15.1412 10.4873 14.9564 10.4979C14.7715 10.5085 14.5971 10.587 14.4667 10.7185C12.797 12.4003 10.9361 12.1875 9.74923 11.4375L13.803 7.50002H16.7852L19.3361 12.601L18.6939 13.245ZM3.89266 6.00002L5.81173 6.95814L3.41454 11.7441L1.49923 10.7869L3.89266 6.00002ZM14.7677 17.1685L9.31985 15.8072L4.70735 12.5128L7.33235 7.26283L11.9992 6.02627L12.918 6.26908L8.69923 10.3641L8.69173 10.3725C8.53292 10.5313 8.4118 10.7238 8.33731 10.9356C8.26281 11.1475 8.23684 11.3734 8.26132 11.5967C8.28579 11.8199 8.36009 12.0348 8.47872 12.2255C8.59735 12.4162 8.75729 12.5778 8.94673 12.6985C10.8742 13.9294 13.2002 13.7297 15.032 12.2297L17.6242 14.3119L14.7677 17.1685ZM20.5802 11.7431L18.1877 6.96189L20.1058 6.00002L22.4992 10.7869L20.5802 11.7431ZM12.3536 20.431C12.3131 20.5931 12.2196 20.737 12.088 20.8399C11.9563 20.9428 11.7941 20.9988 11.627 20.9991C11.5654 20.999 11.504 20.9914 11.4442 20.9766L7.53767 19.9997C7.44629 19.9772 7.36006 19.9374 7.2836 19.8825L4.81329 18.1181C4.6614 17.9989 4.56136 17.8256 4.53401 17.6345C4.50666 17.4433 4.55411 17.2489 4.66647 17.0919C4.77883 16.9348 4.94745 16.8271 5.13721 16.7913C5.32697 16.7554 5.52324 16.7942 5.68516 16.8994L8.03923 18.5813L11.8117 19.5225C12.0047 19.5708 12.1705 19.6937 12.2728 19.8642C12.3752 20.0348 12.4056 20.2389 12.3574 20.4319L12.3536 20.431Z" fill="#FA5424"/>
</g>
<defs>
<clipPath id="clip0_3241_11603">
<rect width="24" height="24" fill="white"/>
</clipPath>
</defs>
</svg>
