<svg width="27" height="27" viewBox="0 0 27 27" fill="none" xmlns="http://www.w3.org/2000/svg">
<path d="M20.0189 4.67578C19.1714 4.67578 18.4844 5.36278 18.4844 6.21028C18.4844 7.05853 19.1714 7.74553 20.0189 7.74553C20.8664 7.74553 21.5541 7.05853 21.5541 6.21028C21.5541 5.36278 20.8664 4.67578 20.0189 4.67578Z" fill="white"/>
<path d="M13.1978 17.2228C10.9208 17.2228 9.0675 15.3703 9.0675 13.0925C9.0675 10.8155 10.9208 8.96301 13.1978 8.96301C15.4748 8.96301 17.3272 10.8155 17.3272 13.0925C17.3272 15.3703 15.4748 17.2228 13.1978 17.2228ZM13.1978 6.64551C9.64275 6.64551 6.75 9.53751 6.75 13.0925C6.75 16.6475 9.64275 19.5403 13.1978 19.5403C16.7528 19.5403 19.6448 16.6475 19.6448 13.0925C19.6448 9.53751 16.7528 6.64551 13.1978 6.64551Z" fill="white"/>
<path d="M7.86375 2.463C4.8855 2.463 2.463 4.8855 2.463 7.86375V18.3165C2.463 21.2948 4.8855 23.7172 7.86375 23.7172H18.3158C21.294 23.7172 23.7172 21.2948 23.7172 18.3165V7.86375C23.7172 4.8855 21.294 2.463 18.3158 2.463H7.86375ZM18.3158 26.1803H7.86375C3.528 26.1803 0 22.6523 0 18.3165V7.86375C0 3.52725 3.528 0 7.86375 0H18.3158C22.6523 0 26.1803 3.52725 26.1803 7.86375V18.3165C26.1803 22.6523 22.6523 26.1803 18.3158 26.1803Z" fill="white"/>
</svg>
