<svg width="28" height="28" viewBox="0 0 28 28" fill="none" xmlns="http://www.w3.org/2000/svg">
<path d="M9.83203 9.20093H15.352V11.7329H15.4278C16.1973 10.2764 18.0738 8.74268 20.8765 8.74268C26.7025 8.74268 27.7773 12.5744 27.7773 17.5604V27.7147H22.027V18.7139C22.027 16.5652 21.985 13.8037 19.036 13.8037C16.0405 13.8037 15.5838 16.1429 15.5838 18.5564V27.7147H9.83203V9.20093Z" fill="white"/>
<path d="M3.3405 0C5.18325 0 6.67725 1.4955 6.67725 3.3345C6.67725 5.17575 5.18325 6.67275 3.3405 6.67275C1.4925 6.67275 0 5.17575 0 3.3345C0 1.4955 1.4925 0 3.3405 0ZM0.45825 9.1995H6.22125V27.7132H0.45825V9.1995Z" fill="white"/>
</svg>
