<svg width="159" height="31" viewBox="0 0 159 31" fill="none" xmlns="http://www.w3.org/2000/svg">
<path d="M16.3877 6.47021C20.6288 6.47021 23.0013 8.69898 24.0075 11.2137L20.4851 12.3636C19.8375 10.5661 18.1852 9.63254 16.1728 9.63254C12.9379 9.63254 10.1357 12.4363 10.1357 16.1025C10.1357 18.6898 12.0043 20.7022 15.0229 20.7022C16.4603 20.7022 18.1141 19.9109 19.0477 18.7609L21.8514 20.6296C19.9101 23.0732 17.0353 23.8645 14.8065 23.8645C10.063 23.8645 6.32422 20.9171 6.32422 16.3173C6.39685 10.4239 10.9966 6.47021 16.3877 6.47021Z" fill="#565656"/>
<path d="M27.0267 6.75684H30.6929L27.6017 20.4139H34.8614L34.2153 23.5051L23.2168 23.5762L27.0267 6.75684Z" fill="#565656"/>
<path d="M44.7808 20.6291C42.0497 20.6291 39.8935 18.9042 39.8935 16.0294C39.8935 12.4358 42.5535 9.55948 45.8596 9.55948C48.5907 9.55948 50.7468 11.2844 50.7468 14.1592C50.7468 17.8254 48.0868 20.6291 44.7808 20.6291ZM46.1471 6.46977C40.4685 6.46977 36.1562 10.8547 36.1562 16.3169C36.1562 20.9166 39.8224 23.8641 44.6385 23.8641C50.3171 23.8641 54.6294 19.4792 54.6294 13.9444C54.5568 9.34462 50.8921 6.46826 46.1471 6.46826" fill="#565656"/>
<path d="M56.1382 17.9702C56.1382 17.6101 56.2109 16.8203 56.3546 16.2453L58.5107 6.75684H62.248L60.0919 16.2453C59.9482 16.8203 59.8755 17.1804 59.9482 17.6116C59.9482 19.3365 61.1707 20.7029 63.5417 20.7029C66.2017 20.7029 67.4954 19.1217 67.9977 16.7492L70.2265 6.75835H73.9638L71.735 16.8218C70.7999 20.9192 68.6438 23.8667 63.3965 23.8667C58.5803 23.7941 56.1367 21.4231 56.1367 17.9733" fill="#565656"/>
<path d="M80.7906 20.3431H77.772L80.1445 9.84836H83.1631C85.7504 9.84836 87.4753 11.717 87.4753 14.1606C87.4027 17.4667 84.888 20.3431 80.7906 20.3431ZM83.7365 6.68604H77.0518L73.3145 23.5054H80.0718C88.1229 23.5054 91.2126 18.3307 91.2126 13.9458C91.2126 9.56088 87.5464 6.68604 83.7365 6.68604Z" fill="#565656"/>
<path d="M95.3135 6.68537L107.533 6.61426L106.814 9.70396H98.3321L97.5422 13.3701H104.946L104.298 16.4614H96.8235L95.2408 23.4336H91.5762L95.3135 6.68537Z" fill="#565656"/>
<path d="M110.048 6.61426H122.195L121.476 9.70396H112.994L112.204 13.3701H119.679L118.96 16.3887L111.486 16.4614L110.623 20.3424H119.104L118.458 23.4336H106.238L110.048 6.61426Z" fill="#565656"/>
<path d="M123.204 18.0793C124.426 19.6604 126.654 20.6666 129.026 20.6666C130.824 20.6666 131.613 19.6604 131.613 18.7253C131.613 17.7191 130.32 17.2153 128.666 16.6403C126.293 15.7779 123.275 14.699 123.275 11.6805C123.275 9.16421 125.718 6.43311 129.96 6.43311C132.691 6.43311 135.278 7.4393 136.788 9.16421L134.488 11.6805C133.266 10.243 131.182 9.52432 129.457 9.52432C128.02 9.52432 127.085 10.3868 127.085 11.3219C127.085 12.2569 128.378 12.7593 130.032 13.3342C132.405 14.1967 135.494 15.2755 135.494 18.2215C135.494 21.1674 132.978 23.8274 128.737 23.8274C125.358 23.8274 122.411 22.5337 120.902 20.7362L123.202 18.0762L123.204 18.0793Z" fill="#565656"/>
<path d="M143.329 9.91916H138.297L139.016 6.75684H152.745L152.027 9.84654H146.996L143.975 23.5036H140.238L143.329 9.91916Z" fill="#565656"/>
<path d="M3.23496 3.16233H155.909V27.0266H3.23496V3.16233ZM0 30.2615H158.999V0H0V30.2615Z" fill="#565656"/>
</svg>
