<svg width="77" height="80" viewBox="0 0 77 80" fill="none" xmlns="http://www.w3.org/2000/svg">
<path fill-rule="evenodd" clip-rule="evenodd" d="M37.0524 0.0757546C37.0413 0.117436 37.0319 0.193561 37.0317 0.24494C37.0314 0.296318 37.0009 0.424596 36.9639 0.529945C36.9269 0.635328 36.8968 0.759936 36.897 0.80687C36.8973 0.853804 36.8682 0.990701 36.8324 1.11107C36.7966 1.23143 36.7517 1.40567 36.7327 1.49826C36.6603 1.8508 36.597 2.09716 36.5457 2.22533C36.5164 2.29839 36.4925 2.42566 36.4925 2.50818C36.4925 2.59885 36.4659 2.70181 36.4253 2.76844C36.3833 2.8373 36.3581 2.93823 36.358 3.03735C36.3579 3.12462 36.3275 3.2729 36.2905 3.36687C36.2535 3.46084 36.2236 3.57124 36.2241 3.61221C36.225 3.68918 36.1286 4.11593 36.0173 4.52844C35.9822 4.65806 35.9537 4.80523 35.9537 4.85546C35.9538 4.9057 35.9235 5.02367 35.8865 5.11764C35.8495 5.21161 35.8192 5.33282 35.8192 5.38699C35.8192 5.44116 35.7889 5.56237 35.7518 5.65634C35.7148 5.75031 35.6845 5.86879 35.6845 5.9197C35.6845 5.97057 35.6542 6.09841 35.6171 6.20379C35.5801 6.30914 35.5498 6.44065 35.5498 6.49597C35.5498 6.55129 35.5195 6.67344 35.4825 6.76741C35.4454 6.86138 35.4149 6.98693 35.4147 7.04642C35.4145 7.10591 35.3842 7.25065 35.3474 7.36802C35.3106 7.48543 35.2803 7.62178 35.28 7.67104C35.2798 7.72033 35.2495 7.85669 35.2127 7.97406C35.1759 8.09146 35.1458 8.2358 35.1458 8.29486C35.1458 8.42771 35.063 8.55185 34.9743 8.55185C34.897 8.55185 34.7974 8.49266 34.5377 8.2923C34.4347 8.21284 34.3362 8.14766 34.3188 8.14746C34.3014 8.14729 34.2115 8.08682 34.1189 8.01315C34.0263 7.93948 33.9385 7.87901 33.9238 7.87884C33.9092 7.87864 33.8169 7.81787 33.7188 7.7438C33.6207 7.66973 33.5288 7.60913 33.5146 7.60913C33.5004 7.60913 33.4127 7.54852 33.3197 7.47445C33.2266 7.40038 33.1319 7.33978 33.1092 7.33978C33.0864 7.33978 33.0013 7.28298 32.92 7.21352C32.8387 7.14409 32.7191 7.0581 32.6543 7.02245C32.5895 6.98683 32.5289 6.94727 32.5196 6.93457C32.4941 6.89959 31.9446 6.5322 31.8294 6.47314C31.7739 6.44463 31.7208 6.41008 31.7116 6.39635C31.7023 6.38261 31.4144 6.18322 31.0719 5.9533C30.7293 5.72338 30.3782 5.48466 30.2917 5.42285C30.1911 5.35093 30.1139 5.31831 30.0773 5.33235L30.0202 5.35427L30.0421 5.64839C30.0541 5.81017 30.0781 6.03343 30.0954 6.14454C30.1127 6.25564 30.1432 6.58139 30.1631 6.86841C30.183 7.15544 30.22 7.53421 30.2453 7.71013C30.2705 7.88605 30.3013 8.2421 30.3135 8.50135C30.3258 8.7606 30.3565 9.07119 30.3818 9.19155C30.407 9.31192 30.4365 9.63009 30.4473 9.8986C30.4581 10.1671 30.4891 10.5156 30.5163 10.673C30.5434 10.8304 30.5804 11.1788 30.5985 11.4474C30.6166 11.7159 30.6466 12.0416 30.6652 12.1712C30.6839 12.3009 30.7139 12.5963 30.7319 12.8278C30.75 13.0592 30.7799 13.3244 30.7983 13.417C30.8168 13.5096 30.8382 13.7671 30.846 13.9893L30.86 14.3934L30.8136 14.486C30.788 14.5369 30.7464 14.5785 30.7209 14.5785C30.6756 14.5785 29.9249 14.9498 29.8484 15.01C29.8027 15.0461 29.5175 15.207 29.3716 15.279C29.316 15.3065 29.2403 15.3551 29.2033 15.3872C29.1662 15.4192 29.0677 15.4831 28.9844 15.5291C28.6231 15.7286 28.5599 15.7668 28.4962 15.8243C28.4592 15.8577 28.3656 15.9206 28.2882 15.964C28.2108 16.0075 28.0944 16.0918 28.0296 16.1512C27.9648 16.2107 27.8565 16.2889 27.789 16.3251C27.7216 16.3612 27.6023 16.449 27.524 16.52C27.4456 16.5911 27.3152 16.6929 27.234 16.7464C27.1529 16.7998 26.9867 16.9362 26.8647 17.0494C26.7427 17.1626 26.5533 17.331 26.4437 17.4236C26.0835 17.7281 25.8402 17.9524 25.567 18.2318C25.2184 18.5886 24.488 19.4184 24.3435 19.6219C24.2816 19.709 24.1681 19.8545 24.0912 19.945C24.0144 20.0356 23.9008 20.1871 23.839 20.2817C23.7771 20.3763 23.6934 20.4916 23.653 20.5379C23.6126 20.5842 23.5511 20.6751 23.5164 20.7399C23.4816 20.8047 23.421 20.8956 23.3817 20.9419C23.3424 20.9882 23.2814 21.0791 23.2461 21.1439C23.2109 21.2088 23.1468 21.3046 23.1036 21.357C23.0604 21.4093 23.025 21.4663 23.025 21.4835C23.025 21.5008 22.9446 21.6398 22.8463 21.7924C22.748 21.945 22.6447 22.1153 22.6168 22.1708C22.5377 22.3283 22.501 22.3985 22.4406 22.5075C22.4099 22.5631 22.3157 22.7525 22.2314 22.9284C22.1471 23.1043 22.0639 23.2747 22.0465 23.3072C21.9281 23.5285 21.831 23.7453 21.7261 24.0226C21.6771 24.1522 21.6174 24.2962 21.5934 24.3425C21.5169 24.49 21.4089 24.774 21.4089 24.8277C21.4089 24.8562 21.3787 24.9291 21.3417 24.9898C21.3048 25.0504 21.2745 25.1413 21.2744 25.1918C21.2743 25.2423 21.244 25.3332 21.2071 25.3938C21.1701 25.4544 21.1398 25.5462 21.1397 25.5977C21.1397 25.6492 21.1157 25.7477 21.0865 25.8165C21.0572 25.8854 21.0201 26.0099 21.0039 26.0932C20.9661 26.2874 20.874 26.6533 20.8299 26.7834C20.8112 26.839 20.7816 26.9526 20.7642 27.036C20.7468 27.1193 20.7094 27.2935 20.6811 27.4232C20.6529 27.5528 20.625 27.7043 20.6191 27.7598C20.6133 27.8154 20.6069 27.8717 20.6047 27.8849C20.6026 27.8981 20.5696 27.9257 20.5313 27.9462L20.4617 27.9835L20.382 27.9312C20.2948 27.8741 20.1081 27.7676 20.0079 27.7178C19.8665 27.6475 19.8066 27.6172 19.7423 27.5837C19.4835 27.4483 18.8612 27.2463 18.4629 27.1681C18.2709 27.1305 16.9333 27.1213 16.7394 27.1563C16.6689 27.1691 16.5809 27.1955 16.5438 27.2149C16.5068 27.2344 16.4159 27.2617 16.3418 27.2755C15.9983 27.3397 15.2333 27.6895 14.795 27.983C14.4937 28.1846 13.7003 28.9646 13.6162 29.1417C13.5867 29.2039 13.5269 29.2973 13.4833 29.3491C13.4119 29.434 13.3257 29.5731 13.2349 29.7501C13.2169 29.785 13.1701 29.8763 13.1307 29.9529C13.0913 30.0295 13.0591 30.1105 13.0591 30.133C13.0591 30.1554 13.0365 30.2216 13.0088 30.2799C12.9812 30.3383 12.9368 30.4618 12.9102 30.5543C12.7473 31.1212 12.6795 31.6247 12.697 32.1368C12.7123 32.5818 12.7911 33.1331 12.8722 33.3615C12.9009 33.4425 12.9245 33.541 12.9246 33.5803C12.9246 33.6197 12.9549 33.7015 12.9919 33.7621C13.0289 33.8227 13.0591 33.8939 13.0591 33.9202C13.0591 34.0139 13.4028 34.637 13.602 34.9046C13.6737 35.001 13.7325 35.0905 13.7325 35.1034C13.7325 35.1478 14.4563 35.8615 14.5742 35.9334C14.639 35.9729 14.7692 36.0628 14.8635 36.1332C14.9577 36.2036 15.0472 36.2612 15.0623 36.2612C15.0774 36.2612 15.1394 36.2991 15.2001 36.3454C15.2608 36.3917 15.3271 36.4295 15.3475 36.4295C15.3679 36.4295 15.4238 36.4552 15.4717 36.4866C15.5517 36.539 15.8087 36.6421 15.9715 36.687C16.0085 36.6972 16.0868 36.7269 16.1455 36.753C16.2041 36.7791 16.3253 36.81 16.4148 36.8217C16.5043 36.8334 16.6229 36.8674 16.6785 36.8972L16.7795 36.9514L17.6044 36.9512L18.4293 36.951L18.5093 36.9056C18.5534 36.8807 18.667 36.848 18.7619 36.8331C19.077 36.7835 19.7133 36.5225 20.1127 36.279C20.2053 36.2226 20.3219 36.1555 20.3717 36.1299C20.4215 36.1044 20.5212 36.027 20.5932 35.9578C20.6652 35.8886 20.7567 35.8146 20.7964 35.7933L20.8687 35.7546L20.9368 35.8227C20.9743 35.8602 21.0049 35.9284 21.0049 35.9743C21.0049 36.0545 21.0847 36.3461 21.194 36.6652C21.2225 36.7485 21.2577 36.8729 21.2721 36.9416C21.2866 37.0103 21.3209 37.1012 21.3483 37.1436C21.3758 37.186 21.4095 37.2662 21.4231 37.3218C21.4367 37.3773 21.4671 37.4682 21.4907 37.5238C21.5143 37.5793 21.5669 37.7157 21.6076 37.8268C21.6934 38.0609 21.8041 38.3108 21.906 38.5002C21.926 38.5372 21.9852 38.6734 22.0375 38.8028C22.1802 39.1551 22.5419 39.8547 22.6932 40.0709C22.7275 40.1201 22.7557 40.1782 22.7557 40.2001C22.7557 40.222 22.7983 40.303 22.8503 40.3801C23.1094 40.7641 23.1597 40.8448 23.1597 40.8762C23.1597 40.895 23.2203 40.9906 23.2944 41.0887C23.3685 41.1869 23.4291 41.2782 23.4291 41.2917C23.4291 41.3052 23.4867 41.3871 23.5571 41.4738C23.6276 41.5604 23.7043 41.6701 23.7277 41.7174C23.751 41.7648 23.8188 41.8565 23.8781 41.9213C23.9375 41.9861 24.0351 42.1156 24.0951 42.2091C24.1551 42.3026 24.2361 42.4078 24.2752 42.4429C24.3142 42.478 24.4639 42.6587 24.608 42.8445C24.9453 43.2796 26.4859 44.8191 26.8801 45.115C27.0467 45.2402 27.2119 45.3748 27.2469 45.4141C27.282 45.4534 27.3881 45.5347 27.4826 45.5946C27.5772 45.6546 27.7071 45.7525 27.7715 45.8122C27.8359 45.8719 27.9268 45.9399 27.9735 45.9631C28.0203 45.9864 28.126 46.0589 28.2085 46.1242C28.291 46.1895 28.4122 46.2737 28.4779 46.3113C28.6964 46.4364 28.8179 46.5116 29.1447 46.7237C29.323 46.8395 29.4792 46.9342 29.4919 46.9342C29.5046 46.9342 29.6039 46.9879 29.7126 47.0535C29.9086 47.1718 31.0521 47.7422 31.0933 47.7422C31.1051 47.7422 31.2377 47.8009 31.3879 47.8725C31.5381 47.9442 31.752 48.037 31.8631 48.0787C31.9742 48.1204 32.103 48.1739 32.1493 48.1978C32.1956 48.2216 32.294 48.2523 32.3681 48.2661C32.4422 48.2798 32.5331 48.3107 32.5701 48.3346C32.6072 48.3586 32.6981 48.3928 32.7721 48.4107C32.8462 48.4286 32.9523 48.4592 33.0078 48.4786C33.2407 48.5601 33.6856 48.6852 33.7418 48.6851C33.7751 48.685 33.8435 48.7062 33.8937 48.7322C33.944 48.7582 34.0606 48.7903 34.153 48.8036C34.2453 48.817 34.371 48.8484 34.4323 48.8733C34.4935 48.8984 34.6223 48.9281 34.7185 48.9394C34.8146 48.9508 34.9614 48.9808 35.0448 49.0061C35.1281 49.0315 35.3099 49.0625 35.4488 49.075C35.5877 49.0875 35.7392 49.117 35.7855 49.1404C35.8318 49.1638 36.0742 49.194 36.3242 49.2075C36.5959 49.2222 36.8153 49.2507 36.8696 49.2783L36.9606 49.3246H38.5805C39.6842 49.3246 40.2223 49.313 40.269 49.288C40.3067 49.2678 40.5508 49.2365 40.8116 49.2183C41.0724 49.2002 41.3247 49.1656 41.3722 49.1415C41.4198 49.1174 41.5845 49.087 41.7382 49.074C41.892 49.061 42.0662 49.0307 42.1254 49.0067C42.1846 48.9828 42.3179 48.9537 42.4216 48.9422C42.5252 48.9306 42.6748 48.8984 42.754 48.8704C42.8333 48.8425 42.9422 48.8196 42.9962 48.8196C43.0501 48.8196 43.1537 48.7893 43.2263 48.7523C43.2989 48.7152 43.4005 48.6843 43.4522 48.6835C43.5039 48.6826 43.6067 48.659 43.6808 48.6309C43.7549 48.6029 43.9063 48.5574 44.0173 48.5299C44.1284 48.5024 44.2337 48.4654 44.2513 48.4477C44.269 48.43 44.3189 48.4156 44.3622 48.4156C44.4056 48.4156 44.5004 48.3853 44.573 48.3482C44.6456 48.3112 44.7397 48.2808 44.7821 48.2808C44.8245 48.2807 44.9059 48.2522 44.963 48.2173C45.0201 48.1825 45.1186 48.1429 45.1818 48.1292C45.2451 48.1156 45.4105 48.0515 45.5494 47.9867C45.6883 47.922 45.8928 47.8269 46.0039 47.7753C46.7667 47.4212 47.0205 47.2979 47.2918 47.1499C47.3797 47.102 47.5185 47.0267 47.6001 46.9825C47.7435 46.905 47.8747 46.8222 48.1587 46.6302C48.2328 46.5802 48.3248 46.5294 48.3632 46.5174C48.4016 46.5055 48.4622 46.4689 48.4979 46.4361C48.5336 46.4034 48.6331 46.3316 48.7191 46.2766C48.8896 46.1675 49.2136 45.9449 49.556 45.7015C49.6763 45.6159 49.871 45.4606 49.9885 45.3562C50.106 45.2519 50.2499 45.1371 50.3083 45.1011C50.5464 44.9542 52.3827 43.1198 52.5852 42.8266C52.6555 42.7247 52.7489 42.6021 52.7927 42.5541C52.9745 42.355 53.0576 42.2533 53.0582 42.2293C53.0586 42.2152 53.1408 42.1052 53.241 41.9849C53.3411 41.8645 53.4547 41.7083 53.4932 41.6379C53.5319 41.5674 53.5949 41.4765 53.6333 41.4359C53.6717 41.3952 53.7381 41.2938 53.7808 41.2105C53.8234 41.1272 53.8902 41.0301 53.9293 40.9948C53.9683 40.9596 54.0003 40.9163 54.0003 40.8987C54.0003 40.8811 54.0479 40.7964 54.1062 40.7103C54.2094 40.558 54.2561 40.4798 54.4312 40.1668C54.4777 40.0834 54.5514 39.9684 54.5947 39.9111C54.6381 39.8538 54.6736 39.7946 54.6736 39.7796C54.6736 39.7645 54.785 39.5236 54.9212 39.2441C55.0574 38.9645 55.2109 38.6374 55.2625 38.517C55.314 38.3966 55.4136 38.1769 55.4838 38.0288C55.554 37.8806 55.619 37.7216 55.6282 37.6753C55.6374 37.629 55.6855 37.485 55.7351 37.3554C55.7848 37.2258 55.8452 37.0516 55.8695 36.9682C55.8938 36.8849 55.9391 36.741 55.9701 36.6484C56.0012 36.5558 56.0418 36.4346 56.0603 36.379C56.0789 36.3235 56.1096 36.2098 56.1284 36.1265C56.1922 35.8452 56.2845 35.8212 56.5166 36.0255C56.6007 36.0996 56.684 36.1602 56.7017 36.1602C56.7194 36.1602 56.7741 36.1883 56.8232 36.2226C56.9278 36.2957 57.3049 36.4892 57.5691 36.6053C57.7577 36.6882 58.0258 36.7742 58.4782 36.8969L58.7307 36.9653L59.4883 36.9584L60.2458 36.9514L60.3535 36.8925C60.4128 36.8601 60.5189 36.8335 60.5892 36.8334C60.6596 36.8332 60.7626 36.8094 60.8182 36.7804C60.8737 36.7514 61.0404 36.6877 61.1885 36.639C61.3367 36.5903 61.4981 36.5232 61.5472 36.49C61.5964 36.4567 61.6541 36.4295 61.6753 36.4295C61.7113 36.4295 61.962 36.2704 62.3669 35.9904C62.594 35.8334 63.0731 35.3706 63.2019 35.1838C63.2594 35.1005 63.3223 35.0146 63.3417 34.9931C63.4296 34.8955 63.5444 34.7322 63.6054 34.6181C63.642 34.5496 63.7078 34.4508 63.7517 34.3984C63.7956 34.3461 63.8315 34.2816 63.8315 34.2552C63.8315 34.2288 63.8618 34.1506 63.8988 34.0815C63.9359 34.0124 63.9663 33.9329 63.9663 33.9049C63.9664 33.8768 63.9967 33.8043 64.0337 33.7436C64.0706 33.683 64.1009 33.5959 64.1009 33.5502C64.1009 33.5044 64.1298 33.3798 64.1652 33.2732C64.2583 32.9928 64.3194 32.4996 64.3185 32.0358C64.3176 31.5949 64.2339 30.9487 64.1524 30.7536C64.124 30.6858 64.1009 30.5947 64.1009 30.5512C64.1009 30.5078 64.0706 30.4183 64.0335 30.3523C63.9965 30.2864 63.9662 30.2032 63.9662 30.1676C63.9662 30.0809 63.7165 29.612 63.4819 29.2581C63.1388 28.7407 62.4873 28.1347 61.9177 27.8032C61.4989 27.5595 60.9281 27.3181 60.6835 27.2812C60.6279 27.2728 60.5295 27.2407 60.4646 27.2099L60.3468 27.1538H59.3872H58.4277L58.3199 27.2127C58.2607 27.2451 58.1728 27.2716 58.1247 27.2716C58.0766 27.2716 57.9745 27.3019 57.8979 27.339C57.8212 27.376 57.7311 27.4063 57.6977 27.4063C57.6642 27.4063 57.4085 27.5219 57.1293 27.6632C56.8152 27.8222 56.6097 27.9082 56.5903 27.8887C56.573 27.8715 56.5453 27.7493 56.5288 27.6174C56.5122 27.4854 56.4873 27.359 56.4734 27.3366C56.4595 27.3141 56.4288 27.1956 56.4052 27.0732C56.3256 26.6613 56.2444 26.3484 56.103 25.9081C56.0733 25.8155 56.0376 25.6791 56.0238 25.605C56.01 25.531 55.9733 25.4219 55.9422 25.3626C55.9111 25.3033 55.8857 25.2232 55.8857 25.1845C55.8857 25.1458 55.8554 25.0548 55.8184 24.9822C55.7813 24.9096 55.751 24.8155 55.7509 24.7731C55.7508 24.7307 55.7205 24.6464 55.6836 24.5858C55.6466 24.5251 55.6158 24.4569 55.6152 24.4342C55.6146 24.4116 55.5848 24.3324 55.549 24.2583C55.5132 24.1842 55.4835 24.1065 55.4828 24.0856C55.4816 24.0438 55.3989 23.8718 54.8623 22.7937C54.455 21.9753 54.4349 21.938 54.261 21.676C54.1917 21.5715 54.1349 21.4777 54.1349 21.4676C54.1349 21.4575 54.044 21.313 53.9329 21.1467C53.8218 20.9803 53.7309 20.8299 53.7309 20.8125C53.7309 20.7951 53.6661 20.7073 53.587 20.6173C53.5078 20.5273 53.3995 20.3864 53.3464 20.304C53.2253 20.1162 52.6939 19.4393 52.5525 19.2925C52.5247 19.2637 52.3632 19.0738 52.1936 18.8705C51.8405 18.4474 51.1533 17.7646 50.7354 17.4218C50.5786 17.2932 50.3741 17.1175 50.2809 17.0315C50.1079 16.8718 49.718 16.567 49.3395 16.2956C49.2232 16.2123 49.0793 16.1025 49.0196 16.0516C48.9599 16.0006 48.8917 15.959 48.8679 15.959C48.8442 15.959 48.7559 15.8984 48.6717 15.8243C48.5876 15.7502 48.4998 15.6896 48.4766 15.6896C48.4534 15.6896 48.3848 15.6517 48.3241 15.6054C48.2634 15.5591 48.2032 15.5213 48.1902 15.5213C48.1774 15.5213 48.093 15.4682 48.0027 15.4034C47.9125 15.3386 47.8226 15.2856 47.8029 15.2856C47.7832 15.2856 47.718 15.2482 47.658 15.2025C47.5981 15.1567 47.4969 15.0952 47.433 15.0657C47.3692 15.0363 47.2261 14.9614 47.115 14.8993C46.8669 14.7608 46.644 14.6509 46.3575 14.5258C46.2371 14.4733 46.1171 14.4113 46.0908 14.388L46.0429 14.3458L46.0502 14.016C46.0546 13.8176 46.0375 13.5992 46.0073 13.4675C45.9775 13.3373 45.9482 12.9688 45.935 12.5584C45.9032 11.5638 45.901 11.5233 45.8405 10.875C45.8103 10.5509 45.7706 9.92216 45.7523 9.47774C45.734 9.03331 45.7048 8.52576 45.6873 8.34984C45.6698 8.17392 45.6472 7.69666 45.637 7.28927C45.6267 6.88188 45.5965 6.39705 45.5697 6.21187C45.543 6.0267 45.5117 5.51355 45.5001 5.07158C45.4886 4.62958 45.4583 4.15233 45.4329 4.01102C45.4074 3.86968 45.3766 3.3765 45.3643 2.91507C45.352 2.45364 45.3282 1.99154 45.3112 1.88817C45.2943 1.78481 45.2804 1.56304 45.2803 1.39526C45.2801 1.18537 45.2652 1.06989 45.2323 1.02498C45.2061 0.989051 45.1782 0.967201 45.1704 0.97646C45.1626 0.985685 45.0907 1.12958 45.0106 1.29624C44.9305 1.4629 44.8372 1.63946 44.8032 1.68862C44.7692 1.73778 44.7414 1.79619 44.7414 1.81845C44.7414 1.8407 44.7035 1.9039 44.6572 1.95891C44.6109 2.01393 44.573 2.08507 44.573 2.11699C44.573 2.14891 44.5587 2.18937 44.5412 2.20698C44.5237 2.22456 44.4204 2.4132 44.3116 2.62616C44.2029 2.83911 44.0936 3.05123 44.0688 3.09752C44.044 3.14381 44.0134 3.20442 44.0006 3.23219C43.9879 3.25997 43.96 3.31677 43.9386 3.35845C43.9171 3.40013 43.8868 3.46074 43.8712 3.49313C43.8212 3.59696 43.7766 3.68457 43.7301 3.77089C43.7051 3.81719 43.6098 3.999 43.5182 4.17492C43.176 4.83227 43.0674 5.03704 42.9914 5.16815C42.9485 5.24222 42.8198 5.48463 42.7054 5.70684C42.591 5.92906 42.4796 6.14497 42.4578 6.18662C42.3909 6.31467 42.3417 6.41119 42.312 6.47281C42.2963 6.5052 42.2656 6.5658 42.2436 6.60748C42.056 6.96363 41.8796 7.33028 41.8796 7.36425C41.8795 7.38698 41.8412 7.43065 41.7945 7.46129L41.7095 7.51701L41.6382 7.45364C41.5991 7.4188 41.5423 7.33725 41.5122 7.27244C41.4571 7.15419 41.3455 6.97269 41.1672 6.71142C41.1145 6.63432 41.0715 6.56216 41.0715 6.55112C41.0715 6.54004 40.9904 6.3986 40.8913 6.23676C40.7922 6.07494 40.6886 5.89707 40.6611 5.84152C40.5664 5.65018 40.4587 5.47099 40.3981 5.40383C40.3647 5.36679 40.3043 5.26528 40.2638 5.17828C40.2234 5.09125 40.1688 5.00229 40.1427 4.98054C40.1165 4.95883 40.0951 4.92805 40.0951 4.91216C40.0951 4.88748 40.0043 4.73018 39.8343 4.46029C39.8113 4.4237 39.7607 4.33013 39.722 4.25239C39.6833 4.17462 39.6301 4.09324 39.604 4.07149C39.5778 4.04977 39.5564 4.01799 39.5564 4.00085C39.5564 3.98368 39.5033 3.88678 39.4385 3.78547C39.3737 3.68413 39.3207 3.59161 39.3207 3.57982C39.3207 3.56804 39.2852 3.51151 39.2418 3.45421C39.1654 3.35327 39.0273 3.11954 38.9216 2.91234C38.8933 2.85679 38.7897 2.68649 38.6914 2.53387C38.5931 2.38129 38.5126 2.24574 38.5126 2.23267C38.5126 2.21961 38.4774 2.15507 38.4343 2.08928C38.2067 1.74151 38.1086 1.58061 38.1086 1.55519C38.1086 1.53964 38.0177 1.38893 37.9066 1.22029C37.7955 1.05164 37.7046 0.898516 37.7046 0.879999C37.7046 0.846027 37.6155 0.694854 37.4781 0.495839C37.4369 0.436077 37.3769 0.334162 37.3448 0.26935C37.2722 0.122419 37.167 0 37.1134 0C37.0911 0 37.0636 0.0340727 37.0524 0.0757546ZM29.6409 23.9594C29.5669 23.9878 29.4532 24.0235 29.3884 24.0388C27.4328 24.4989 25.7045 25.9891 25.0493 27.7802C24.8803 28.2424 24.8087 28.618 24.7873 29.1571L24.7678 29.6453L24.8372 30.0493C24.927 30.5721 25.0662 30.9956 25.3131 31.4971C25.5763 32.0319 25.8534 32.4507 26.1726 32.7964C26.3163 32.9521 26.4584 33.1174 26.4883 33.1637C26.5182 33.21 26.6072 33.328 26.6861 33.4259C26.765 33.5239 26.8298 33.6148 26.8301 33.6279C26.8304 33.6411 26.8921 33.72 26.9672 33.8034C27.0424 33.8867 27.2193 34.0988 27.3603 34.2747C27.5014 34.4507 27.718 34.7006 27.8416 34.8303C27.9653 34.9599 28.1547 35.1644 28.2624 35.2848C28.4947 35.5441 29.1752 36.2247 29.6241 36.6467C29.8 36.812 30.0727 37.0698 30.2301 37.2196C30.3876 37.3694 30.6451 37.6001 30.8025 37.7322C30.9599 37.8644 31.133 38.019 31.1871 38.0759L31.2855 38.1793L31.0693 38.4047C30.7027 38.7867 29.1061 40.3788 28.9656 40.5023C28.6902 40.7446 27.9472 41.4333 27.6882 41.6866C27.54 41.8314 27.3847 41.9738 27.3431 42.003C27.3014 42.0321 27.2673 42.0817 27.2673 42.113C27.2673 42.1909 27.8241 42.8127 28.2121 43.1682C30.5715 45.3295 33.5295 46.703 36.7619 47.1378L37.2837 47.208L38.2265 47.2268C39.4946 47.2521 40.4297 47.166 41.5933 46.9167C41.8155 46.8691 42.0655 46.8157 42.1489 46.7979C42.3163 46.7624 42.5896 46.6855 42.8222 46.6087C42.9056 46.5812 43.0419 46.5407 43.1253 46.5186C43.2086 46.4966 43.3099 46.4599 43.3503 46.437C43.3908 46.4142 43.4485 46.3955 43.4787 46.3955C43.5089 46.3955 43.6046 46.3667 43.6914 46.3316C43.7782 46.2964 43.94 46.2337 44.0512 46.1923C44.1623 46.1508 44.3289 46.0828 44.4215 46.041C44.5141 45.9993 44.7414 45.8993 44.9265 45.8189C45.1117 45.7384 45.4122 45.5928 45.5944 45.4953C45.7765 45.3978 45.9375 45.3181 45.9522 45.3181C45.9669 45.3181 45.9985 45.2944 46.0225 45.2655C46.0464 45.2367 46.1202 45.1862 46.1865 45.1533C46.4134 45.0409 46.6437 44.9039 46.7388 44.8248C46.7911 44.7813 46.8477 44.7457 46.8645 44.7457C46.8948 44.7457 47.3278 44.4506 47.5162 44.3015C47.5702 44.2588 47.7089 44.1557 47.8243 44.0723C48.086 43.8834 48.4811 43.5639 48.6806 43.3798C48.7639 43.3029 49.0794 43.0161 49.3817 42.7425L49.9313 42.2449L49.9127 42.1738C49.9025 42.1347 49.3143 41.5192 48.6056 40.806C47.8969 40.0928 47.0311 39.2103 46.6815 38.8448L46.0461 38.1803L46.3778 37.8184C46.7663 37.3944 47.1534 37.0073 47.5038 36.6922C48.3928 35.8933 49.9377 34.2106 50.4482 33.4854C50.5825 33.2946 50.8974 32.8909 51.1031 32.6459C51.2819 32.4328 51.6931 31.6351 51.8774 31.1435C51.9364 30.9861 52.005 30.8119 52.0297 30.7564C52.1051 30.5872 52.2387 30.1008 52.301 29.7685L52.36 29.454L52.3416 29.0446C52.3045 28.218 51.9888 27.2603 51.5239 26.5646C51.2031 26.0846 50.646 25.5474 50.0843 25.1765C49.8956 25.0518 49.7034 24.923 49.6571 24.8903C49.5725 24.8303 49.5299 24.8063 49.2746 24.675C48.7537 24.4073 48.2309 24.1747 48.1462 24.173C48.1161 24.1725 48.0635 24.1508 48.0294 24.125C47.9953 24.0991 47.906 24.0676 47.8311 24.055C47.7561 24.0423 47.6325 24.0037 47.5564 23.9691C47.389 23.8931 47.1726 23.8867 47.0752 23.9549C47.0359 23.9825 46.6802 24.1699 46.2849 24.3714C45.8897 24.5729 45.4375 24.8053 45.2801 24.8879C44.8546 25.1113 44.7904 25.1443 44.6488 25.2126C44.6163 25.2282 44.552 25.2611 44.5057 25.2856C44.4594 25.3101 44.3306 25.3744 44.2195 25.4285C44.1084 25.4825 43.9948 25.5403 43.967 25.557C43.9392 25.5736 43.8634 25.6149 43.7986 25.6487C43.7338 25.6825 43.6429 25.7305 43.5966 25.7554C43.5503 25.7803 43.4897 25.8128 43.4619 25.8277C43.4342 25.8425 43.2827 25.9207 43.1253 26.0014C42.8462 26.1443 42.7232 26.209 42.6202 26.2667C42.5925 26.2822 41.672 26.7416 40.5748 27.2876L38.5799 28.2802L38.1338 28.0661C37.5714 27.7961 35.9854 27.0039 35.5082 26.7546C35.0266 26.503 35.0399 26.5098 34.9438 26.4675C34.8975 26.4471 34.8369 26.4176 34.8091 26.4019C34.7294 26.357 34.5831 26.2822 34.2031 26.0922C34.0086 25.995 33.8093 25.8873 33.7602 25.8528C33.711 25.8184 33.649 25.7902 33.6223 25.7902C33.5956 25.7902 33.5463 25.7599 33.5128 25.7229C33.4793 25.6858 33.426 25.6555 33.3943 25.6555C33.3627 25.6555 33.3006 25.6285 33.2565 25.5956C33.2123 25.5625 33.0928 25.4988 32.991 25.4538C32.8891 25.4089 32.7656 25.345 32.7164 25.3119C32.6673 25.2787 32.609 25.2515 32.587 25.2515C32.5649 25.2515 32.5066 25.2238 32.4575 25.1899C32.4083 25.156 32.2166 25.0521 32.0314 24.959C31.5395 24.7117 30.9616 24.4123 30.9035 24.3744C30.8757 24.3564 30.7545 24.2961 30.6342 24.2405C30.5138 24.1849 30.3193 24.0866 30.202 24.0221C29.9681 23.8934 29.848 23.88 29.6409 23.9594ZM44.3587 28.2644C44.0215 28.3347 43.8153 28.4075 43.5136 28.5628C42.778 28.9413 42.2453 29.5939 41.9919 30.427L41.902 30.7227L41.9014 31.2277L41.9008 31.7327L41.974 32.0021C42.2576 33.0458 43.0379 33.8416 44.0922 34.1623L44.3878 34.2523L44.8929 34.2528L45.3979 34.2534L45.6672 34.1802C46.711 33.8967 47.5068 33.1164 47.8275 32.0621L47.9174 31.7664L47.918 31.2614L47.9186 30.7564L47.8454 30.487C47.5615 29.4422 46.7714 28.6375 45.7272 28.3295L45.4316 28.2423L45.0107 28.2292C44.7279 28.2204 44.514 28.2319 44.3587 28.2644ZM59.1852 29.3933C59.1019 29.4088 58.9622 29.4226 58.8748 29.424C58.7825 29.4254 58.6657 29.4547 58.596 29.4938C58.5301 29.5308 58.4494 29.5611 58.4167 29.5611C58.3841 29.5611 58.2747 29.613 58.1737 29.6764C58.0727 29.7398 57.9375 29.8188 57.8734 29.8519C57.7276 29.9274 57.2325 30.4188 57.1657 30.5543C57.1384 30.6099 57.0816 30.7022 57.0395 30.7595C56.9975 30.8168 56.963 30.885 56.9629 30.911C56.9628 30.9371 56.9388 31.0038 56.9095 31.0594C56.7576 31.3483 56.6948 32.1792 56.7926 32.6081C56.8602 32.9047 57.0317 33.3305 57.1309 33.4482C57.1784 33.5047 57.2386 33.5928 57.2646 33.6441C57.3238 33.7609 57.6266 34.0449 57.8921 34.2326C58.1368 34.4056 58.3524 34.5113 58.6557 34.6069L58.8836 34.6788L59.3795 34.6774L59.8754 34.6761L60.1301 34.6013C60.2701 34.5601 60.4249 34.5001 60.474 34.4679C60.5231 34.4357 60.578 34.4094 60.596 34.4094C60.6718 34.4094 61.1806 34.0343 61.3535 33.8508C61.4567 33.7414 61.5413 33.6403 61.5416 33.6262C61.5418 33.6121 61.6014 33.5136 61.674 33.4073C61.7465 33.301 61.817 33.1686 61.8305 33.1131C61.8441 33.0576 61.8756 32.9823 61.9006 32.9457C61.9256 32.9092 61.9464 32.8259 61.9468 32.7606C61.9472 32.6952 61.9775 32.5757 62.0141 32.495L62.0807 32.3483V32.0532C62.0807 31.8837 62.0603 31.7001 62.0327 31.6219C62.0063 31.5471 61.9737 31.4129 61.9604 31.3236C61.947 31.2344 61.908 31.1115 61.8737 31.0504C61.8394 30.9894 61.8114 30.924 61.8114 30.9051C61.8114 30.8861 61.7284 30.7447 61.627 30.5907C61.4386 30.3046 61.0337 29.8971 60.8518 29.8106C60.7963 29.7842 60.6987 29.7244 60.635 29.6777C60.5713 29.631 60.4804 29.5851 60.433 29.5756C60.3856 29.5661 60.2862 29.53 60.2121 29.4955C60.1343 29.4591 59.9638 29.4247 59.8081 29.414C59.66 29.4037 59.4933 29.3886 59.4377 29.3803C59.3822 29.372 59.2686 29.3779 59.1852 29.3933ZM17.1499 29.4154C16.9378 29.4335 16.3563 29.6516 16.3069 29.7314C16.2954 29.75 16.2197 29.7964 16.1388 29.8345C15.8758 29.9581 15.2818 30.6509 15.2185 30.9079C15.2117 30.9356 15.1808 30.9962 15.15 31.0425C15.1191 31.0888 15.0589 31.2651 15.0162 31.4342L14.9386 31.7418L14.954 32.1245C14.9759 32.6674 15.1124 33.0778 15.433 33.5645C15.7307 34.0163 16.2417 34.3836 16.884 34.6072L17.0894 34.6788H17.6345H18.1795L18.3114 34.6114C18.384 34.5744 18.4857 34.5437 18.5373 34.5433C18.589 34.5429 18.6692 34.513 18.7155 34.4767C18.7617 34.4405 18.8203 34.4106 18.8457 34.4101C18.9075 34.4091 19.3735 34.0599 19.5353 33.8933C19.7717 33.6498 20.0181 33.2509 20.1627 32.8775C20.2713 32.5969 20.3041 31.9687 20.2339 31.5139C20.1375 30.8891 19.7065 30.2355 19.1425 29.8591C18.8539 29.6663 18.6617 29.5611 18.5982 29.5611C18.5686 29.5611 18.4806 29.5282 18.4027 29.4879L18.2609 29.4146L17.7896 29.4078C17.5303 29.404 17.2424 29.4074 17.1499 29.4154ZM31.8916 29.7605C31.6016 29.8391 31.4548 29.9116 31.195 30.1044C30.697 30.4741 30.4044 31.1138 30.4424 31.7496C30.4918 32.5753 31.0073 33.2491 31.7847 33.5037L32.0314 33.5845H32.3849H32.7385L32.9756 33.5099C33.5631 33.325 34.0449 32.8446 34.2401 32.2488L34.3209 32.0021V31.6486V31.2951L34.2463 31.058C34.0644 30.48 33.6064 30.0124 33.0206 29.8069L32.7721 29.7198L32.4523 29.7075L32.1324 29.6953L31.8916 29.7605ZM36.3038 37.9567C35.9755 38.0642 35.7116 38.3351 35.5986 38.6808L35.5409 38.8573L35.5581 39.0722C35.589 39.4563 35.8199 39.7918 36.1727 39.9647L36.341 40.0473L36.6272 40.0481L36.9134 40.0489L37.0809 39.9665C37.2948 39.8612 37.4985 39.6572 37.6036 39.4429L37.6861 39.2745L37.6869 38.9883L37.6878 38.7022L37.6053 38.5347C37.4992 38.319 37.2943 38.1155 37.0817 38.0147C36.8766 37.9173 36.508 37.8898 36.3038 37.9567ZM39.6707 37.9567C39.3424 38.0642 39.0785 38.3351 38.9655 38.6808L38.9077 38.8573L38.925 39.0722C38.9558 39.4563 39.1868 39.7918 39.5395 39.9647L39.7079 40.0473L39.9941 40.0481L40.2803 40.0489L40.4477 39.9665C40.6617 39.8612 40.8654 39.6572 40.9704 39.4429L41.053 39.2745L41.0538 38.9883L41.0546 38.7022L40.9722 38.5347C40.8661 38.319 40.6612 38.1155 40.4486 38.0147C40.2435 37.9173 39.8749 37.8898 39.6707 37.9567ZM66.1552 59.4633C65.924 59.4788 65.6775 59.5145 65.6074 59.5426C65.5373 59.5706 65.4063 59.5936 65.3164 59.5936C65.2264 59.5936 65.0995 59.6158 65.0344 59.6431C64.9692 59.6703 64.8348 59.7069 64.7357 59.7244C64.5428 59.7585 64.3074 59.8335 64.0747 59.9349C63.9955 59.9694 63.9013 59.9976 63.8653 59.9976C63.8293 59.9976 63.7459 60.0279 63.68 60.065C63.6141 60.102 63.5426 60.1323 63.5213 60.1323C63.4472 60.1323 62.5647 60.5568 62.4679 60.639C62.4309 60.6705 62.3248 60.7374 62.2323 60.7879C62.1397 60.8384 62.04 60.9009 62.0107 60.9268C61.9815 60.9528 61.945 60.974 61.9296 60.974C61.9142 60.974 61.8246 61.0321 61.7303 61.1032C61.636 61.1742 61.4983 61.2715 61.4242 61.3195C61.3501 61.3673 61.2294 61.463 61.1558 61.5321C61.0823 61.6011 60.9459 61.7173 60.8528 61.7903C60.5527 62.0257 60.1142 62.4657 59.8536 62.793C59.7139 62.9684 59.5754 63.1321 59.5458 63.1566C59.5162 63.1812 59.4421 63.2797 59.3812 63.3755C59.3203 63.4713 59.2424 63.58 59.2081 63.617C59.1738 63.654 59.1161 63.7417 59.08 63.8119C59.0438 63.882 58.9832 63.975 58.9454 64.0185C58.8486 64.1298 58.5288 64.7436 58.2334 65.3846C58.195 65.4679 58.1359 65.5912 58.1021 65.6585C58.0682 65.7259 58.0405 65.8138 58.0405 65.8538C58.0405 65.8939 58.0194 65.9676 57.9936 66.0176C57.924 66.1524 57.7711 66.6214 57.7711 66.7001C57.7711 66.7376 57.7502 66.8093 57.7246 66.8593C57.699 66.9093 57.6674 67.0335 57.6544 67.1354C57.6415 67.2372 57.6095 67.3949 57.5834 67.4857C57.5573 67.5766 57.5277 67.7584 57.5176 67.8898C57.5075 68.0211 57.4758 68.3225 57.4471 68.5594C57.3656 69.2342 57.4444 70.8442 57.5843 71.3608C57.6094 71.4534 57.6402 71.62 57.6527 71.7312C57.6653 71.8423 57.6971 71.9667 57.7234 72.0078C57.7496 72.0488 57.7711 72.1214 57.7711 72.1693C57.7711 72.2171 57.8014 72.319 57.8385 72.3956C57.8755 72.4723 57.9058 72.5631 57.9058 72.5974C57.9058 72.6317 57.9361 72.7191 57.9732 72.7917C58.0102 72.8643 58.0405 72.9563 58.0405 72.9962C58.0405 73.0361 58.0685 73.1238 58.1028 73.1912C58.1717 73.3267 58.2643 73.525 58.4822 74.0038C58.5622 74.1797 58.6774 74.4025 58.7381 74.4988C58.7988 74.5951 58.8485 74.6813 58.8485 74.6902C58.8485 74.7118 59.1771 75.2006 59.2947 75.354C59.3456 75.4204 59.3872 75.4859 59.3872 75.4995C59.3872 75.5198 59.6952 75.8982 59.7592 75.9566C59.7694 75.9658 59.8133 76.0264 59.8568 76.0913C59.9666 76.2547 60.6831 76.9606 60.9074 77.1263C61.009 77.2014 61.1895 77.3477 61.3084 77.4514C61.4274 77.5551 61.54 77.6402 61.5586 77.6404C61.5773 77.6406 61.6683 77.701 61.7609 77.7747C61.8535 77.8484 61.9407 77.9088 61.9548 77.909C61.9689 77.9092 62.1052 77.9898 62.2578 78.0881C62.4104 78.1864 62.5807 78.2897 62.6363 78.3176C62.6918 78.3455 62.7676 78.3849 62.8046 78.4051C63.0492 78.5384 63.4351 78.7174 63.478 78.7174C63.5062 78.7174 63.5934 78.7465 63.672 78.782C63.8954 78.8831 64.6188 79.1214 64.7023 79.1214C64.7437 79.1214 64.8191 79.1429 64.8699 79.1692C64.9207 79.1954 65.0768 79.2328 65.2169 79.2523C65.3569 79.2718 65.5154 79.3047 65.569 79.3254C65.6531 79.3579 65.9148 79.3847 66.7124 79.4427C66.8062 79.4495 66.9198 79.4681 66.9649 79.484C67.0137 79.5012 67.2172 79.4954 67.4677 79.4695C67.6992 79.4456 68.078 79.4118 68.3094 79.3944C68.5409 79.3769 68.7909 79.341 68.865 79.3145C68.9391 79.288 69.0971 79.2564 69.2162 79.2443C69.3353 79.2321 69.4673 79.1995 69.5096 79.1718C69.5519 79.1441 69.632 79.1214 69.6875 79.1214C69.7431 79.1214 69.8383 79.1 69.8992 79.0738C70.0068 79.0274 70.3448 78.9129 70.5484 78.8538C70.7011 78.8095 71.33 78.5386 71.5575 78.419C71.6681 78.3609 71.7693 78.3134 71.7823 78.3134C71.7954 78.3134 71.8943 78.2542 72.0021 78.1818C72.11 78.1095 72.38 77.9327 72.6022 77.7889C72.9678 77.5524 73.0824 77.4646 73.4103 77.1698C73.4658 77.1198 73.587 77.0241 73.6796 76.9571C73.8533 76.8313 74.2547 76.421 74.483 76.1358C74.5545 76.0465 74.6967 75.8785 74.799 75.7624C74.9013 75.6463 75.0141 75.497 75.0498 75.4305C75.0854 75.364 75.1515 75.2697 75.1967 75.221C75.2419 75.1723 75.2789 75.1185 75.2789 75.1014C75.2789 75.0844 75.3395 74.9902 75.4136 74.8921C75.4876 74.794 75.5482 74.6955 75.5482 74.6734C75.5482 74.6512 75.5835 74.5861 75.6267 74.5288C75.7063 74.4233 75.8312 74.1858 76.0005 73.8186C76.0517 73.7075 76.1217 73.556 76.1559 73.4819C76.1903 73.4079 76.251 73.2563 76.291 73.1452C76.331 73.0341 76.3923 72.8784 76.4273 72.7992C76.4623 72.72 76.4909 72.6246 76.4909 72.5872C76.4909 72.5497 76.512 72.4781 76.5376 72.4281C76.5633 72.3781 76.6025 72.2486 76.6248 72.1404C76.6471 72.0322 76.6845 71.8958 76.7078 71.8374C76.7311 71.779 76.7533 71.6575 76.757 71.5674C76.7607 71.4773 76.7846 71.3712 76.8101 71.3317C76.837 71.2899 76.8719 71.0728 76.8937 70.8127C76.9142 70.5669 76.9471 70.3244 76.9667 70.274C76.9882 70.2187 77.0016 69.8792 77.0005 69.4166L76.9988 68.6509L76.9512 68.5076C76.9251 68.4288 76.8932 68.1912 76.8803 67.9796C76.8667 67.7561 76.8367 67.5558 76.8086 67.5015C76.7821 67.4501 76.7603 67.3473 76.7603 67.273C76.7603 67.1987 76.73 67.061 76.693 66.967C76.6559 66.8731 76.6256 66.7475 76.6255 66.688C76.6254 66.6285 76.5951 66.5303 76.5582 66.4696C76.5212 66.409 76.4909 66.3201 76.4909 66.2722C76.4909 66.2242 76.4621 66.1299 76.4268 66.0626C76.3916 65.9952 76.3289 65.8417 76.2876 65.7213C76.1718 65.3841 75.7489 64.4963 75.6115 64.302C75.5767 64.2529 75.5482 64.1911 75.5482 64.1648C75.5482 64.1385 75.5129 64.0838 75.4698 64.0432C75.4266 64.0027 75.3592 63.9053 75.32 63.8267C75.2808 63.7482 75.2214 63.6537 75.188 63.6168C75.1547 63.5799 75.0833 63.4815 75.0294 63.3982C74.9756 63.3148 74.8233 63.1254 74.691 62.9773C74.5587 62.8292 74.4005 62.6432 74.3393 62.564C74.2004 62.3842 73.9753 62.158 73.7708 61.9929C73.5533 61.8174 73.4381 61.72 73.2603 61.5616C73.0837 61.4043 72.5049 60.974 72.4698 60.974C72.4568 60.974 72.3966 60.9361 72.3359 60.8898C72.2752 60.8435 72.2143 60.8057 72.2007 60.8057C72.1871 60.8057 72.0976 60.7541 72.0019 60.6911C71.8388 60.5837 71.3475 60.3272 71.1208 60.2311C70.8003 60.0953 70.2404 59.8964 69.9087 59.8006C69.7791 59.7631 69.567 59.701 69.4374 59.6626C69.3077 59.6241 69.1368 59.5929 69.0575 59.5931C68.9782 59.5934 68.857 59.57 68.7882 59.5412C68.5495 59.4412 67.1129 59.3987 66.1552 59.4633ZM4.81028 60.1652C4.72695 60.1784 4.61992 60.2052 4.57241 60.2248C4.52491 60.2445 4.39612 60.2714 4.28623 60.2847C4.17633 60.298 4.06832 60.3234 4.0462 60.341C4.02412 60.3586 3.93321 60.3937 3.84419 60.4188C3.63992 60.4767 3.47047 60.5416 3.36253 60.6033C3.31623 60.6298 3.17809 60.7051 3.05554 60.7706C2.56525 61.0329 2.12877 61.3671 1.72959 61.7859C1.3823 62.1503 1.1647 62.4088 1.08093 62.5564C1.04417 62.6213 0.950097 62.7863 0.871918 62.9232C0.704181 63.2169 0.534659 63.5757 0.533615 63.6393C0.533211 63.6641 0.503246 63.7222 0.467019 63.7685C0.430791 63.8148 0.400826 63.9016 0.400422 63.9613C0.400018 64.021 0.369447 64.1195 0.332478 64.1801C0.29009 64.2496 0.265208 64.3499 0.265141 64.4515C0.26504 64.548 0.241405 64.6486 0.206086 64.7025L0.147166 64.7924L0.148311 65.7198L0.149455 66.6472L0.207231 66.7945C0.239014 66.8755 0.26568 66.9892 0.266488 67.047C0.267296 67.1049 0.291066 67.2128 0.31928 67.2869C0.347528 67.361 0.384194 67.4756 0.400759 67.5416C0.417324 67.6077 0.45409 67.7061 0.482405 67.7604C0.510754 67.8148 0.534019 67.8799 0.534154 67.9052C0.534255 67.9304 0.566577 68.0138 0.605936 68.0904C0.645295 68.167 0.68839 68.2523 0.701689 68.2801C0.714989 68.3079 0.743371 68.3647 0.764784 68.4064C0.786198 68.4481 0.82027 68.5145 0.840539 68.5541C0.936764 68.7421 1.01757 68.8752 1.07265 68.9367C1.10588 68.9737 1.18106 69.0829 1.23975 69.1793L1.34644 69.3547L1.14241 69.6602C1.03019 69.8283 0.93838 69.9725 0.93838 69.9808C0.93838 69.9891 0.887844 70.0757 0.826096 70.1733C0.722598 70.3368 0.636238 70.5091 0.458601 70.9063C0.42133 70.9896 0.362544 71.1138 0.327933 71.1823C0.293321 71.2508 0.265006 71.346 0.265006 71.3939C0.265006 71.4418 0.24154 71.5169 0.21282 71.5607C0.184135 71.6045 0.151712 71.7516 0.140837 71.8877C0.129928 72.0238 0.0985483 72.1796 0.0711083 72.2339L0.0212454 72.3327L0.0106057 72.9073L0 73.4819L0.0490553 73.6503C0.076024 73.7429 0.113599 73.9305 0.132554 74.0673C0.15151 74.2041 0.189084 74.3586 0.216019 74.4107C0.242954 74.4629 0.265074 74.5479 0.265141 74.5997C0.265208 74.6516 0.29551 74.7436 0.332478 74.8042C0.369447 74.8649 0.399681 74.939 0.399681 74.9689C0.399681 75.0208 0.432003 75.0986 0.628258 75.5189C0.675832 75.6207 0.802931 75.8388 0.910738 76.0035C1.01851 76.1682 1.10672 76.3134 1.10672 76.3264C1.10672 76.361 1.55307 76.8455 1.84565 77.1284C1.98551 77.2636 2.20025 77.4415 2.3228 77.5236C2.44536 77.6058 2.56465 77.6959 2.58784 77.7238C2.61108 77.7518 2.65239 77.7747 2.67966 77.7747C2.70693 77.7747 2.76949 77.8024 2.81864 77.8364C2.8678 77.8703 3.04436 77.9639 3.21102 78.0444C3.37768 78.1249 3.56912 78.2183 3.63646 78.252C3.70379 78.2858 3.7915 78.3134 3.8314 78.3134C3.87129 78.3134 3.96331 78.3437 4.0359 78.3807C4.10849 78.4178 4.22677 78.4481 4.29875 78.4481C4.3707 78.4481 4.48114 78.4746 4.54416 78.507L4.65877 78.5659L9.36306 78.5753L14.0674 78.5848L14.0859 78.508C14.0961 78.4658 14.1003 74.3178 14.0952 69.2902L14.086 60.1491L9.5239 60.1452C7.01474 60.143 4.89361 60.152 4.81028 60.1652ZM17.822 60.1744C17.8132 60.1975 17.8099 64.3451 17.8146 69.3912L17.8232 78.5659L19.7722 78.5746L21.7212 78.5833L21.7671 78.5452L21.813 78.5071V69.3601V60.2131L21.7726 60.1727L21.7322 60.1323H19.7851H17.8379L17.822 60.1744ZM25.5156 60.1564C25.5049 60.4465 25.4981 78.5113 25.5086 78.5406L25.5237 78.5827H27.4662H29.4086L29.449 78.5423L29.4894 78.5019V76.2233V73.9447L29.5354 73.9066L29.5813 73.8685L31.2101 73.8772L32.839 73.886L32.9024 74.0206C32.9373 74.0947 32.9724 74.2159 32.9804 74.29C32.9984 74.4571 33.1105 74.9573 33.1961 75.2519C33.2314 75.3736 33.2603 75.5103 33.2603 75.5556C33.2603 75.601 33.2888 75.7438 33.3237 75.8731C33.3585 76.0023 33.3959 76.1892 33.4067 76.2884C33.4175 76.3876 33.4431 76.489 33.4637 76.5137C33.4842 76.5384 33.5161 76.6694 33.5346 76.8047C33.553 76.9401 33.5898 77.0844 33.6162 77.1254C33.6427 77.1664 33.6644 77.2428 33.6644 77.2951C33.6644 77.3474 33.6892 77.4805 33.7196 77.5909C33.75 77.7012 33.7865 77.8673 33.8007 77.9599C33.8258 78.1234 33.9115 78.4131 33.9651 78.5154L33.9916 78.5659L35.8565 78.5752C36.8822 78.5804 37.7569 78.5759 37.8003 78.5654L37.8792 78.5462L37.8555 78.3372C37.8425 78.2222 37.8106 78.0766 37.7845 78.0134C37.7585 77.9503 37.7214 77.7912 37.702 77.6599C37.6826 77.5286 37.6462 77.353 37.621 77.2697C37.5959 77.1863 37.566 77.0424 37.5546 76.9498C37.5432 76.8572 37.5133 76.7284 37.4882 76.6636C37.463 76.5988 37.4264 76.4549 37.4068 76.3438C37.3571 76.0619 37.2467 75.5859 37.2076 75.4852C37.1896 75.4389 37.1638 75.3101 37.1502 75.199C37.1365 75.0879 37.1087 74.9667 37.0882 74.9297C37.0677 74.8926 37.0403 74.779 37.0273 74.6772C37.0143 74.5753 36.9811 74.4087 36.9534 74.3068C36.8753 74.0197 36.7885 73.6399 36.7418 73.3809C36.7184 73.2513 36.6758 73.0635 36.647 72.9635C36.5795 72.7286 36.6048 72.64 36.7747 72.5171C36.946 72.3932 37.3975 71.9852 37.5885 71.7817C37.6667 71.6983 37.8018 71.5544 37.8888 71.4618C37.9758 71.3692 38.0858 71.2329 38.1334 71.1588C38.1809 71.0847 38.2841 70.9408 38.3627 70.8389C38.4412 70.7371 38.5152 70.621 38.5272 70.581C38.5391 70.541 38.5711 70.49 38.5981 70.4675C38.6252 70.445 38.6477 70.402 38.6481 70.3719C38.6485 70.3417 38.6784 70.2792 38.7147 70.2329C38.7509 70.1866 38.7812 70.126 38.782 70.0982C38.7828 70.0704 38.8131 70.0098 38.8493 69.9636C38.8856 69.9173 38.916 69.8491 38.9171 69.812C38.9181 69.775 38.9482 69.6841 38.984 69.61C39.0198 69.536 39.0501 69.4526 39.0513 69.4249C39.0525 69.3971 39.0757 69.3449 39.1029 69.309C39.1301 69.273 39.1524 69.2167 39.1524 69.1838C39.1524 69.1509 39.1902 69.0079 39.2365 68.8661C39.2828 68.7242 39.3207 68.5488 39.3207 68.4762C39.3207 68.4035 39.3469 68.2956 39.3789 68.2363L39.4372 68.1286L39.4379 67.0512L39.4385 65.9738L39.3796 65.83C39.3472 65.751 39.3207 65.6176 39.3207 65.5338C39.3207 65.4499 39.2953 65.3328 39.2642 65.2735C39.2331 65.2142 39.1966 65.1052 39.183 65.0311C39.154 64.8737 39.0724 64.6349 38.9585 64.3745C38.9139 64.2727 38.8654 64.1591 38.8507 64.122C38.7817 63.9484 38.5875 63.5661 38.4882 63.4082C38.4276 63.3119 38.378 63.2184 38.378 63.2006C38.378 63.1827 38.3665 63.163 38.3525 63.1569C38.3141 63.14 38.1086 62.8709 38.1086 62.8375C38.1086 62.7418 37.0274 61.6504 36.7619 61.4781C36.6785 61.424 36.5909 61.3632 36.5671 61.3429C36.3167 61.1288 35.2033 60.5363 35.0514 60.5363C35.0116 60.5363 34.9295 60.5061 34.8688 60.4691C34.8082 60.4321 34.7164 60.4018 34.6648 60.4018C34.6132 60.4017 34.5364 60.379 34.4942 60.3513C34.4519 60.3236 34.3198 60.2909 34.2007 60.2788C34.0816 60.2667 33.9236 60.2326 33.8495 60.203L33.7149 60.1493L29.6157 60.1396C27.3611 60.1343 25.5161 60.1419 25.5156 60.1564ZM44.2038 60.1974C44.1847 60.2332 44.169 60.3018 44.169 60.3498C44.169 60.3977 44.1387 60.5232 44.1017 60.6286C44.0646 60.734 44.0343 60.8759 44.0343 60.9439C44.0343 61.012 44.0043 61.1337 43.9677 61.2144C43.9311 61.2951 43.9008 61.4261 43.9004 61.5054C43.9 61.5847 43.8792 61.6986 43.8542 61.7585C43.8291 61.8184 43.798 61.9429 43.7849 62.0351C43.7719 62.1274 43.7318 62.2901 43.6957 62.3966C43.6598 62.5032 43.6303 62.6441 43.6303 62.7098C43.6303 62.7754 43.6078 62.8725 43.5804 62.9256C43.553 62.9786 43.5205 63.1104 43.5083 63.2185C43.4961 63.3266 43.4579 63.4875 43.4235 63.5762C43.3891 63.6648 43.3609 63.8026 43.3609 63.8823C43.3609 63.9621 43.3306 64.1154 43.2936 64.223C43.2566 64.3307 43.2263 64.4675 43.2263 64.5271C43.2263 64.5867 43.204 64.6986 43.1767 64.7758C43.1495 64.8531 43.1172 64.9951 43.105 65.0915C43.0929 65.1879 43.0614 65.3195 43.0352 65.384C43.009 65.4484 42.9748 65.5848 42.9592 65.687C42.932 65.8655 42.8593 66.1947 42.7845 66.4788C42.765 66.5529 42.7338 66.7044 42.715 66.8155C42.6963 66.9266 42.6644 67.0478 42.6441 67.0849C42.6238 67.1219 42.589 67.2583 42.5667 67.3879C42.5267 67.6211 42.4676 67.8896 42.3628 68.3138C42.3331 68.4342 42.3022 68.5781 42.2941 68.6336C42.2723 68.785 42.1526 69.3091 42.079 69.5764C42.0432 69.706 42.014 69.8541 42.0141 69.9055C42.0142 69.9568 41.9839 70.0851 41.9469 70.1905C41.9098 70.2959 41.8795 70.44 41.8795 70.5108C41.8795 70.5817 41.8492 70.699 41.8122 70.7716C41.7739 70.8466 41.7448 70.97 41.7448 71.0576C41.7448 71.1424 41.7232 71.2452 41.6968 71.2862C41.6703 71.3272 41.633 71.4749 41.6139 71.6144C41.5949 71.7538 41.5559 71.9238 41.5274 71.9921C41.4988 72.0603 41.4755 72.1646 41.4755 72.2237C41.4755 72.2829 41.4531 72.4084 41.4258 72.5026C41.3803 72.6592 41.3555 72.7756 41.2382 73.3809C41.2167 73.492 41.1704 73.6779 41.1353 73.7941C41.1002 73.9102 41.071 74.0466 41.0704 74.0971C41.0698 74.1476 41.04 74.2723 41.0041 74.3742C40.9683 74.476 40.9385 74.6169 40.9379 74.6873C40.9373 74.7576 40.9143 74.8586 40.8869 74.9116C40.8595 74.9647 40.8272 75.0965 40.8152 75.2046C40.8031 75.3126 40.7742 75.448 40.751 75.5053C40.7278 75.5627 40.6978 75.6915 40.6844 75.7915C40.671 75.8916 40.6384 76.0259 40.612 76.09C40.5855 76.1541 40.5545 76.298 40.543 76.4098C40.5316 76.5216 40.5025 76.6435 40.4785 76.6806C40.4545 76.7177 40.4205 76.854 40.4029 76.9836C40.358 77.3139 40.2665 77.7553 40.1934 77.9935C40.1593 78.1046 40.127 78.2789 40.1217 78.3807L40.1119 78.5659L42.0351 78.5746L43.9583 78.5833L43.9917 78.5409C44.0414 78.4779 44.169 78.0465 44.169 77.9416C44.169 77.8915 44.1913 77.7873 44.2186 77.7101C44.2458 77.6328 44.2785 77.4908 44.2913 77.3944C44.3041 77.298 44.342 77.1586 44.3757 77.0845C44.4094 77.0104 44.4372 76.8849 44.4376 76.8055C44.438 76.7262 44.4603 76.6277 44.4871 76.5867C44.5139 76.5457 44.5463 76.4061 44.5591 76.2764C44.5718 76.1468 44.6035 75.9987 44.6294 75.9474C44.6553 75.896 44.6844 75.7748 44.694 75.678C44.7035 75.5812 44.7346 75.4296 44.7631 75.3411C44.7915 75.2526 44.8268 75.1011 44.8416 75.0044C44.8563 74.9078 44.8918 74.7302 44.9204 74.6098C44.9491 74.4895 44.9897 74.3043 45.0106 74.1984C45.0316 74.0925 45.0743 73.9745 45.1055 73.9363L45.1622 73.8666L48.1321 73.8684C49.7655 73.8694 51.1265 73.8796 51.1564 73.8911C51.2259 73.9177 51.2735 74.0392 51.306 74.2731C51.3202 74.375 51.3562 74.5568 51.386 74.6772C51.5215 75.2236 51.5497 75.3512 51.5935 75.6145C51.6192 75.7689 51.6542 75.9128 51.6714 75.9344C51.6885 75.9558 51.7134 76.0643 51.7269 76.1754C51.7403 76.2865 51.7674 76.4076 51.787 76.4444C51.8067 76.4813 51.8413 76.6101 51.8639 76.7306C51.9451 77.1637 51.9885 77.3571 52.049 77.5558C52.0829 77.6669 52.1169 77.8336 52.1244 77.9262C52.1374 78.0846 52.222 78.4035 52.2808 78.5154L52.3073 78.5659L54.2687 78.5746L56.2301 78.5833L56.2096 78.4736C56.1982 78.4133 56.1745 78.273 56.1569 78.1619C56.1393 78.0508 56.102 77.8993 56.0741 77.8252C56.0462 77.7511 56.0227 77.6502 56.0219 77.6009C56.021 77.5517 55.9903 77.4153 55.9535 77.2979C55.9167 77.1805 55.8857 77.0163 55.8847 76.933C55.8836 76.8496 55.8593 76.7209 55.8307 76.6468C55.8021 76.5727 55.765 76.4212 55.7483 76.3101C55.7315 76.199 55.6966 76.0551 55.6707 75.9902C55.6448 75.9254 55.6077 75.7815 55.5883 75.6704C55.5322 75.3489 55.4792 75.1132 55.4142 74.896C55.3809 74.7849 55.3454 74.6153 55.3353 74.5191C55.3252 74.4228 55.2934 74.2986 55.2646 74.2429C55.2359 74.1873 55.2127 74.107 55.2132 74.0644C55.2141 73.985 55.122 73.57 55.0075 73.1375C54.972 73.0037 54.943 72.8408 54.943 72.7757C54.943 72.7106 54.9138 72.5701 54.878 72.4636C54.8423 72.357 54.8027 72.1865 54.7899 72.0847C54.7772 71.9828 54.7477 71.8616 54.7245 71.8153C54.7012 71.769 54.6715 71.6429 54.6584 71.5352C54.6452 71.4274 54.615 71.291 54.5912 71.2322C54.5673 71.1733 54.538 71.0367 54.5259 70.9286C54.5139 70.8206 54.4837 70.6918 54.4588 70.6424C54.434 70.5931 54.4037 70.4643 54.3915 70.3563C54.3793 70.2482 54.3469 70.1164 54.3195 70.0633C54.2921 70.0103 54.2696 69.9325 54.2696 69.8906C54.2696 69.8486 54.2404 69.6925 54.2048 69.5438C54.1003 69.1083 54.0271 68.7837 53.9805 68.5495C53.8916 68.103 53.8275 67.8214 53.7806 67.6715C53.754 67.5867 53.7182 67.4179 53.7009 67.2962C53.6837 67.1745 53.6548 67.0469 53.6368 67.0126C53.6187 66.9783 53.5933 66.8572 53.5804 66.7436C53.5674 66.63 53.5358 66.4964 53.5101 66.4468C53.4843 66.3972 53.4541 66.2781 53.4428 66.1821C53.4316 66.0861 53.4008 65.9503 53.3746 65.8805C53.3484 65.8107 53.3269 65.7042 53.3269 65.6437C53.3269 65.5833 53.2966 65.4476 53.2595 65.3422C53.2225 65.2368 53.1924 65.1086 53.1927 65.0572C53.1929 65.0058 53.1639 64.8653 53.128 64.7449C53.0922 64.6245 53.0483 64.4503 53.0304 64.3577C53.0125 64.2651 52.9577 64.0076 52.9085 63.7853C52.8594 63.5631 52.8035 63.2904 52.7843 63.1793C52.7651 63.0682 52.7298 62.9243 52.7058 62.8595C52.6818 62.7946 52.6511 62.6507 52.6375 62.5396C52.624 62.4286 52.5937 62.2998 52.5701 62.2535C52.5466 62.2071 52.5167 62.081 52.5036 61.9733C52.4904 61.8655 52.4582 61.7258 52.4319 61.6629C52.4057 61.6 52.3842 61.5027 52.3842 61.4466C52.3842 61.3905 52.3547 61.2575 52.3187 61.1509C52.2826 61.0443 52.2467 60.8814 52.2387 60.7888C52.2261 60.6416 52.1872 60.5016 52.0773 60.208L52.0489 60.1323H48.1438H44.2387L44.2038 60.1974ZM67.0942 61.2914C67.0832 61.3024 66.8184 61.3201 66.5058 61.3307C66.1305 61.3434 65.8913 61.3669 65.8019 61.3999C65.7274 61.4274 65.5756 61.463 65.4644 61.479C64.8779 61.5637 63.6748 62.0357 63.2822 62.3351C63.2198 62.3828 63.1549 62.4219 63.1381 62.4221C63.1103 62.4225 62.9439 62.5346 62.3426 62.9577C62.0698 63.1497 61.1955 64.0257 61.0017 64.3014C60.4112 65.141 60.348 65.2366 60.2191 65.4856C60.176 65.5689 60.1227 65.6712 60.1006 65.7129C60.0786 65.7546 60.0478 65.8151 60.0322 65.8476C60.0166 65.88 59.9881 65.9368 59.9688 65.9738C59.9496 66.0108 59.901 66.1321 59.8609 66.2432C59.8208 66.3543 59.7584 66.5058 59.7222 66.5798C59.686 66.6539 59.6565 66.7492 59.6565 66.7916C59.6566 66.834 59.6284 66.9249 59.594 66.9936C59.5596 67.0623 59.5219 67.1918 59.5101 67.2812C59.4984 67.3707 59.4672 67.4919 59.4408 67.5506C59.4144 67.6093 59.3825 67.7482 59.37 67.8593C59.3575 67.9704 59.3233 68.1522 59.294 68.2633L59.2409 68.4653L59.2403 69.4754L59.2398 70.4854L59.2835 70.5864C59.3075 70.642 59.3469 70.8162 59.3712 70.9736C59.3954 71.131 59.4386 71.3204 59.4671 71.3945C59.4956 71.4685 59.5196 71.5714 59.5204 71.6231C59.5212 71.6747 59.5522 71.7764 59.5893 71.849C59.6263 71.9216 59.6566 72.0182 59.6566 72.0638C59.6566 72.1093 59.6779 72.1895 59.704 72.2419C59.7302 72.2943 59.7854 72.4205 59.8269 72.5224C59.8683 72.6242 59.9379 72.7848 59.9814 72.8793C60.025 72.9737 60.061 73.0646 60.0614 73.0813C60.0618 73.0979 60.0917 73.1495 60.128 73.1957C60.1642 73.242 60.1941 73.2986 60.1946 73.3214C60.195 73.3441 60.2483 73.4457 60.3131 73.547C60.3779 73.6483 60.431 73.7448 60.431 73.7613C60.431 73.7778 60.4607 73.8183 60.497 73.8511C60.5334 73.884 60.5942 73.9705 60.6321 74.0434C60.7046 74.1825 60.7384 74.2288 60.8564 74.3505C60.8959 74.3913 60.9701 74.4928 61.0213 74.5762C61.1473 74.7811 62.117 75.7594 62.3489 75.9154C62.4514 75.9844 62.5428 76.0487 62.5521 76.0585C62.6019 76.1108 62.8517 76.2933 62.8736 76.2933C62.8877 76.2933 62.9489 76.3311 63.0096 76.3774C63.0703 76.4237 63.1293 76.4616 63.1407 76.4616C63.152 76.4616 63.2443 76.5146 63.3456 76.5795C63.4469 76.6443 63.5514 76.6973 63.5776 76.6973C63.604 76.6973 63.633 76.7093 63.6421 76.7241C63.6845 76.7927 64.359 77.0822 64.8079 77.2244C64.8912 77.2508 65.0049 77.2886 65.0604 77.3085C65.116 77.3283 65.2751 77.3627 65.4139 77.3849C65.5528 77.4071 65.7001 77.4435 65.7412 77.4659C65.7823 77.4883 66.0096 77.516 66.2462 77.5274C66.4829 77.5389 66.7055 77.5632 66.741 77.5814C66.848 77.6366 67.4316 77.6438 67.6192 77.5923C67.7118 77.5669 67.9678 77.5362 68.1881 77.5241C68.431 77.5107 68.6257 77.4828 68.683 77.4532C68.735 77.4263 68.8204 77.4043 68.8728 77.4043C68.9252 77.4043 69.051 77.3809 69.1522 77.3522C69.2535 77.3235 69.3991 77.2864 69.4758 77.2697C69.5526 77.253 69.6662 77.2083 69.7284 77.1705C69.7905 77.1326 69.875 77.1015 69.9162 77.1014C69.9825 77.1013 70.1837 77.0241 70.3801 76.9233C70.4171 76.9043 70.4739 76.876 70.5063 76.8604C70.5388 76.8448 70.5993 76.814 70.641 76.7919C70.6827 76.7699 70.7849 76.7168 70.8683 76.6739C70.9516 76.631 71.1107 76.5368 71.2218 76.4645C71.3329 76.3923 71.4815 76.3013 71.5519 76.2623C71.6224 76.2233 71.7133 76.1603 71.754 76.1223C71.7946 76.0844 71.9094 75.999 72.0092 75.9327C72.4342 75.6502 73.5414 74.4567 73.776 74.0281C73.7986 73.987 73.8997 73.8242 74.0008 73.6664C74.1019 73.5086 74.2203 73.3041 74.2638 73.2118C74.342 73.0463 74.3736 72.9827 74.4348 72.8675C74.452 72.8351 74.4989 72.7177 74.539 72.6065C74.5791 72.4954 74.6395 72.3439 74.6732 72.2699C74.7069 72.1958 74.7434 72.0822 74.7543 72.0173C74.7653 71.9525 74.7968 71.8561 74.8245 71.8031C74.8522 71.75 74.8749 71.644 74.875 71.5674C74.875 71.4877 74.9038 71.381 74.9423 71.3179L75.0095 71.2077V70.988C75.0095 70.8422 75.0294 70.732 75.0684 70.6605L75.1274 70.5528V69.4417V68.3306L75.085 68.2566C75.0617 68.2158 75.0331 68.0643 75.0214 67.9199C75.0097 67.7754 74.9766 67.6118 74.9478 67.5562C74.919 67.5007 74.8848 67.3795 74.8718 67.2869C74.8588 67.1943 74.8222 67.0428 74.7906 66.9502C74.759 66.8576 74.7181 66.7364 74.6998 66.6809C74.6104 66.4097 74.4901 66.0943 74.4333 65.9822C74.4169 65.9498 74.3883 65.893 74.3698 65.856C74.3513 65.8189 74.3182 65.7546 74.2963 65.7129C74.2744 65.6712 74.2342 65.5917 74.207 65.5361C74.1798 65.4806 74.1068 65.3649 74.0448 65.2791C73.9828 65.1933 73.9321 65.1117 73.9321 65.0977C73.9321 65.0577 73.6355 64.6179 73.5163 64.4814C73.457 64.4134 73.3861 64.3124 73.3588 64.257C73.2922 64.1216 72.3382 63.164 72.1477 63.0413C72.0644 62.9877 71.9794 62.9286 71.9588 62.91C71.7419 62.7142 71.6723 62.6602 71.5416 62.5862C71.4583 62.539 71.3295 62.4659 71.2555 62.4238C71.1814 62.3817 71.1012 62.3313 71.0773 62.3119C71.0367 62.2789 70.9606 62.2375 70.5605 62.0312C70.3787 61.9374 69.9242 61.7492 69.875 61.7473C69.8565 61.7467 69.7808 61.7168 69.7067 61.6811C69.6326 61.6453 69.5479 61.6155 69.5184 61.6149C69.4889 61.6142 69.3814 61.585 69.2794 61.55C69.1775 61.5149 69.0034 61.4773 68.8925 61.4664C68.7817 61.4555 68.6392 61.4253 68.5759 61.3993C68.5059 61.3705 68.2633 61.3435 67.9559 61.3301C67.6782 61.318 67.3751 61.2999 67.2826 61.2898C67.19 61.2797 67.1052 61.2804 67.0942 61.2914ZM5.24821 64.261C5.1095 64.3073 4.97314 64.3652 4.94519 64.3896C4.91728 64.414 4.86341 64.4433 4.82543 64.4549C4.68897 64.4963 4.40481 64.8235 4.26714 65.0977L4.13159 65.3678L4.14266 65.8391L4.15374 66.3105L4.27963 66.5383C4.49056 66.9198 4.82563 67.2265 5.1167 67.3044C5.19814 67.3261 5.28077 67.357 5.30026 67.373C5.31976 67.3889 6.38376 67.4047 7.66471 67.4081L9.99368 67.4143L10.045 67.3717L10.0963 67.3291V65.7913V64.2533L10.0559 64.2129L10.0155 64.1725L7.75798 64.1747L5.50049 64.1767L5.24821 64.261ZM29.5452 64.2341L29.4894 64.2957V66.9925V69.6894L29.5432 69.7432L29.597 69.797L31.3361 69.7851L33.0752 69.7732L33.3277 69.7229C33.8097 69.6268 34.4297 69.2703 34.7882 68.8831C34.9108 68.7506 35.0111 68.6305 35.0111 68.6161C35.0111 68.6017 35.0643 68.5109 35.1293 68.4143C35.1943 68.3177 35.257 68.1988 35.2687 68.15C35.2804 68.1012 35.3131 68.0158 35.3416 67.9603C35.4088 67.829 35.4931 67.3132 35.493 67.0344C35.4929 66.7256 35.421 66.2695 35.3449 66.0958C35.3095 66.0147 35.2801 65.9314 35.2797 65.9106C35.2793 65.8898 35.2493 65.8349 35.2131 65.7886C35.1769 65.7423 35.1469 65.6801 35.1465 65.6503C35.1461 65.6205 35.0887 65.5296 35.0189 65.4483C34.9492 65.367 34.8709 65.2589 34.8451 65.2082C34.7553 65.0319 34.273 64.6459 33.9673 64.5057C33.9025 64.476 33.7814 64.4191 33.698 64.3793C33.6147 64.3396 33.5081 64.3071 33.4612 64.3071C33.4142 64.3072 33.2896 64.2769 33.1842 64.2399L32.9927 64.1725H31.2968H29.6009L29.5452 64.2341ZM47.3084 64.2146C47.2661 64.2674 47.1703 64.5924 47.1123 64.8796C47.0217 65.3294 46.9894 65.4748 46.9294 65.7045C46.8954 65.8341 46.8582 66.0007 46.8466 66.0748C46.835 66.1489 46.8045 66.2777 46.7789 66.361C46.7532 66.4443 46.7226 66.6024 46.7108 66.7124C46.699 66.8223 46.6698 66.9511 46.6459 66.9986C46.6221 67.046 46.5925 67.1731 46.5804 67.281C46.5683 67.3888 46.5358 67.5308 46.5084 67.5965C46.4809 67.6622 46.4585 67.7671 46.4585 67.8296C46.4585 67.8921 46.4296 68.0303 46.3943 68.1369C46.359 68.2435 46.3213 68.4028 46.3107 68.4911C46.3 68.5794 46.2683 68.6961 46.2402 68.7504C46.2121 68.8047 46.1891 68.9168 46.1891 68.9995C46.1891 69.0822 46.1612 69.2156 46.1271 69.2958C46.093 69.376 46.0556 69.5118 46.0441 69.5975L46.0232 69.7533L46.0836 69.8079L46.1439 69.8625H48.1465H50.1492L50.2122 69.8164L50.2754 69.7703L50.231 69.5218C50.2066 69.3852 50.166 69.2146 50.1407 69.1428C50.1154 69.0711 50.0943 68.965 50.0939 68.9072C50.0935 68.8493 50.0632 68.7359 50.0266 68.6552C49.989 68.5724 49.96 68.4359 49.96 68.3421C49.96 68.2506 49.9383 68.1337 49.9117 68.0823C49.8851 68.031 49.8482 67.8916 49.8297 67.7726C49.8112 67.6536 49.7723 67.4734 49.7433 67.3721C49.7144 67.2709 49.6907 67.1482 49.6907 67.0996C49.6907 67.0509 49.6684 66.9665 49.6413 66.9121C49.6142 66.8577 49.5818 66.7228 49.5695 66.6123C49.5572 66.5019 49.5276 66.3634 49.5038 66.3045C49.4799 66.2456 49.4502 66.1093 49.4377 66.0015C49.4252 65.8937 49.3861 65.7092 49.3508 65.5915C49.3155 65.4738 49.286 65.3374 49.2852 65.2885C49.2843 65.2395 49.2612 65.1388 49.2338 65.0648C49.2064 64.9907 49.1761 64.8467 49.1664 64.7449C49.148 64.5502 49.0721 64.3307 48.9889 64.2315L48.9395 64.1725H48.1408H47.3421L47.3084 64.2146ZM64.2355 64.9341C63.9597 64.9969 63.5637 65.1123 63.4864 65.1522C63.454 65.1689 63.401 65.1954 63.3686 65.211C62.9891 65.394 62.8212 65.5184 62.4558 65.8871C62.2479 66.097 61.8451 66.6389 61.8451 66.7088C61.8451 66.7201 61.8072 66.8122 61.7609 66.9134C61.7146 67.0146 61.6767 67.1192 61.6767 67.1458C61.6767 67.1724 61.6446 67.2669 61.6053 67.3557L61.5338 67.5172L61.5345 68.2101L61.5351 68.903L61.5907 69.0545C61.6212 69.1378 61.6668 69.2742 61.692 69.3575C61.7629 69.592 61.8228 69.7395 61.8872 69.8376C61.9196 69.8871 61.9461 69.9394 61.9462 69.954C61.9463 69.9685 62.0638 70.1273 62.2072 70.3069C62.4538 70.6158 62.9123 71.0277 63.1453 71.1498C63.1987 71.1777 63.3457 71.2556 63.472 71.3228C63.5984 71.39 63.739 71.445 63.7845 71.445C63.8301 71.445 63.9237 71.4698 63.9925 71.5002C64.0673 71.5331 64.2597 71.5636 64.4709 71.5759L64.824 71.5965L64.8345 71.6512C64.8429 71.6954 64.6815 72.0656 64.5429 72.3204C64.512 72.377 64.4545 72.4885 64.4039 72.5897C64.3854 72.6267 64.3551 72.6873 64.3365 72.7244C64.318 72.7614 64.2877 72.822 64.2692 72.8591C64.2507 72.8961 64.2204 72.9567 64.2019 72.9937C64.1833 73.0308 64.1542 73.0876 64.1371 73.12C63.9984 73.3825 63.7642 73.8843 63.7642 73.9189C63.7642 73.9425 63.806 73.9701 63.8571 73.9803C64.0299 74.0149 65.4118 74.0073 65.4789 73.9714C65.5144 73.9524 65.5652 73.8951 65.5919 73.844C65.6964 73.6436 66.6628 71.7468 67.1279 70.8292C67.3981 70.2961 67.6603 69.7809 67.7106 69.6845C67.7608 69.588 67.8263 69.4257 67.856 69.3238C67.8858 69.222 67.9318 69.0815 67.9583 69.0117L68.0064 68.8848V68.2117V67.5387L67.9422 67.3959C67.9069 67.3175 67.8706 67.2153 67.8617 67.1691C67.8373 67.0432 67.7016 66.7365 67.5861 66.5462C67.5299 66.4536 67.4623 66.3357 67.4359 66.2843C67.4095 66.2328 67.2251 66.0283 67.0261 65.8297L66.6642 65.4688L66.3168 65.2952C66.1258 65.1997 65.8861 65.0919 65.7843 65.0556C65.3576 64.9037 64.622 64.8459 64.2355 64.9341ZM70.0342 65.1489L69.6547 65.1658L69.0999 65.7271L68.5451 66.2885L68.5456 66.7204C68.5459 66.9579 68.5605 67.1749 68.5781 67.2027L68.6101 67.2532L69.1325 67.2543C69.4458 67.2549 69.6688 67.2692 69.6897 67.2901C69.713 67.3134 69.7246 68.0985 69.7248 69.6627L69.7252 72.0005L69.6533 72.0594L69.5814 72.1183H69.1663C68.938 72.1183 68.7422 72.1328 68.7313 72.1504C68.7204 72.168 68.7103 72.5698 68.7089 73.0433L68.7063 73.9041L68.7489 73.9554L68.7915 74.0068L70.572 74.002C71.5512 73.9994 72.3935 73.9863 72.4437 73.9729L72.5349 73.9485L72.5439 73.0797L72.5528 72.2108L72.5145 72.1646L72.4761 72.1183H72.0467H71.6172L71.5786 72.0718L71.54 72.0253L71.5382 68.6227L71.5364 65.2201L71.4833 65.1761L71.4303 65.1321H70.922C70.6425 65.1321 70.243 65.1397 70.0342 65.1489ZM64.6396 66.5618C64.5933 66.5773 64.4948 66.5913 64.4207 66.5928C64.256 66.5963 63.8395 66.8019 63.6766 66.9601C63.5368 67.0959 63.3199 67.4179 63.2275 67.6269C63.1414 67.8214 63.1027 68.3228 63.1531 68.5909C63.263 69.1761 63.7374 69.6764 64.383 69.8877C64.7746 70.0159 65.0041 69.985 65.5093 69.7361L65.756 69.6144L65.9529 69.3996C66.0612 69.2815 66.2001 69.0835 66.2616 68.9597L66.3735 68.7346L66.384 68.2801L66.3945 67.8256L66.2906 67.6067C66.1262 67.2606 66.0614 67.1627 65.8869 66.9966C65.6498 66.7709 65.3826 66.6286 65.1344 66.5958C65.0196 66.5806 64.8803 66.5604 64.8247 66.5509C64.7692 66.5414 64.6859 66.5463 64.6396 66.5618ZM7.55428 71.3103L5.23114 71.3271L5.1234 71.3861C5.06411 71.4185 4.99549 71.445 4.97085 71.445C4.8927 71.445 4.48171 71.8154 4.3538 72.0012C4.21317 72.2054 4.0359 72.7105 4.0359 72.907C4.0359 73.0615 4.13839 73.4033 4.26387 73.6671C4.41535 73.9856 4.83291 74.3662 5.09647 74.426C5.15202 74.4386 5.26238 74.4699 5.34174 74.4957L5.48601 74.5425H7.75336H10.0207L10.0574 74.4983C10.0929 74.4554 10.1213 71.3914 10.0865 71.3566C10.0326 71.3028 9.62487 71.2953 7.55428 71.3103Z" fill="#777777"/>
</svg>
