<svg width="115" height="79" viewBox="0 0 115 79" fill="none" xmlns="http://www.w3.org/2000/svg">
<path d="M75.9316 0C77.8289 0.000213215 79.3672 1.53826 79.3672 3.43555V41.0186C79.3672 42.9158 77.8289 44.4539 75.9316 44.4541H39.0742C37.1768 44.4541 35.6387 42.916 35.6387 41.0186V3.43555C35.6387 1.53812 37.1768 0 39.0742 0H75.9316ZM49.835 35.2178H53.0947V24.4004C53.0948 23.8387 53.1641 23.347 53.3027 22.8555C53.927 21.0996 55.5221 19.625 57.6025 19.625C60.6537 19.6252 61.6943 22.013 61.6943 24.8926V35.1475H64.8838V24.541C64.8837 18.4307 61.0699 16.9561 58.7119 16.9561C57.5329 16.9561 56.3537 17.3072 55.4521 17.8691C54.4121 18.431 53.6495 19.2736 53.0947 20.1865H53.0254V8.94824H49.835V35.2178Z" fill="#6A6E73"/>
<g clip-path="url(#clip0_3140_146)">
<path fill-rule="evenodd" clip-rule="evenodd" d="M8.36364 60.648C7.25284 60.648 6.14205 60.9784 5.29261 61.5071C4.3125 62.0358 3.59375 62.8289 3.07102 63.6881H3.00568V53.1138H0V77.8312H3.07102V67.6535C3.07102 67.1247 3.13636 66.6621 3.26705 66.1995C3.85511 64.5472 5.35795 63.1594 7.31818 63.1594C10.1932 63.1594 11.1733 65.4064 11.1733 68.1161V77.7651H14.179V67.7856C14.179 62.0358 10.5852 60.648 8.36364 60.648Z" fill="#6A6E73"/>
<path d="M19.4705 60.9785H16.4648V77.8313H19.4705V60.9785Z" fill="#6A6E73"/>
<path fill-rule="evenodd" clip-rule="evenodd" d="M74.8805 60.9785L72.5282 69.438C72.0055 71.4207 71.5481 73.2051 71.2868 74.9234H71.1561C70.764 73.2051 70.3066 71.4207 69.6532 69.438L67.1049 61.0446H64.5566L61.8777 69.6362C61.3549 71.4207 60.7669 73.2712 60.3748 74.9234H60.2441C59.9174 73.2051 59.46 71.4206 59.068 69.5701L56.8464 60.9785H53.7754L58.8066 77.8313H61.551L64.2299 69.8345C64.818 68.0501 65.3407 66.2657 65.7328 64.283H65.7981C66.1902 66.2657 66.7129 67.984 67.301 69.8345L69.8493 77.8974H72.5936L78.0169 61.0446H74.8805V60.9785Z" fill="#6A6E73"/>
<path fill-rule="evenodd" clip-rule="evenodd" d="M114.675 68.5128C114.675 65.4066 113.237 60.582 107.748 60.582C103.501 60.582 100.692 63.6221 100.038 67.7197H97.7512L97.2285 69.9006H99.9075C100.038 74.7913 103.044 77.7653 108.075 77.7653C110.754 77.7653 112.584 77.1705 113.694 76.7079L113.172 74.5269C112.061 75.0556 110.754 75.3861 108.598 75.3861C105.527 75.3861 102.913 74.0643 102.848 69.9667H114.675V68.5128ZM104.285 67.7858H102.782C103.044 65.6709 104.351 62.8291 107.422 62.8291C110.819 62.8291 111.669 65.8692 111.604 67.7858H104.285Z" fill="#6A6E73"/>
<path fill-rule="evenodd" clip-rule="evenodd" d="M30.2534 60.6479C27.5091 60.6479 25.5488 62.2341 24.7647 63.8202H24.6994L24.5034 61.0445H21.9551V77.8973H25.0261V67.7195C25.0261 67.1908 25.0914 66.6621 25.2221 66.2656C25.7449 64.5472 27.313 63.0933 29.2733 63.0933C32.1483 63.0933 33.1284 65.3403 33.1284 68.05V77.7651H36.1341V67.7856C36.1341 62.0358 32.5403 60.6479 30.2534 60.6479Z" fill="#6A6E73"/>
<path fill-rule="evenodd" clip-rule="evenodd" d="M49.9838 63.1594H49.9185C49.1344 61.8376 47.5009 60.648 44.8872 60.648C40.8361 60.648 37.373 64.0846 37.373 69.7022C37.373 74.7911 40.5094 78.2938 44.5605 78.2938C47.3049 78.2938 49.2651 76.8399 50.1799 74.9894H50.3105L50.4412 77.8973H52.9895V53.1138H49.9838V63.1594ZM49.9838 70.7597C49.9838 71.2223 49.9838 71.6188 49.8532 72.0814C49.3304 74.3285 47.4355 75.7164 45.41 75.7164C42.1429 75.7164 40.4441 72.8745 40.4441 69.504C40.4441 65.8029 42.339 63.0272 45.4753 63.0272C47.7623 63.0272 49.3958 64.6133 49.8532 66.5299C49.9838 66.9265 49.9838 67.4552 49.9838 67.8517V70.7597Z" fill="#6A6E73"/>
<path fill-rule="evenodd" clip-rule="evenodd" d="M87.2303 77.8312H90.236V67.5213C90.236 64.1507 88.9945 60.6479 83.8979 60.6479C81.807 60.6479 79.7814 61.2428 78.4092 62.1019L79.0627 64.1507C80.2388 63.3576 81.8723 62.895 83.4405 62.895C86.8382 62.8289 87.2303 65.4064 87.2303 66.7282V67.7195C80.1081 67.7195 77.4291 68.843 77.2331 72.8084C77.1024 75.2537 78.932 77.8312 82.3297 77.8312C83.3098 77.8312 84.2899 77.6329 85.074 77.2364L85.27 75.0555C84.682 75.3859 83.9632 75.5842 83.1791 75.5842C81.6763 75.5842 80.4348 75.1215 80.4348 73.1389C80.4348 69.8344 82.7871 69.9666 87.361 69.9666L87.2303 77.8312Z" fill="#6A6E73"/>
<path fill-rule="evenodd" clip-rule="evenodd" d="M100.431 63.5559L100.757 60.714C100.496 60.6479 100.235 60.6479 99.908 60.6479C97.8825 60.6479 95.9876 62.1019 95.2688 64.349H95.2035L95.0728 60.9784H92.5898V77.8312H95.5955V68.843C95.5955 68.3804 95.6609 67.8517 95.7262 67.3891C96.1183 65.0759 97.6864 63.4898 99.7773 63.4898C100.104 63.5559 100.104 63.4237 100.431 63.5559Z" fill="#6A6E73"/>
</g>
<defs>
<clipPath id="clip0_3140_146">
<rect width="115" height="25.114" fill="white" transform="translate(0 53.1138)"/>
</clipPath>
</defs>
</svg>
