<svg width="733" height="733" viewBox="0 0 733 733" fill="none" xmlns="http://www.w3.org/2000/svg">
<g clip-path="url(#clip0_3241_12452)">
<path d="M665.464 155.649C656.593 220.307 621.736 281.374 563.244 323.093C504.756 364.809 433.874 379.164 366.957 368.568C375.829 303.911 410.684 242.844 469.175 201.126C527.664 159.409 598.547 145.053 665.464 155.649Z" fill="#E61F25"/>
<path d="M367.373 368.889C434.506 378.032 498.15 412.195 541.944 468.972C585.739 525.75 601.267 594.232 590.883 658.664C523.75 649.521 460.107 615.357 416.314 558.581C372.519 501.803 356.989 433.321 367.373 368.889Z" fill="#E61F25"/>
<path d="M74.2486 589.859C81.3993 524.992 114.613 463.073 171.961 419.915C229.311 376.756 299.777 360.652 366.94 369.597C359.789 434.465 326.575 496.383 269.227 539.54C211.878 582.699 141.412 598.804 74.2486 589.859Z" fill="#E61F25"/>
<path d="M366.514 369.288C299.172 361.806 234.652 329.217 189.372 273.525C144.092 217.833 126.752 149.738 135.421 85.0544C202.763 92.5361 267.281 125.126 312.561 180.818C357.841 236.51 375.182 304.604 366.514 369.288Z" fill="#E61F25"/>
</g>
<defs>
<clipPath id="clip0_3241_12452">
<rect width="733" height="733" rx="366.5" fill="white"/>
</clipPath>
</defs>
</svg>
