<svg width="34" height="34" viewBox="0 0 34 34" fill="none" xmlns="http://www.w3.org/2000/svg">
<rect width="33.75" height="33.75" rx="9.38" fill="#FFFEF7"/>
<path d="M8.92969 12.9238V10.9238C8.92969 10.3934 9.1404 9.88469 9.51547 9.50961C9.89055 9.13454 10.3993 8.92383 10.9297 8.92383H12.9297" stroke="#E61F25" stroke-width="2" stroke-linecap="round" stroke-linejoin="round"/>
<path d="M8.92969 20.9238V22.9238C8.92969 23.4543 9.1404 23.963 9.51547 24.338C9.89055 24.7131 10.3993 24.9238 10.9297 24.9238H12.9297" stroke="#E61F25" stroke-width="2" stroke-linecap="round" stroke-linejoin="round"/>
<path d="M20.9297 8.92383H22.9297C23.4601 8.92383 23.9688 9.13454 24.3439 9.50961C24.719 9.88469 24.9297 10.3934 24.9297 10.9238V12.9238" stroke="#E61F25" stroke-width="2" stroke-linecap="round" stroke-linejoin="round"/>
<path d="M20.9297 24.9238H22.9297C23.4601 24.9238 23.9688 24.7131 24.3439 24.338C24.719 23.963 24.9297 23.4543 24.9297 22.9238V20.9238" stroke="#E61F25" stroke-width="2" stroke-linecap="round" stroke-linejoin="round"/>
<path d="M13.9297 16.9238C13.9297 17.7195 14.2458 18.4825 14.8084 19.0451C15.371 19.6078 16.134 19.9238 16.9297 19.9238C17.7253 19.9238 18.4884 19.6078 19.051 19.0451C19.6136 18.4825 19.9297 17.7195 19.9297 16.9238C19.9297 16.1282 19.6136 15.3651 19.051 14.8025C18.4884 14.2399 17.7253 13.9238 16.9297 13.9238C16.134 13.9238 15.371 14.2399 14.8084 14.8025C14.2458 15.3651 13.9297 16.1282 13.9297 16.9238Z" stroke="#E61F25" stroke-width="2" stroke-linecap="round" stroke-linejoin="round"/>
</svg>
