<svg width="34" height="34" viewBox="0 0 34 34" fill="none" xmlns="http://www.w3.org/2000/svg">
<rect width="33.75" height="33.75" rx="9.38" fill="black"/>
<path fill-rule="evenodd" clip-rule="evenodd" d="M16.8176 6.12305H16.9324C19.2408 6.12304 21.0498 6.12303 22.4613 6.3128C23.906 6.50704 25.0461 6.91238 25.9409 7.80719C26.8357 8.702 27.241 9.84202 27.4353 11.2868C27.625 12.6982 27.625 14.5073 27.625 16.8156V16.9304C27.625 19.2388 27.625 21.0478 27.4353 22.4593C27.241 23.904 26.8357 25.0441 25.9409 25.9389C25.0461 26.8337 23.906 27.239 22.4613 27.4333C21.0498 27.623 19.2408 27.623 16.9324 27.623H16.8176C14.5092 27.623 12.7002 27.623 11.2887 27.4333C9.84397 27.239 8.70395 26.8337 7.80914 25.9389C6.91433 25.0441 6.50899 23.904 6.31475 22.4593C6.12498 21.0478 6.12499 19.2388 6.125 16.9304V16.8156C6.12499 14.5073 6.12498 12.6982 6.31475 11.2868C6.50899 9.84202 6.91433 8.702 7.80914 7.80719C8.70395 6.91238 9.84397 6.50704 11.2887 6.3128C12.7002 6.12303 14.5092 6.12304 16.8176 6.12305ZM11.4886 7.79942C10.2102 7.9713 9.43945 8.29819 8.8698 8.86785C8.30014 9.4375 7.97325 10.2082 7.80137 11.4866C7.77422 11.6886 7.75124 11.9004 7.73181 12.123H11.4633L14.3194 7.6349C13.1919 7.6522 12.2671 7.69476 11.4886 7.79942ZM16.0822 7.62337C16.0636 7.67573 16.0388 7.72684 16.0077 7.77571L13.2413 12.123H17.9633L20.7939 7.67496C19.7307 7.62375 18.4497 7.62305 16.875 7.62305C16.602 7.62305 16.3379 7.62307 16.0822 7.62337ZM22.4732 7.83003L19.7413 12.123H26.0182C25.9988 11.9004 25.9758 11.6886 25.9486 11.4866C25.7768 10.2082 25.4499 9.4375 24.8802 8.86785C24.3427 8.33036 23.6262 8.00899 22.4732 7.83003ZM26.0983 13.623H18.3862C18.3783 13.6232 18.3703 13.6232 18.3624 13.623H11.8862C11.8783 13.6232 11.8703 13.6232 11.8624 13.623H7.65172C7.62545 14.5448 7.625 15.6152 7.625 16.873C7.625 19.2512 7.62659 20.9594 7.80137 22.2594C7.97325 23.5378 8.30014 24.3085 8.8698 24.8782C9.43945 25.4479 10.2102 25.7748 11.4886 25.9466C12.7886 26.1214 14.4968 26.123 16.875 26.123C19.2532 26.123 20.9614 26.1214 22.2614 25.9466C23.5398 25.7748 24.3105 25.4479 24.8802 24.8782C25.4499 24.3085 25.7768 23.5378 25.9486 22.2594C26.1234 20.9594 26.125 19.2512 26.125 16.873C26.125 15.6152 26.1246 14.5448 26.0983 13.623ZM18.2432 16.7942L18.3449 16.8598C18.9647 17.2596 19.5013 17.6058 19.8754 17.9366C20.2733 18.2886 20.625 18.7416 20.625 19.373C20.625 20.0044 20.2733 20.4574 19.8754 20.8094C19.5013 21.1401 18.9647 21.4863 18.3449 21.8862L18.2432 21.9518C17.6171 22.3558 17.0729 22.707 16.6209 22.9077C16.1506 23.1165 15.548 23.267 14.9732 22.9019C14.4286 22.5558 14.2634 21.9652 14.1941 21.4452C14.1249 20.926 14.125 20.2404 14.125 19.4279V19.3181C14.125 18.5056 14.1249 17.82 14.1941 17.3008C14.2634 16.7808 14.4286 16.1902 14.9732 15.8441C15.548 15.479 16.1506 15.6295 16.6209 15.8383C17.0729 16.039 17.6171 16.3902 18.2432 16.7942ZM15.7329 17.1247C15.7329 17.1247 15.737 17.1226 15.7487 17.1234C15.7394 17.1259 15.7329 17.1247 15.7329 17.1247ZM15.7721 17.1262C15.8123 17.1331 15.8869 17.1536 16.0122 17.2092C16.3438 17.3564 16.7884 17.6407 17.4823 18.0884C18.1657 18.5294 18.6035 18.8143 18.8816 19.0603C19.1377 19.2867 19.126 19.3662 19.125 19.3726C19.126 19.3791 19.1377 19.4593 18.8816 19.6857C18.6035 19.9317 18.1657 20.2166 17.4823 20.6576C16.7884 21.1053 16.3438 21.3896 16.0122 21.5368C15.8869 21.5924 15.8123 21.6129 15.7721 21.6198C15.7499 21.577 15.7112 21.4736 15.681 21.2471C15.6266 20.8392 15.625 20.2551 15.625 19.373C15.625 18.4909 15.6266 17.9068 15.681 17.4989C15.7112 17.2724 15.7499 17.169 15.7721 17.1262ZM15.7329 21.6213C15.7329 21.6213 15.7394 21.6202 15.7487 21.6226C15.737 21.6234 15.7329 21.6213 15.7329 21.6213ZM15.7851 21.6412C15.7885 21.6441 15.7899 21.6463 15.7899 21.6463C15.7899 21.6463 15.7881 21.6452 15.7851 21.6412ZM15.7851 17.1048C15.7881 17.1008 15.7899 17.0997 15.7899 17.0997C15.7899 17.0997 15.7885 17.1019 15.7851 17.1048Z" fill="white"/>
</svg>
