<svg width="367" height="366" viewBox="0 0 367 366" fill="none" xmlns="http://www.w3.org/2000/svg">
<path d="M232.03 0.855469C168.328 37.634 146.503 119.09 183.282 182.792C146.503 119.09 65.0474 97.263 1.34375 134.041C38.1242 197.745 119.578 219.57 183.282 182.792C246.983 146.013 268.808 64.5572 232.03 0.855469Z" fill="#F9B900"/>
<path d="M232.03 0.855469V0.855469ZM232.03 0.855469C168.328 37.634 146.503 119.09 183.282 182.792M232.03 0.855469C268.808 64.5572 246.983 146.013 183.282 182.792M183.282 182.792C146.503 119.09 65.0474 97.263 1.34375 134.041C38.1242 197.745 119.578 219.57 183.282 182.792Z" stroke="#F9B900" stroke-width="1.97225"/>
<path d="M134.522 364.724C198.224 327.945 220.051 246.489 183.272 182.788C220.051 246.489 301.505 268.316 365.208 231.538C328.43 167.836 246.974 146.009 183.272 182.788C119.569 219.566 97.7438 301.022 134.522 364.724Z" fill="#F9B900"/>
<path d="M134.522 364.724V364.724ZM134.522 364.724C198.224 327.945 220.051 246.489 183.272 182.788M134.522 364.724C97.7438 301.022 119.569 219.566 183.272 182.788M183.272 182.788C220.051 246.489 301.505 268.316 365.209 231.538C328.43 167.836 246.974 146.009 183.272 182.788Z" stroke="#F9B900" stroke-width="1.97225"/>
</svg>
